<?xml version="1.0" encoding="utf-8"?>
<!-- Generator: Adobe Illustrator 26.1.0, SVG Export Plug-In . SVG Version: 6.00 Build 0)  -->
<svg version="1.1" id="Layer_1" xmlns="http://www.w3.org/2000/svg" xmlns:xlink="http://www.w3.org/1999/xlink" x="0px" y="0px"
	 viewBox="0 0 913.1 448.7" style="enable-background:new 0 0 913.1 448.7;" xml:space="preserve">
<style type="text/css">
	.st0{fill:#F9F9F9;}
	.st1{fill:#FFEBB5;}
	.st2{fill:#FFFFFF;}
	.st3{fill:#EEE1B4;stroke:#E9B977;stroke-width:7;stroke-miterlimit:10;}
	.st4{fill:none;stroke:#FFEBB5;stroke-miterlimit:10;}
</style>
<g>
	<rect x="632.2" y="63.4" class="st0" width="151.5" height="318.3"/>
	<g>
		<path class="st1" d="M121.6,152.1h-9c-0.7-2.3-1.9-4.1-3.6-5.4c-1.7-1.2-3.8-1.9-6.2-1.9c-2.4,0-4.4,0.6-6.2,1.9
			c-1.7,1.3-3,3-4,5.4c-0.9,2.3-1.4,5.1-1.4,8.3s0.5,6,1.4,8.3s2.3,4.1,4.1,5.3c1.8,1.2,3.9,1.9,6.4,1.9c1.8,0,3.4-0.4,4.9-1.1
			c1.5-0.7,2.7-1.8,3.6-3.4c0.9-1.5,1.5-3.5,1.7-5.8h4.1c0,4-0.7,7.2-2,9.8s-3.1,4.5-5.4,5.7c-2.3,1.3-4.9,1.9-7.8,1.9
			c-4,0-7.5-0.9-10.4-2.7c-3-1.8-5.3-4.4-6.9-7.8c-1.6-3.4-2.5-7.4-2.5-12.1c0-4.7,0.8-8.7,2.5-12.1c1.7-3.4,4-6,7.1-7.9
			s6.7-2.8,11-2.8c3,0,5.8,0.5,8.4,1.6s4.7,2.7,6.5,4.8C119.7,146.3,121,148.9,121.6,152.1z M121.5,182.1h-6l-2.2-16.5H104v-6.5
			h17.6L121.5,182.1L121.5,182.1z"/>
		<path class="st1" d="M150.1,167.7h2.6c-0.2,3.4-0.8,6.3-1.9,8.6c-1.1,2.3-2.6,4-4.4,5.1c-1.8,1.1-3.9,1.7-6.2,1.7
			c-2.2,0-4.2-0.5-5.9-1.4s-3.1-2.3-4-4.1s-1.4-4.1-1.4-6.8v-22.9h8.2v21.2c0,1.5,0.2,2.8,0.6,3.9s1.1,1.9,1.9,2.5
			c0.9,0.6,2,0.8,3.4,0.8c1.1,0,2.1-0.2,3-0.7c0.9-0.4,1.6-1.1,2.2-1.9c0.6-0.8,1.1-1.7,1.4-2.7C149.9,170,150.1,168.9,150.1,167.7z
			 M158.3,147.9v34.2h-8.2v-34.2H158.3z"/>
		<path class="st1" d="M165.8,144v-7.9h8.2v7.9H165.8z M165.8,182.1v-34.2h8.2v34.2H165.8z"/>
		<path class="st1" d="M194.3,183.1c-2.9,0-5.5-0.7-7.7-2.2c-2.2-1.4-3.8-3.5-5-6.2s-1.8-5.9-1.8-9.6c0-5.8,1.3-10.3,3.9-13.4
			c2.6-3.1,6.1-4.7,10.5-4.7c3.8,0,6.8,1.6,9,4.7c2.2,3.1,3.3,7.6,3.3,13.5c0,3.7-0.5,6.9-1.5,9.6c-1,2.7-2.4,4.8-4.3,6.2
			C199,182.3,196.8,183.1,194.3,183.1z M195.7,176.3c2.4,0,4.3-1,5.6-2.9s1.9-4.7,1.9-8.4s-0.7-6.5-2-8.4c-1.3-2-3.2-2.9-5.6-2.9
			c-2.4,0-4.3,1-5.6,2.9s-1.9,4.8-1.9,8.5c0,3.6,0.6,6.3,1.9,8.3C191.5,175.3,193.4,176.3,195.7,176.3z M203.3,182.1v-46h8.2v46
			H203.3z"/>
		<path class="st1" d="M233.7,183.1c-3.4,0-6.3-0.7-8.8-2.2c-2.4-1.4-4.3-3.5-5.7-6.2c-1.3-2.7-2-5.9-2-9.6c0-3.9,0.7-7.2,2-9.9
			s3.2-4.8,5.7-6.2s5.4-2.1,8.7-2.1c3.4,0,6.3,0.7,8.7,2.2s4.3,3.6,5.7,6.3c1.3,2.7,2,5.9,2,9.7s-0.7,7.1-2,9.8s-3.2,4.7-5.7,6.1
			C240,182.3,237.1,183.1,233.7,183.1z M233.7,176.3c2.6,0,4.5-1,5.9-2.9s2-4.7,2-8.3c0-3.7-0.7-6.5-2-8.4c-1.4-2-3.3-2.9-5.9-2.9
			c-2.6,0-4.6,1-5.9,2.9c-1.4,1.9-2,4.8-2,8.5c0,3.6,0.7,6.3,2,8.3C229.2,175.3,231.1,176.3,233.7,176.3z"/>
		<path class="st1" d="M268.8,182.1v-43.4h8.6v43.4H268.8z M287.7,182.1h-12.6v-6.8h12.5c2.2,0,3.9-0.6,5.2-1.7
			c1.3-1.1,1.9-2.6,1.9-4.4c0-1.8-0.7-3.2-2-4.4c-1.3-1.1-3.2-1.7-5.6-1.7h-11.9v-6.4h10.1c2.3,0,4-0.5,5.2-1.5s1.8-2.4,1.8-4
			c0-1.7-0.6-3.1-1.8-4.2s-2.9-1.5-5-1.5h-10.3v-6.8h10.5c4.8,0,8.5,1.1,11.3,3.3s4.2,5.1,4.2,8.8c0,2.5-0.8,4.6-2.3,6.3
			c-1.6,1.7-3.7,2.8-6.4,3.3v-1.9c3.6,0.5,6.3,1.7,8.3,3.6c1.9,2,2.9,4.5,2.9,7.5c0,4-1.4,7.1-4.1,9.3
			C296.6,181,292.7,182.1,287.7,182.1z"/>
		<path class="st1" d="M309.4,144v-7.9h8.2v7.9H309.4z M309.4,182.1v-34.2h8.2v34.2H309.4z"/>
		<path class="st1" d="M321.7,154.2v-6.3h19.8v6.3H321.7z M326.1,171.4V140h8.2v30.7c0,1.8,0.4,3.2,1.1,4.1c0.7,0.9,2.2,1.4,4.5,1.4
			h1.5v6c-0.4,0.3-1.1,0.5-2,0.6s-1.9,0.2-3,0.2c-3.5,0-6.1-1-7.8-2.9C326.9,178.2,326.1,175.3,326.1,171.4z"/>
		<path class="st1" d="M343,154.2v-6.3h19.8v6.3H343z M347.4,171.4V140h8.2v30.7c0,1.8,0.4,3.2,1.1,4.1c0.7,0.9,2.2,1.4,4.5,1.4h1.5
			v6c-0.4,0.3-1.1,0.5-2,0.6s-1.9,0.2-3,0.2c-3.5,0-6.1-1-7.8-2.9C348.2,178.2,347.4,175.3,347.4,171.4z"/>
		<path class="st1" d="M395,161.5l-4.7,3.3c0-3.6-0.7-6.4-2-8.3c-1.4-1.9-3.3-2.9-5.9-2.9s-4.6,1-5.9,2.9c-1.4,2-2,4.8-2,8.5
			c0,3.6,0.7,6.4,2.1,8.4s3.5,2.9,6.2,2.9c1.9,0,3.5-0.4,4.8-1.3c1.3-0.9,2.2-2.3,2.7-4.1h8.6c-0.9,4-2.8,7-5.7,9
			c-2.9,2.1-6.4,3.1-10.4,3.1c-3.4,0-6.4-0.7-8.9-2.2c-2.5-1.4-4.4-3.5-5.8-6.2c-1.3-2.7-2-5.9-2-9.6c0-3.9,0.7-7.2,2-9.9
			s3.2-4.8,5.7-6.2s5.3-2.1,8.6-2.1c3.3,0,6.2,0.7,8.6,2.2c2.4,1.4,4.3,3.5,5.6,6.1c1.3,2.6,2,5.8,2,9.5v1.9h-29.2v-5.1H395V161.5z"
			/>
		<path class="st1" d="M404.7,182.1v-34.2h8.2v34.2H404.7z M412.8,162.2h-2.6c0.2-3.4,0.9-6.3,2-8.6s2.6-3.9,4.4-5.1
			c1.9-1.1,4-1.7,6.4-1.7c2.3,0,4.3,0.5,6,1.4s3.1,2.3,4,4.1c1,1.8,1.4,4.1,1.4,6.9V182h-8.2v-21c0-1.6-0.2-2.9-0.7-4
			c-0.4-1.1-1.1-1.9-2-2.5s-2-0.8-3.4-0.8c-1.1,0-2.1,0.2-3,0.7c-0.9,0.4-1.7,1.1-2.3,1.9c-0.6,0.8-1.1,1.7-1.5,2.7
			C413,160,412.8,161.1,412.8,162.2z"/>
		<path class="st1" d="M471.7,160h-8.2c-0.4-2.2-1.2-3.8-2.5-4.8s-2.7-1.5-4.4-1.5c-2.6,0-4.5,1-5.8,2.9s-1.9,4.8-1.9,8.5
			c0,3.6,0.7,6.4,2,8.3c1.4,1.9,3.3,2.9,5.9,2.9c1.7,0,3.2-0.5,4.4-1.4c1.2-1,2-2.4,2.4-4.4h8.2c-0.8,4.3-2.5,7.5-5.3,9.5
			s-6.1,3.1-10,3.1c-3.4,0-6.2-0.7-8.7-2.2c-2.4-1.5-4.3-3.5-5.6-6.2c-1.3-2.7-2-5.9-2-9.6c0-3.9,0.7-7.2,2-9.9s3.2-4.8,5.6-6.2
			s5.3-2.1,8.6-2.1c2.6,0,5,0.5,7.1,1.5s3.9,2.4,5.3,4.4C470.4,154.7,471.3,157.1,471.7,160z"/>
		<path class="st1" d="M492.4,183.1c-3.4,0-6.3-0.7-8.8-2.2c-2.4-1.4-4.3-3.5-5.7-6.2c-1.3-2.7-2-5.9-2-9.6c0-3.9,0.7-7.2,2-9.9
			s3.2-4.8,5.7-6.2s5.4-2.1,8.7-2.1c3.4,0,6.3,0.7,8.7,2.2c2.4,1.5,4.3,3.6,5.7,6.3c1.3,2.7,2,5.9,2,9.7s-0.7,7.1-2,9.8
			s-3.2,4.7-5.7,6.1C498.6,182.3,495.7,183.1,492.4,183.1z M492.4,176.3c2.6,0,4.5-1,5.9-2.9s2-4.7,2-8.3c0-3.7-0.7-6.5-2-8.4
			c-1.4-2-3.3-2.9-5.9-2.9s-4.6,1-5.9,2.9c-1.4,1.9-2,4.8-2,8.5c0,3.6,0.7,6.3,2,8.3C487.8,175.3,489.8,176.3,492.4,176.3z"/>
		<path class="st1" d="M536,167.7h2.6c-0.2,3.4-0.8,6.3-1.9,8.6c-1.1,2.3-2.6,4-4.4,5.1c-1.8,1.1-3.9,1.7-6.2,1.7
			c-2.2,0-4.2-0.5-5.9-1.4s-3.1-2.3-4-4.1s-1.4-4.1-1.4-6.8v-22.9h8.2v21.2c0,1.5,0.2,2.8,0.6,3.9c0.4,1.1,1.1,1.9,1.9,2.5
			c0.9,0.6,2,0.8,3.4,0.8c1.1,0,2.1-0.2,3-0.7c0.9-0.4,1.6-1.1,2.2-1.9c0.6-0.8,1.1-1.7,1.4-2.7S536,168.9,536,167.7z M544.2,147.9
			v34.2H536v-34.2H544.2z"/>
		<path class="st1" d="M551.7,182.1v-34.2h8.2v34.2H551.7z M559.9,163.9h-2.6c0.2-4,0.8-7.2,1.9-9.7c1.1-2.5,2.6-4.3,4.3-5.5
			s3.6-1.8,5.7-1.8c0.7,0,1.3,0.1,1.9,0.3c0.6,0.2,1.1,0.4,1.4,0.7v7.1c-0.6-0.2-1.1-0.3-1.7-0.4c-0.6-0.1-1.3-0.1-2-0.1
			c-1.5,0-2.9,0.2-4,0.7c-1.1,0.4-2.1,1.1-2.8,1.9c-0.7,0.8-1.3,1.8-1.6,2.9C560,161.2,559.9,162.4,559.9,163.9z"/>
		<path class="st1" d="M573.6,154.2v-6.3h19.8v6.3H573.6z M578,171.4V140h8.2v30.7c0,1.8,0.4,3.2,1.1,4.1c0.7,0.9,2.2,1.4,4.5,1.4
			h1.5v6c-0.4,0.3-1.1,0.5-2,0.6s-1.9,0.2-3,0.2c-3.5,0-6.1-1-7.8-2.9C578.8,178.2,578,175.3,578,171.4z"/>
	</g>
	<g>
		<path class="st2" d="M413.7,222.3h11.4c4.6,0,8.1,3.5,8.1,8s-3.5,8.1-8.1,8.1h-9.5v13.3h-1.9V222.3z M431.4,230.3
			c0-3.5-2.7-6.3-6.2-6.3h-9.5v12.6h9.5C428.6,236.7,431.4,233.9,431.4,230.3z"/>
		<path class="st2" d="M436.6,246.1h1.8c0.3,2.7,2.7,4.4,5.9,4.4c3.3,0,5.6-1.8,5.6-4.3c0-6.8-12.8-2-12.8-10c0-3.1,2.8-5.3,6.9-5.3
			c3.7,0,6.8,2.1,7.2,5.4h-1.9c-0.4-2.2-2.6-3.8-5.4-3.8c-2.9,0-5,1.5-5,3.6c0,6.5,12.8,1.6,12.8,10c0,3.5-3.1,6-7.4,6
			S437,249.8,436.6,246.1z"/>
		<path class="st2" d="M458.1,223c0.9,0,1.6,0.7,1.6,1.6c0,0.8-0.7,1.6-1.6,1.6s-1.6-0.7-1.6-1.6C456.4,223.7,457.2,223,458.1,223z
			 M459,231.4v20.4h-1.9v-20.4H459z"/>
		<path class="st2" d="M464.3,241.6c0-6,4.6-10.6,10.5-10.6c4.4,0,8.3,2.8,9.2,6.6h-2c-0.7-2.8-3.8-4.9-7.3-4.9
			c-4.9,0-8.7,3.9-8.7,8.9s3.8,8.9,8.7,8.9c3.4,0,6.6-2,7.3-5.1h1.9c-0.7,4.1-4.8,6.8-9.2,6.8C468.9,252.2,464.3,247.6,464.3,241.6z
			"/>
		<path class="st2" d="M508.9,241.6c0,6-4.7,10.6-10.5,10.6s-10.5-4.6-10.5-10.6s4.6-10.6,10.5-10.6
			C504.2,231,508.9,235.6,508.9,241.6z M498.4,250.5c4.8,0,8.8-3.9,8.8-8.9s-3.9-8.9-8.8-8.9s-8.7,3.9-8.7,8.9
			C489.6,246.5,493.5,250.5,498.4,250.5z M500.4,223.2h2.4l-4,5.6H497L500.4,223.2z"/>
		<path class="st2" d="M516,251.8h-1.9v-29.4h1.9V251.8z"/>
		<path class="st2" d="M542.3,241.6c0,6-4.7,10.6-10.5,10.6s-10.5-4.6-10.5-10.6s4.6-10.6,10.5-10.6
			C537.6,231,542.3,235.6,542.3,241.6z M531.8,250.5c4.8,0,8.8-3.9,8.8-8.9s-3.9-8.9-8.8-8.9c-4.9,0-8.7,3.9-8.7,8.9
			C523.1,246.5,526.9,250.5,531.8,250.5z"/>
		<path class="st2" d="M547.8,253.5h1.8c0,3.3,3.4,5.4,7.6,5.4c4.8,0,8.2-3.1,8.2-7.7v-5.4c-1.4,3.8-4.7,6.1-9.1,6.1
			c-5.8,0-10.4-4.7-10.4-10.6c0-5.9,4.6-10.5,10.4-10.5c4.4,0,7.7,2.3,9.1,6.1v-5.6h1.8v19.9c0,5.6-4.1,9.3-9.9,9.3
			C552.3,260.6,547.9,257.9,547.8,253.5z M556.4,250.3c5.2,0,8.9-3.7,8.9-8.9c0-5.1-3.7-8.8-8.9-8.8c-5,0-8.8,3.9-8.8,8.8
			C547.7,246.5,551.5,250.3,556.4,250.3z"/>
		<path class="st2" d="M593,241.6c0,6-4.7,10.6-10.5,10.6s-10.5-4.6-10.5-10.6s4.6-10.6,10.5-10.6S593,235.6,593,241.6z
			 M582.5,250.5c4.8,0,8.8-3.9,8.8-8.9s-3.9-8.9-8.8-8.9c-4.9,0-8.7,3.9-8.7,8.9C573.8,246.5,577.7,250.5,582.5,250.5z"/>
	</g>
	<polygon class="st3" points="795.8,63.4 849,63.4 849,430.7 795.8,383 	"/>
	<line class="st4" x1="82.4" y1="202.3" x2="590.4" y2="202.3"/>
</g>
</svg>
