<?xml version="1.0" encoding="utf-8"?>
<!-- Generator: Adobe Illustrator 26.1.0, SVG Export Plug-In . SVG Version: 6.00 Build 0)  -->
<svg version="1.1" id="Layer_1" xmlns="http://www.w3.org/2000/svg" xmlns:xlink="http://www.w3.org/1999/xlink" x="0px" y="0px"
	 viewBox="0 0 913.1 448.7" style="enable-background:new 0 0 913.1 448.7;" xml:space="preserve">
<style type="text/css">
	.st0{display:none;}
	.st1{display:inline;}
	.st2{fill:#FFEBB5;}
	.st3{fill:#FFFFFF;}
	.st4{fill:#EEE1B4;stroke:#E9B977;stroke-width:7;stroke-miterlimit:10;}
	.st5{fill:#F9F9F9;}
	.st6{fill:none;stroke:#FFEBB5;stroke-miterlimit:10;}
	.st7{fill:#FFE9E9;}
</style>
<g class="st0">
	<g class="st1">
		<g>
			<path class="st2" d="M465,120.1h-9c-0.7-2.3-1.9-4.1-3.6-5.4c-1.7-1.2-3.8-1.9-6.2-1.9s-4.4,0.6-6.2,1.9c-1.7,1.3-3,3-4,5.4
				c-0.9,2.3-1.4,5.1-1.4,8.3s0.5,6,1.4,8.3c0.9,2.3,2.3,4.1,4.1,5.3c1.8,1.2,3.9,1.9,6.4,1.9c1.8,0,3.4-0.4,4.9-1.1
				c1.5-0.7,2.7-1.8,3.6-3.4c0.9-1.5,1.5-3.5,1.7-5.8h4.1c0,4-0.7,7.2-2,9.8c-1.3,2.6-3.1,4.5-5.4,5.7c-2.3,1.3-4.9,1.9-7.8,1.9
				c-4,0-7.5-0.9-10.4-2.7c-3-1.8-5.3-4.4-6.9-7.8c-1.6-3.4-2.5-7.4-2.5-12.1c0-4.7,0.8-8.7,2.5-12.1c1.7-3.4,4-6,7.1-7.9
				c3.1-1.9,6.7-2.8,11-2.8c3,0,5.8,0.5,8.4,1.6c2.6,1.1,4.7,2.7,6.5,4.8C463.1,114.3,464.4,116.9,465,120.1z M464.9,150.1h-6
				l-2.2-16.5h-9.3v-6.5H465L464.9,150.1L464.9,150.1z"/>
			<path class="st2" d="M493.5,135.7h2.6c-0.2,3.4-0.8,6.3-1.9,8.6c-1.1,2.3-2.6,4-4.4,5.1s-3.9,1.7-6.2,1.7c-2.2,0-4.2-0.5-5.9-1.4
				s-3.1-2.3-4-4.1s-1.4-4.1-1.4-6.8v-22.9h8.2v21.2c0,1.5,0.2,2.8,0.6,3.9c0.4,1.1,1.1,1.9,1.9,2.5c0.9,0.6,2,0.8,3.4,0.8
				c1.1,0,2.1-0.2,3-0.7c0.9-0.4,1.6-1.1,2.2-1.9c0.6-0.8,1.1-1.7,1.4-2.7C493.3,138,493.5,136.9,493.5,135.7z M501.7,115.9v34.2
				h-8.2v-34.2H501.7z"/>
			<path class="st2" d="M509.2,112v-7.9h8.2v7.9H509.2z M509.2,150.1v-34.2h8.2v34.2H509.2z"/>
			<path class="st2" d="M537.7,151.1c-2.9,0-5.5-0.7-7.7-2.2c-2.2-1.4-3.8-3.5-5-6.2c-1.2-2.7-1.8-5.9-1.8-9.6
				c0-5.8,1.3-10.3,3.9-13.4c2.6-3.1,6.1-4.7,10.5-4.7c3.8,0,6.8,1.6,9,4.7c2.2,3.1,3.3,7.6,3.3,13.5c0,3.7-0.5,6.9-1.5,9.6
				c-1,2.7-2.4,4.8-4.3,6.2C542.4,150.3,540.2,151.1,537.7,151.1z M539.1,144.3c2.4,0,4.3-1,5.6-2.9c1.3-1.9,1.9-4.7,1.9-8.4
				s-0.7-6.5-2-8.4c-1.3-2-3.2-2.9-5.6-2.9c-2.4,0-4.3,1-5.6,2.9s-1.9,4.8-1.9,8.5c0,3.6,0.6,6.3,1.9,8.3
				C534.9,143.3,536.8,144.3,539.1,144.3z M546.7,150.1v-46h8.2v46H546.7z"/>
			<path class="st2" d="M577.1,151.1c-3.4,0-6.3-0.7-8.8-2.2c-2.4-1.4-4.3-3.5-5.7-6.2c-1.3-2.7-2-5.9-2-9.6c0-3.9,0.7-7.2,2-9.9
				s3.2-4.8,5.7-6.2s5.4-2.1,8.7-2.1c3.4,0,6.3,0.7,8.7,2.2c2.4,1.5,4.3,3.6,5.7,6.3c1.3,2.7,2,5.9,2,9.7s-0.7,7.1-2,9.8
				s-3.2,4.7-5.7,6.1C583.4,150.3,580.5,151.1,577.1,151.1z M577.1,144.3c2.6,0,4.5-1,5.9-2.9c1.4-1.9,2-4.7,2-8.3
				c0-3.7-0.7-6.5-2-8.4c-1.4-2-3.3-2.9-5.9-2.9s-4.6,1-5.9,2.9c-1.4,1.9-2,4.8-2,8.5c0,3.6,0.7,6.3,2,8.3
				C572.6,143.3,574.5,144.3,577.1,144.3z"/>
		</g>
		<g>
			<path class="st2" d="M268.8,222.1v-43.4h8.6v43.4H268.8z M287.7,222.1h-12.6v-6.8h12.5c2.2,0,3.9-0.6,5.2-1.7
				c1.3-1.1,1.9-2.6,1.9-4.4c0-1.8-0.7-3.2-2-4.4c-1.3-1.1-3.2-1.7-5.6-1.7h-11.9v-6.4h10.1c2.3,0,4-0.5,5.2-1.5s1.8-2.4,1.8-4
				c0-1.7-0.6-3.1-1.8-4.2s-2.9-1.5-5-1.5h-10.3v-6.8h10.5c4.8,0,8.5,1.1,11.3,3.3s4.2,5.1,4.2,8.8c0,2.5-0.8,4.6-2.3,6.3
				c-1.6,1.7-3.7,2.8-6.4,3.3v-1.9c3.6,0.5,6.3,1.7,8.3,3.6c1.9,2,2.9,4.5,2.9,7.5c0,4-1.4,7.1-4.1,9.3
				C296.6,221,292.7,222.1,287.7,222.1z"/>
			<path class="st2" d="M309.4,184v-7.9h8.2v7.9H309.4z M309.4,222.1v-34.2h8.2v34.2H309.4z"/>
			<path class="st2" d="M321.7,194.2v-6.3h19.8v6.3H321.7z M326.1,211.4V180h8.2v30.7c0,1.8,0.4,3.2,1.1,4.1
				c0.7,0.9,2.2,1.4,4.5,1.4h1.5v6c-0.4,0.3-1.1,0.5-2,0.6s-1.9,0.2-3,0.2c-3.5,0-6.1-1-7.8-2.9
				C326.9,218.2,326.1,215.3,326.1,211.4z"/>
			<path class="st2" d="M343,194.2v-6.3h19.8v6.3H343z M347.4,211.4V180h8.2v30.7c0,1.8,0.4,3.2,1.1,4.1c0.7,0.9,2.2,1.4,4.5,1.4
				h1.5v6c-0.4,0.3-1.1,0.5-2,0.6s-1.9,0.2-3,0.2c-3.5,0-6.1-1-7.8-2.9C348.2,218.2,347.4,215.3,347.4,211.4z"/>
			<path class="st2" d="M395,201.5l-4.7,3.3c0-3.6-0.7-6.4-2-8.3c-1.4-1.9-3.3-2.9-5.9-2.9s-4.6,1-5.9,2.9c-1.4,2-2,4.8-2,8.5
				c0,3.6,0.7,6.4,2.1,8.4s3.5,2.9,6.2,2.9c1.9,0,3.5-0.4,4.8-1.3c1.3-0.9,2.2-2.3,2.7-4.1h8.6c-0.9,4-2.8,7-5.7,9
				c-2.9,2.1-6.4,3.1-10.4,3.1c-3.4,0-6.4-0.7-8.9-2.2c-2.5-1.4-4.4-3.5-5.8-6.2c-1.3-2.7-2-5.9-2-9.6c0-3.9,0.7-7.2,2-9.9
				s3.2-4.8,5.7-6.2s5.3-2.1,8.6-2.1c3.3,0,6.2,0.7,8.6,2.2c2.4,1.4,4.3,3.5,5.6,6.1c1.3,2.6,2,5.8,2,9.5v1.9h-29.2v-5.1H395V201.5z
				"/>
			<path class="st2" d="M404.7,222.1v-34.2h8.2v34.2H404.7z M412.8,202.2h-2.6c0.2-3.4,0.9-6.3,2-8.6s2.6-3.9,4.4-5.1
				c1.9-1.1,4-1.7,6.4-1.7c2.3,0,4.3,0.5,6,1.4s3.1,2.3,4,4.1c1,1.8,1.4,4.1,1.4,6.9V222h-8.2v-21c0-1.6-0.2-2.9-0.7-4
				c-0.4-1.1-1.1-1.9-2-2.5s-2-0.8-3.4-0.8c-1.1,0-2.1,0.2-3,0.7c-0.9,0.4-1.7,1.1-2.3,1.9c-0.6,0.8-1.1,1.7-1.5,2.7
				C413,200,412.8,201.1,412.8,202.2z"/>
			<path class="st2" d="M471.7,200h-8.2c-0.4-2.2-1.2-3.8-2.5-4.8s-2.7-1.5-4.4-1.5c-2.6,0-4.5,1-5.8,2.9s-1.9,4.8-1.9,8.5
				c0,3.6,0.7,6.4,2,8.3c1.4,1.9,3.3,2.9,5.9,2.9c1.7,0,3.2-0.5,4.4-1.4c1.2-1,2-2.4,2.4-4.4h8.2c-0.8,4.3-2.5,7.5-5.3,9.5
				s-6.1,3.1-10,3.1c-3.4,0-6.2-0.7-8.7-2.2c-2.4-1.5-4.3-3.5-5.6-6.2c-1.3-2.7-2-5.9-2-9.6c0-3.9,0.7-7.2,2-9.9s3.2-4.8,5.6-6.2
				s5.3-2.1,8.6-2.1c2.6,0,5,0.5,7.1,1.5s3.9,2.4,5.3,4.4C470.4,194.7,471.3,197.1,471.7,200z"/>
			<path class="st2" d="M492.4,223.1c-3.4,0-6.3-0.7-8.8-2.2c-2.4-1.4-4.3-3.5-5.7-6.2c-1.3-2.7-2-5.9-2-9.6c0-3.9,0.7-7.2,2-9.9
				s3.2-4.8,5.7-6.2s5.4-2.1,8.7-2.1c3.4,0,6.3,0.7,8.7,2.2c2.4,1.5,4.3,3.6,5.7,6.3c1.3,2.7,2,5.9,2,9.7s-0.7,7.1-2,9.8
				s-3.2,4.7-5.7,6.1C498.6,222.3,495.7,223.1,492.4,223.1z M492.4,216.3c2.6,0,4.5-1,5.9-2.9s2-4.7,2-8.3c0-3.7-0.7-6.5-2-8.4
				c-1.4-2-3.3-2.9-5.9-2.9s-4.6,1-5.9,2.9c-1.4,1.9-2,4.8-2,8.5c0,3.6,0.7,6.3,2,8.3C487.8,215.3,489.8,216.3,492.4,216.3z"/>
			<path class="st2" d="M536,207.7h2.6c-0.2,3.4-0.8,6.3-1.9,8.6c-1.1,2.3-2.6,4-4.4,5.1c-1.8,1.1-3.9,1.7-6.2,1.7
				c-2.2,0-4.2-0.5-5.9-1.4s-3.1-2.3-4-4.1s-1.4-4.1-1.4-6.8v-22.9h8.2v21.2c0,1.5,0.2,2.8,0.6,3.9c0.4,1.1,1.1,1.9,1.9,2.5
				c0.9,0.6,2,0.8,3.4,0.8c1.1,0,2.1-0.2,3-0.7c0.9-0.4,1.6-1.1,2.2-1.9c0.6-0.8,1.1-1.7,1.4-2.7S536,208.9,536,207.7z M544.2,187.9
				v34.2H536v-34.2H544.2z"/>
			<path class="st2" d="M551.7,222.1v-34.2h8.2v34.2H551.7z M559.9,203.9h-2.6c0.2-4,0.8-7.2,1.9-9.7c1.1-2.5,2.6-4.3,4.3-5.5
				s3.6-1.8,5.7-1.8c0.7,0,1.3,0.1,1.9,0.3c0.6,0.2,1.1,0.4,1.4,0.7v7.1c-0.6-0.2-1.1-0.3-1.7-0.4c-0.6-0.1-1.3-0.1-2-0.1
				c-1.5,0-2.9,0.2-4,0.7c-1.1,0.4-2.1,1.1-2.8,1.9c-0.7,0.8-1.3,1.8-1.6,2.9C560,201.2,559.9,202.4,559.9,203.9z"/>
			<path class="st2" d="M573.6,194.2v-6.3h19.8v6.3H573.6z M578,211.4V180h8.2v30.7c0,1.8,0.4,3.2,1.1,4.1c0.7,0.9,2.2,1.4,4.5,1.4
				h1.5v6c-0.4,0.3-1.1,0.5-2,0.6s-1.9,0.2-3,0.2c-3.5,0-6.1-1-7.8-2.9C578.8,218.2,578,215.3,578,211.4z"/>
		</g>
		<g>
			<path class="st3" d="M413.7,262.3h11.4c4.6,0,8.1,3.5,8.1,8s-3.5,8.1-8.1,8.1h-9.5v13.3h-1.9V262.3z M431.4,270.3
				c0-3.5-2.7-6.3-6.2-6.3h-9.5v12.6h9.5C428.6,276.7,431.4,273.9,431.4,270.3z"/>
			<path class="st3" d="M436.6,286.1h1.8c0.3,2.7,2.7,4.4,5.9,4.4c3.3,0,5.6-1.8,5.6-4.3c0-6.8-12.8-2-12.8-10
				c0-3.1,2.8-5.3,6.9-5.3c3.7,0,6.8,2.1,7.2,5.4h-1.9c-0.4-2.2-2.6-3.8-5.4-3.8c-2.9,0-5,1.5-5,3.6c0,6.5,12.8,1.6,12.8,10
				c0,3.5-3.1,6-7.4,6S437,289.8,436.6,286.1z"/>
			<path class="st3" d="M458.1,263c0.9,0,1.6,0.7,1.6,1.6c0,0.8-0.7,1.6-1.6,1.6s-1.6-0.7-1.6-1.6C456.4,263.7,457.2,263,458.1,263z
				 M459,271.4v20.4h-1.9v-20.4H459z"/>
			<path class="st3" d="M464.3,281.6c0-6,4.6-10.6,10.5-10.6c4.4,0,8.3,2.8,9.2,6.6h-2c-0.7-2.8-3.8-4.9-7.3-4.9
				c-4.9,0-8.7,3.9-8.7,8.9s3.8,8.9,8.7,8.9c3.4,0,6.6-2,7.3-5.1h1.9c-0.7,4.1-4.8,6.8-9.2,6.8C468.9,292.2,464.3,287.6,464.3,281.6
				z"/>
			<path class="st3" d="M508.9,281.6c0,6-4.7,10.6-10.5,10.6s-10.5-4.6-10.5-10.6s4.6-10.6,10.5-10.6
				C504.2,271,508.9,275.6,508.9,281.6z M498.4,290.5c4.8,0,8.8-3.9,8.8-8.9s-3.9-8.9-8.8-8.9s-8.7,3.9-8.7,8.9
				C489.6,286.5,493.5,290.5,498.4,290.5z M500.4,263.2h2.4l-4,5.6H497L500.4,263.2z"/>
			<path class="st3" d="M516,291.8h-1.9v-29.4h1.9V291.8z"/>
			<path class="st3" d="M542.3,281.6c0,6-4.7,10.6-10.5,10.6s-10.5-4.6-10.5-10.6s4.6-10.6,10.5-10.6
				C537.6,271,542.3,275.6,542.3,281.6z M531.8,290.5c4.8,0,8.8-3.9,8.8-8.9s-3.9-8.9-8.8-8.9c-4.9,0-8.7,3.9-8.7,8.9
				C523.1,286.5,526.9,290.5,531.8,290.5z"/>
			<path class="st3" d="M547.8,293.5h1.8c0,3.3,3.4,5.4,7.6,5.4c4.8,0,8.2-3.1,8.2-7.7v-5.4c-1.4,3.8-4.7,6.1-9.1,6.1
				c-5.8,0-10.4-4.7-10.4-10.6c0-5.9,4.6-10.5,10.4-10.5c4.4,0,7.7,2.3,9.1,6.1v-5.6h1.8v19.9c0,5.6-4.1,9.3-9.9,9.3
				C552.3,300.6,547.9,297.9,547.8,293.5z M556.4,290.3c5.2,0,8.9-3.7,8.9-8.9c0-5.1-3.7-8.8-8.9-8.8c-5,0-8.8,3.9-8.8,8.8
				C547.7,286.5,551.5,290.3,556.4,290.3z"/>
			<path class="st3" d="M593,281.6c0,6-4.7,10.6-10.5,10.6s-10.5-4.6-10.5-10.6s4.6-10.6,10.5-10.6S593,275.6,593,281.6z
				 M582.5,290.5c4.8,0,8.8-3.9,8.8-8.9s-3.9-8.9-8.8-8.9c-4.9,0-8.7,3.9-8.7,8.9C573.8,286.5,577.7,290.5,582.5,290.5z"/>
		</g>
	</g>
</g>
<polygon class="st4" points="726.2,63.4 779.4,63.4 779.4,430.7 726.2,383 "/>
<rect x="562.6" y="63.4" class="st5" width="151.5" height="318.3"/>
<line class="st6" x1="193.6" y1="242.3" x2="526.8" y2="242.3"/>
<g>
	<g>
		<path class="st2" d="M381.9,129.6h16.5v8.3c0,3.6-0.7,6.7-2.1,9.4c-1.4,2.7-3.3,4.7-5.8,6.2c-2.5,1.5-5.4,2.2-8.8,2.2
			c-3.4,0-6.3-0.7-8.9-2.1c-2.5-1.4-4.5-3.3-5.9-5.9c-1.4-2.5-2.1-5.5-2.1-8.8v-14c0-3.6,0.7-6.7,2.1-9.4c1.4-2.7,3.3-4.7,5.8-6.2
			c2.5-1.5,5.4-2.2,8.8-2.2c2.8,0,5.3,0.6,7.6,1.8c2.3,1.2,4.2,2.8,5.7,4.9c1.5,2.1,2.6,4.6,3.1,7.4h-7.2c-0.6-2.5-1.8-4.4-3.6-5.7
			s-3.7-2-5.7-2c-3,0-5.3,1-7.1,3.1c-1.8,2.1-2.7,4.8-2.7,8.2v14c0,3.1,0.9,5.6,2.7,7.4c1.8,1.9,4.3,2.8,7.3,2.8c3,0,5.3-1,7.1-2.9
			c1.8-2,2.7-4.7,2.7-8.2v-2.1h-9.7V129.6z"/>
		<path class="st2" d="M415.2,121.2v20.6c0,2.4,0.6,4.2,1.8,5.5c1.2,1.3,2.9,1.9,5.1,1.9c2.2,0,3.9-0.6,5.1-1.8
			c1.2-1.2,1.8-2.8,1.8-4.9l0.5,7.1c-0.6,1.5-1.7,2.9-3.2,4.1c-1.5,1.2-3.5,1.8-6,1.8c-3.8,0-6.6-1.2-8.7-3.6
			c-2-2.4-3.1-5.8-3.1-10.2v-20.6H415.2z M429.1,155.2v-34h6.6v34H429.1z"/>
		<path class="st2" d="M445.8,114.3v-6.7h6.7v6.7H445.8z M445.8,155.2v-34h6.7v34H445.8z"/>
		<path class="st2" d="M473.4,155.8c-3.8,0-6.6-1.2-8.7-3.6c-2-2.4-3.1-5.8-3.1-10.2v-7.5c0-4.4,1-7.8,3-10.2c2-2.4,4.8-3.6,8.4-3.6
			c2,0,3.8,0.5,5.5,1.6c1.7,1,3,2.5,4,4.4l-0.7,6.9c0-1.4-0.3-2.7-0.8-3.7c-0.5-1-1.3-1.8-2.3-2.3c-1-0.5-2.2-0.8-3.6-0.8
			c-2.2,0-3.9,0.7-5.1,2.1c-1.2,1.4-1.8,3.3-1.8,5.8v7.4c0,2.5,0.6,4.4,1.8,5.7c1.2,1.3,2.9,2,5.1,2c1.4,0,2.6-0.3,3.6-0.8
			c1-0.6,1.8-1.4,2.3-2.4s0.8-2.3,0.8-3.8l0.5,7.2c-0.6,1.5-1.7,2.9-3.2,4.1C477.8,155.2,475.8,155.8,473.4,155.8z M482,155.2v-47.6
			h6.7v47.6H482z"/>
		<path class="st2" d="M511.8,155.7c-4.4,0-7.9-1.3-10.3-3.9c-2.4-2.6-3.7-6.2-3.7-10.9v-5.5c0-4.6,1.2-8.2,3.7-10.8
			c2.4-2.6,5.9-3.8,10.3-3.8s7.9,1.3,10.3,3.8c2.4,2.6,3.7,6.2,3.7,10.8v5.6c0,4.7-1.2,8.3-3.7,10.8
			C519.7,154.4,516.2,155.7,511.8,155.7z M511.8,149.3c2.3,0,4.1-0.7,5.4-2.2c1.3-1.5,1.9-3.5,1.9-6.2v-5.6c0-2.6-0.6-4.7-1.9-6.1
			c-1.3-1.4-3.1-2.2-5.4-2.2c-2.3,0-4.1,0.7-5.4,2.2c-1.3,1.4-1.9,3.5-1.9,6.1v5.6c0,2.6,0.6,4.7,1.9,6.2
			C507.7,148.6,509.5,149.3,511.8,149.3z"/>
		<path class="st2" d="M201.2,221.2v-47.6h6.6v47.6H201.2z M205.2,221.2V215H218c3.5,0,6-0.7,7.5-2c1.5-1.4,2.2-3.1,2.2-5.3v-0.1
			c0-2.4-0.6-4.2-1.9-5.6c-1.3-1.4-3.3-2.1-6.2-2.1h-14.5v-6h14.5c2.5,0,4.3-0.6,5.6-1.8c1.3-1.2,1.9-2.9,1.9-5.1
			c0-2.4-0.7-4.2-2.1-5.3c-1.4-1.2-3.5-1.8-6.3-1.8h-13.6v-6.2H220c4.7,0,8.2,1.2,10.5,3.5c2.3,2.3,3.4,5.5,3.4,9.4
			c0,2.4-0.7,4.6-2.1,6.5c-1.4,2-3.6,3.2-6.6,3.8c2.9,0.4,5.2,1.7,6.9,3.9c1.6,2.2,2.4,4.6,2.4,7.4v0.1c0,3.9-1.3,7-3.8,9.4
			c-2.5,2.4-5.9,3.6-10.2,3.6H205.2z"/>
		<path class="st2" d="M243.8,180.3v-6.7h6.7v6.7H243.8z M243.8,221.2v-34h6.7v34H243.8z"/>
		<path class="st2" d="M258,193.2v-6h15.3v6H258z M269.5,221.3c-2.8,0-4.8-0.8-6.1-2.3c-1.3-1.5-1.9-3.8-1.9-6.7v-35h6.7v35.1
			c0,0.8,0.2,1.4,0.5,1.9s0.8,0.7,1.4,0.7h3.2v6.3H269.5z"/>
		<path class="st2" d="M279.9,193.2v-6h15.3v6H279.9z M291.3,221.3c-2.8,0-4.8-0.8-6.1-2.3c-1.3-1.5-1.9-3.8-1.9-6.7v-35h6.7v35.1
			c0,0.8,0.2,1.4,0.5,1.9s0.8,0.7,1.4,0.7h3.2v6.3H291.3z"/>
		<path class="st2" d="M318.2,221.7c-4.7,0-8.4-1.3-11-4c-2.6-2.6-3.9-6.4-3.9-11.3v-3.8c0-5.1,1.2-9,3.7-11.7
			c2.5-2.8,6-4.2,10.6-4.2c4.3,0,7.6,1.6,9.9,4.7c2.3,3.1,3.5,7.5,3.5,13.2v2.2h-22.9v-5.4h16.6c-0.2-2.7-0.9-4.9-2.1-6.4
			c-1.2-1.5-2.9-2.3-5-2.3c-2.5,0-4.5,0.8-5.9,2.5c-1.4,1.7-2.1,4-2.1,7v4.3c0,2.8,0.7,5,2.2,6.5c1.5,1.5,3.6,2.3,6.3,2.3
			c1.4,0,2.7-0.3,4-0.8c1.3-0.5,2.5-1.3,3.6-2.3l4.4,4.4c-1.7,1.6-3.6,2.9-5.7,3.7C322.5,221.2,320.4,221.7,318.2,221.7z"/>
		<path class="st2" d="M340.3,221.2v-34h6.7v34H340.3z M360.9,221.2v-20.6c0-2.4-0.6-4.3-1.8-5.6c-1.2-1.3-3-2-5.3-2
			c-2.2,0-3.9,0.6-5.1,1.7c-1.2,1.2-1.8,2.8-1.8,4.9l-0.7-6.5c1-2,2.4-3.6,4.1-4.7c1.7-1.1,3.6-1.7,5.6-1.7c3.7,0,6.5,1.2,8.6,3.6
			c2,2.4,3,5.8,3,10.2v20.6H360.9z"/>
		<path class="st2" d="M391.4,221.7c-4.7,0-8.3-1.3-10.8-3.9c-2.6-2.6-3.8-6.2-3.8-10.9v-5.6c0-4.6,1.3-8.2,3.8-10.8
			c2.6-2.5,6.2-3.8,10.8-3.8c2.7,0,5.1,0.5,7.2,1.4c2.1,0.9,3.8,2.3,5.1,4l-4.8,4.3c-0.9-1.1-2.1-1.9-3.3-2.5
			c-1.3-0.6-2.6-0.9-4.1-0.9c-2.6,0-4.6,0.7-6,2.2c-1.4,1.4-2.1,3.5-2.1,6.1v5.6c0,2.7,0.7,4.8,2.1,6.2c1.4,1.5,3.4,2.2,6,2.2
			c1.4,0,2.8-0.3,4.1-0.9c1.3-0.6,2.4-1.5,3.3-2.7l4.8,4.6c-1.3,1.7-3,3-5.1,3.9C396.4,221.2,394,221.7,391.4,221.7z"/>
		<path class="st2" d="M424.1,221.7c-4.4,0-7.9-1.3-10.3-3.9c-2.4-2.6-3.7-6.2-3.7-10.9v-5.5c0-4.6,1.2-8.2,3.7-10.8
			c2.4-2.6,5.9-3.8,10.3-3.8c4.4,0,7.9,1.3,10.3,3.8s3.7,6.2,3.7,10.8v5.6c0,4.7-1.2,8.3-3.7,10.8
			C432,220.4,428.5,221.7,424.1,221.7z M424.1,215.3c2.3,0,4.1-0.7,5.4-2.2c1.3-1.5,1.9-3.5,1.9-6.2v-5.6c0-2.6-0.6-4.7-1.9-6.1
			c-1.3-1.4-3.1-2.2-5.4-2.2c-2.3,0-4.1,0.7-5.4,2.2c-1.3,1.4-1.9,3.5-1.9,6.1v5.6c0,2.6,0.6,4.7,1.9,6.2
			C420,214.6,421.8,215.3,424.1,215.3z"/>
		<path class="st2" d="M454.2,187.2v20.6c0,2.4,0.6,4.2,1.8,5.5c1.2,1.3,2.9,1.9,5.1,1.9c2.2,0,3.9-0.6,5.1-1.8
			c1.2-1.2,1.8-2.8,1.8-4.9l0.5,7.1c-0.6,1.5-1.7,2.9-3.2,4.1c-1.5,1.2-3.5,1.8-6,1.8c-3.8,0-6.6-1.2-8.7-3.6
			c-2-2.4-3.1-5.8-3.1-10.2v-20.6H454.2z M468,221.2v-34h6.6v34H468z"/>
		<path class="st2" d="M484.8,221.2v-34h6.7v34H484.8z M503.5,195.3c-0.6-0.7-1.3-1.3-2.2-1.6c-0.9-0.4-1.9-0.6-3.1-0.6
			c-2.1,0-3.8,0.6-4.9,1.8c-1.2,1.2-1.8,2.8-1.8,4.9l-0.7-6.5c1-2,2.4-3.6,4-4.7c1.7-1.1,3.5-1.7,5.5-1.7c1.5,0,3,0.2,4.2,0.7
			c1.3,0.4,2.3,1.1,3.3,2L503.5,195.3z"/>
		<path class="st2" d="M510.8,193.2v-6h15.3v6H510.8z M522.3,221.3c-2.8,0-4.8-0.8-6.1-2.3c-1.3-1.5-1.9-3.8-1.9-6.7v-35h6.7v35.1
			c0,0.8,0.2,1.4,0.5,1.9s0.8,0.7,1.4,0.7h3.2v6.3H522.3z"/>
	</g>
</g>
<g>
	<g>
		<path class="st7" d="M354.6,296.4v-34.1h3.4v34.1H354.6z M357,283.2V280h9.1c1.5,0,2.7-0.5,3.6-1.5s1.3-2.4,1.3-4.1v-3.3
			c0-1.8-0.4-3.1-1.3-4.1s-2.1-1.5-3.6-1.5H357v-3.1h8.9c1.8,0,3.3,0.4,4.6,1.1s2.3,1.7,3,3s1,2.9,1,4.7v3.4c0,1.8-0.3,3.3-1,4.6
			s-1.7,2.3-3,3s-2.8,1.1-4.5,1.1H357z"/>
		<path class="st7" d="M386.8,296.7c-2.2,0-4.1-0.5-5.6-1.4s-2.5-2.3-3.1-4.1l2.7-1.2c0.7,1.2,1.5,2.2,2.5,2.8s2.2,1,3.5,1
			c1.9,0,3.3-0.4,4.3-1.1s1.5-1.8,1.5-3.3c0-1-0.3-1.8-0.9-2.3s-1.3-0.9-2.3-1.1s-2-0.4-3.1-0.6c-0.9-0.1-1.8-0.3-2.7-0.6
			s-1.7-0.6-2.5-1s-1.4-1.1-1.8-1.9s-0.7-1.9-0.7-3.2c0-2.3,0.7-4.1,2.1-5.3s3.5-1.8,6.2-1.8c2,0,3.6,0.4,5,1.2s2.3,2,2.9,3.6
			l-2.8,1.2c-0.6-1-1.3-1.8-2.2-2.4s-1.9-0.9-3-0.9c-1.7,0-2.9,0.4-3.8,1.1s-1.3,1.8-1.3,3.2c0,1,0.3,1.7,0.8,2.2s1.3,0.8,2.2,1.1
			s1.9,0.4,3,0.6c0.9,0.1,1.8,0.3,2.7,0.5s1.8,0.5,2.5,1s1.4,1.1,1.8,2s0.7,2,0.7,3.4c0,2.4-0.8,4.2-2.3,5.4
			S389.7,296.7,386.8,296.7z"/>
		<path class="st7" d="M400.7,266.3V263h3.4v3.4H400.7z M400.7,296.4V272h3.4v24.3H400.7z"/>
		<path class="st7" d="M419.3,296.7c-2.9,0-5.1-0.8-6.7-2.3s-2.3-3.7-2.3-6.6v-7.1c0-2.9,0.8-5.1,2.3-6.7s3.7-2.3,6.7-2.3
			c2.3,0,4.1,0.5,5.5,1.6s2.3,2.5,2.6,4.5l-3.3,1c-0.3-1.3-0.8-2.2-1.7-2.9s-1.8-1-3.1-1c-1.8,0-3.2,0.5-4.2,1.5s-1.5,2.5-1.5,4.4
			v7.1c0,1.9,0.5,3.3,1.5,4.3s2.4,1.5,4.2,1.5c1.3,0,2.4-0.3,3.2-0.9s1.4-1.5,1.7-2.7l3.1,1c-0.3,1.9-1.2,3.3-2.6,4.3
			S421.6,296.7,419.3,296.7z"/>
		<path class="st7" d="M439.9,296.7c-2.7,0-4.8-0.8-6.3-2.3s-2.2-3.7-2.2-6.5v-7.5c0-2.8,0.7-4.9,2.2-6.5s3.6-2.3,6.3-2.3
			s4.8,0.8,6.3,2.3s2.2,3.7,2.2,6.5v7.6c0,2.8-0.7,4.9-2.2,6.5S442.6,296.7,439.9,296.7z M439.8,293.6c1.6,0,2.9-0.5,3.8-1.5
			s1.3-2.4,1.3-4.1v-7.6c0-1.8-0.4-3.1-1.3-4.1s-2.2-1.5-3.8-1.5c-1.6,0-2.9,0.5-3.8,1.5s-1.3,2.3-1.3,4.1v7.6
			c0,1.8,0.4,3.1,1.3,4.1S438.2,293.6,439.8,293.6z M440,267.5l-2.3-1.6l6.2-8.3l2.7,2.1L440,267.5z"/>
		<path class="st7" d="M457.5,262.3V290c0,1,0.2,1.8,0.7,2.4s1.2,0.9,2,0.9h1.9v3.1h-2.3c-1.8,0-3.2-0.6-4.2-1.7s-1.5-2.7-1.5-4.8
			v-27.6H457.5z"/>
		<path class="st7" d="M474.5,296.7c-2.7,0-4.8-0.8-6.3-2.3s-2.2-3.7-2.2-6.5v-7.5c0-2.8,0.7-4.9,2.2-6.5s3.6-2.3,6.3-2.3
			s4.8,0.8,6.3,2.3s2.2,3.7,2.2,6.5v7.6c0,2.8-0.7,4.9-2.2,6.5S477.2,296.7,474.5,296.7z M474.5,293.6c1.6,0,2.9-0.5,3.8-1.5
			s1.3-2.4,1.3-4.1v-7.6c0-1.8-0.4-3.1-1.3-4.1s-2.2-1.5-3.8-1.5c-1.6,0-2.9,0.5-3.8,1.5s-1.3,2.3-1.3,4.1v7.6
			c0,1.8,0.4,3.1,1.3,4.1S472.9,293.6,474.5,293.6z"/>
		<path class="st7" d="M495.4,296.8c-2.3,0-4.1-0.7-5.3-2.2s-1.9-3.6-1.9-6.3v-7.8c0-2.8,0.6-5,1.9-6.5s3-2.3,5.3-2.3
			c1.5,0,2.8,0.3,4,1s2.2,1.8,2.9,3.3l-0.5,4c0-1-0.2-1.9-0.6-2.8s-1-1.5-1.7-2s-1.7-0.7-2.8-0.7c-1.6,0-2.9,0.5-3.8,1.5
			s-1.4,2.5-1.4,4.3v7.8c0,1.8,0.5,3.1,1.4,4.1s2.2,1.5,3.8,1.5c1.1,0,2-0.2,2.7-0.7s1.3-1.1,1.7-2s0.6-1.7,0.6-2.7l0.3,4.2
			c-0.5,1.5-1.4,2.5-2.6,3.2S497,296.8,495.4,296.8z M496.2,306.3c-2.2,0-3.9-0.5-5.2-1.5s-2.2-2.4-2.4-4.2l3-1
			c0.3,1.2,0.8,2.1,1.6,2.7s1.9,0.9,3.1,0.9c1.7,0,3.1-0.5,4.1-1.4s1.5-2.3,1.5-4V272h3.4v25.5c0,2.8-0.8,4.9-2.3,6.5
			S499.1,306.3,496.2,306.3z"/>
		<path class="st7" d="M519.3,296.7c-2.7,0-4.8-0.8-6.3-2.3s-2.2-3.7-2.2-6.5v-7.5c0-2.8,0.7-4.9,2.2-6.5s3.6-2.3,6.3-2.3
			s4.8,0.8,6.3,2.3s2.2,3.7,2.2,6.5v7.6c0,2.8-0.7,4.9-2.2,6.5S522,296.7,519.3,296.7z M519.3,293.6c1.6,0,2.9-0.5,3.8-1.5
			s1.3-2.4,1.3-4.1v-7.6c0-1.8-0.4-3.1-1.3-4.1s-2.2-1.5-3.8-1.5c-1.6,0-2.9,0.5-3.8,1.5s-1.3,2.3-1.3,4.1v7.6
			c0,1.8,0.4,3.1,1.3,4.1S517.6,293.6,519.3,293.6z"/>
	</g>
</g>
</svg>
