<?xml version="1.0" encoding="UTF-8"?><svg id="a" xmlns="http://www.w3.org/2000/svg" viewBox="0 0 744.4 454.7"><defs><style>.b{fill:#fff;}.c{fill:#ffebb5;}.d{fill:none;stroke:#ffebb5;}.d,.e{stroke-miterlimit:10;}.f{fill:#f9f9f9;}.e{fill:#eee1b4;stroke:#e9b977;stroke-width:7px;}</style></defs><polygon class="e" points="626.6 68.9 679.8 68.9 679.8 436.2 626.6 388.5 626.6 68.9"/><rect class="f" x="463" y="68.9" width="151.5" height="318.3"/><line class="d" x1="93.93" y1="247.8" x2="427.2" y2="247.8"/><g><path class="c" d="M282.3,135.05h16.49v8.31c0,3.58-.69,6.7-2.08,9.37-1.39,2.67-3.32,4.74-5.81,6.22-2.49,1.47-5.41,2.21-8.77,2.21s-6.34-.69-8.87-2.08c-2.53-1.38-4.49-3.34-5.89-5.86-1.4-2.52-2.09-5.46-2.09-8.82v-14.03c0-3.58,.69-6.7,2.08-9.36,1.38-2.66,3.32-4.73,5.81-6.2,2.49-1.47,5.41-2.21,8.77-2.21,2.77,0,5.29,.59,7.57,1.77,2.28,1.18,4.19,2.82,5.74,4.94,1.55,2.12,2.6,4.59,3.14,7.43h-7.23c-.61-2.46-1.8-4.35-3.57-5.66-1.77-1.31-3.65-1.96-5.66-1.96-2.97,0-5.34,1.03-7.13,3.09-1.79,2.06-2.68,4.78-2.68,8.16v14.03c0,3.1,.92,5.58,2.75,7.44,1.83,1.86,4.25,2.8,7.26,2.8s5.34-.98,7.13-2.94c1.79-1.96,2.68-4.7,2.68-8.21v-2.06h-9.65v-6.38Z"/><path class="c" d="M315.6,126.71v20.64c0,2.38,.61,4.22,1.82,5.51,1.21,1.3,2.92,1.95,5.12,1.95s3.9-.58,5.09-1.75c1.19-1.17,1.78-2.81,1.78-4.92l.46,7.1c-.61,1.53-1.68,2.9-3.21,4.11-1.53,1.21-3.52,1.82-5.99,1.82-3.75,0-6.65-1.2-8.69-3.61-2.04-2.41-3.06-5.81-3.06-10.19v-20.64h6.67Zm13.81,33.96v-33.96h6.64v33.96h-6.64Z"/><path class="c" d="M346.19,119.77v-6.67h6.67v6.67h-6.67Zm0,40.89v-33.96h6.67v33.96h-6.67Z"/><path class="c" d="M373.77,161.26c-3.75,0-6.65-1.2-8.69-3.62-2.04-2.41-3.06-5.81-3.06-10.19v-7.49c0-4.41,1-7.81,2.99-10.22,2-2.41,4.8-3.62,8.42-3.62,2.01,0,3.84,.52,5.51,1.57,1.67,1.05,3.01,2.52,4.04,4.42l-.69,6.94c0-1.44-.26-2.67-.79-3.7-.52-1.02-1.28-1.8-2.27-2.34-.99-.53-2.2-.8-3.62-.8-2.2,0-3.91,.69-5.12,2.06-1.21,1.37-1.82,3.3-1.82,5.79v7.39c0,2.46,.61,4.37,1.82,5.71,1.21,1.34,2.92,2.01,5.12,2.01,1.42,0,2.62-.28,3.62-.83,.99-.56,1.75-1.36,2.27-2.4s.79-2.3,.79-3.76l.46,7.16c-.61,1.53-1.66,2.9-3.16,4.11-1.49,1.21-3.44,1.82-5.84,1.82Zm8.54-.59v-47.57h6.67v47.57h-6.67Z"/><path class="c" d="M412.14,161.16c-4.45,0-7.9-1.29-10.34-3.88-2.44-2.58-3.66-6.22-3.66-10.91v-5.53c0-4.65,1.22-8.24,3.66-10.8,2.44-2.55,5.89-3.83,10.34-3.83s7.89,1.28,10.34,3.83c2.44,2.55,3.66,6.15,3.66,10.8v5.63c0,4.67-1.22,8.28-3.66,10.84-2.44,2.56-5.89,3.84-10.34,3.84Zm0-6.35c2.33,0,4.14-.73,5.41-2.19,1.28-1.46,1.91-3.51,1.91-6.15v-5.63c0-2.64-.64-4.68-1.91-6.12-1.28-1.44-3.08-2.16-5.41-2.16s-4.11,.72-5.4,2.16c-1.29,1.44-1.93,3.48-1.93,6.12v5.63c0,2.64,.64,4.69,1.93,6.15,1.29,1.46,3.08,2.19,5.4,2.19Z"/><path class="c" d="M102.4,226.67v-47.57h6.64v47.57h-6.64Zm3.93,0v-6.18h12.89c3.53,0,6.04-.68,7.51-2.03,1.47-1.35,2.21-3.13,2.21-5.33v-.1c0-2.36-.63-4.24-1.88-5.64-1.25-1.41-3.32-2.11-6.2-2.11h-14.53v-6.02h14.53c2.46,0,4.32-.58,5.58-1.75,1.25-1.17,1.88-2.87,1.88-5.12,0-2.38-.7-4.15-2.09-5.33-1.4-1.18-3.49-1.77-6.28-1.77h-13.61v-6.18h14.82c4.69,0,8.18,1.17,10.47,3.5,2.29,2.33,3.44,5.46,3.44,9.39,0,2.38-.7,4.55-2.09,6.53-1.4,1.97-3.59,3.23-6.58,3.78,2.94,.44,5.23,1.73,6.85,3.89,1.62,2.16,2.44,4.63,2.44,7.43v.1c0,3.88-1.25,7.01-3.76,9.39-2.51,2.38-5.91,3.57-10.21,3.57h-15.38Z"/><path class="c" d="M144.99,185.77v-6.67h6.67v6.67h-6.67Zm0,40.89v-33.96h6.67v33.96h-6.67Z"/><path class="c" d="M159.19,198.73v-6.02h15.31v6.02h-15.31Zm11.45,28.1c-2.79,0-4.81-.77-6.07-2.32-1.25-1.55-1.88-3.77-1.88-6.67v-35h6.67v35.07c0,.81,.16,1.44,.49,1.9s.81,.69,1.44,.69h3.21v6.35h-3.86Z"/><path class="c" d="M181.04,198.73v-6.02h15.31v6.02h-15.31Zm11.45,28.1c-2.79,0-4.81-.77-6.07-2.32-1.25-1.55-1.88-3.77-1.88-6.67v-35h6.67v35.07c0,.81,.16,1.44,.49,1.9s.81,.69,1.44,.69h3.21v6.35h-3.86Z"/><path class="c" d="M219.42,227.16c-4.73,0-8.4-1.32-10.99-3.96-2.6-2.64-3.89-6.39-3.89-11.25v-3.83c0-5.06,1.25-8.97,3.75-11.74,2.5-2.77,6.01-4.15,10.55-4.15,4.27,0,7.58,1.57,9.93,4.71,2.34,3.14,3.52,7.55,3.52,13.22v2.22h-22.9v-5.37h16.55c-.2-2.75-.91-4.9-2.14-6.44-1.23-1.55-2.88-2.32-4.96-2.32-2.51,0-4.46,.83-5.86,2.49-1.4,1.66-2.09,4-2.09,7.03v4.32c0,2.81,.75,4.97,2.24,6.48,1.49,1.5,3.59,2.26,6.3,2.26,1.35,0,2.69-.27,4.02-.82,1.33-.54,2.52-1.31,3.57-2.29l4.38,4.38c-1.68,1.61-3.57,2.86-5.66,3.75-2.09,.88-4.2,1.32-6.31,1.32Z"/><path class="c" d="M241.43,226.67v-33.96h6.67v33.96h-6.67Zm20.61,0v-20.58c0-2.4-.62-4.25-1.85-5.56-1.23-1.31-2.98-1.96-5.25-1.96s-3.87,.58-5.05,1.73c-1.19,1.16-1.78,2.78-1.78,4.87l-.69-6.54c1.05-2.05,2.42-3.63,4.11-4.74,1.69-1.11,3.56-1.67,5.61-1.67,3.69,0,6.54,1.21,8.55,3.61,2.02,2.41,3.03,5.82,3.03,10.22v20.61h-6.67Z"/><path class="c" d="M292.57,227.16c-4.67,0-8.28-1.29-10.84-3.86-2.56-2.57-3.84-6.2-3.84-10.89v-5.59c0-4.65,1.28-8.24,3.84-10.78,2.56-2.54,6.18-3.81,10.84-3.81,2.66,0,5.06,.47,7.2,1.41,2.14,.94,3.84,2.28,5.1,4.02l-4.81,4.32c-.94-1.09-2.05-1.93-3.34-2.52-1.29-.59-2.64-.88-4.06-.88-2.57,0-4.57,.72-5.99,2.16-1.42,1.44-2.13,3.47-2.13,6.08v5.59c0,2.68,.71,4.75,2.13,6.22,1.42,1.46,3.41,2.19,5.99,2.19,1.42,0,2.77-.32,4.06-.95,1.29-.63,2.4-1.53,3.34-2.68l4.81,4.65c-1.26,1.7-2.97,3.02-5.12,3.94-2.15,.93-4.54,1.39-7.18,1.39Z"/><path class="c" d="M325.25,227.16c-4.45,0-7.9-1.29-10.34-3.88-2.44-2.58-3.66-6.22-3.66-10.91v-5.53c0-4.65,1.22-8.24,3.66-10.8,2.44-2.55,5.89-3.83,10.34-3.83s7.89,1.28,10.34,3.83c2.44,2.55,3.66,6.15,3.66,10.8v5.63c0,4.67-1.22,8.28-3.66,10.84-2.44,2.56-5.89,3.84-10.34,3.84Zm0-6.35c2.33,0,4.14-.73,5.41-2.19,1.28-1.46,1.91-3.51,1.91-6.15v-5.63c0-2.64-.64-4.68-1.91-6.12-1.28-1.44-3.08-2.16-5.41-2.16s-4.11,.72-5.4,2.16-1.93,3.48-1.93,6.12v5.63c0,2.64,.64,4.69,1.93,6.15,1.29,1.46,3.09,2.19,5.4,2.19Z"/><path class="c" d="M354.6,192.71v20.64c0,2.38,.61,4.22,1.82,5.51,1.21,1.3,2.92,1.95,5.12,1.95s3.9-.58,5.09-1.75c1.19-1.17,1.78-2.81,1.78-4.92l.46,7.1c-.61,1.53-1.68,2.9-3.21,4.11-1.53,1.21-3.52,1.82-5.99,1.82-3.75,0-6.65-1.2-8.69-3.61-2.04-2.41-3.06-5.81-3.06-10.19v-20.64h6.67Zm13.81,33.96v-33.96h6.64v33.96h-6.64Z"/><path class="c" d="M385.18,226.67v-33.96h6.67v33.96h-6.67Zm18.68-25.91c-.59-.72-1.33-1.26-2.22-1.64-.89-.37-1.93-.56-3.11-.56-2.12,0-3.76,.58-4.92,1.75-1.17,1.17-1.75,2.79-1.75,4.86l-.69-6.54c1.03-2.01,2.37-3.58,4.04-4.71,1.67-1.13,3.5-1.7,5.51-1.7,1.55,0,2.95,.22,4.2,.67,1.25,.45,2.35,1.11,3.29,1.98l-4.35,5.89Z"/><path class="c" d="M411.16,198.73v-6.02h15.31v6.02h-15.31Zm11.45,28.1c-2.79,0-4.81-.77-6.07-2.32-1.25-1.55-1.88-3.77-1.88-6.67v-35h6.67v35.07c0,.81,.16,1.44,.49,1.9s.81,.69,1.44,.69h3.21v6.35h-3.86Z"/></g><g><path class="b" d="M254.91,301.88v-34.08h3.38v34.08h-3.38Zm2.46-13.22v-3.14h9.09c1.52,0,2.72-.5,3.62-1.51s1.35-2.36,1.35-4.07v-3.33c0-1.75-.45-3.13-1.34-4.15s-2.1-1.52-3.63-1.52h-9.09v-3.14h8.91c1.77,0,3.29,.36,4.56,1.07s2.26,1.72,2.95,3.04,1.04,2.88,1.04,4.69v3.38c0,1.78-.35,3.32-1.04,4.63s-1.68,2.31-2.96,3.01-2.8,1.05-4.55,1.05h-8.91Z"/><path class="b" d="M285.98,302.23c-2.25,0-4.12-.46-5.6-1.37s-2.53-2.28-3.14-4.09l2.74-1.22c.67,1.23,1.51,2.18,2.52,2.82s2.17,.97,3.48,.97c1.86,0,3.29-.38,4.28-1.12s1.49-1.84,1.49-3.26c0-1.03-.29-1.8-.86-2.31s-1.33-.88-2.27-1.1-1.96-.42-3.06-.57c-.88-.14-1.76-.32-2.66-.55s-1.72-.56-2.47-1.01-1.35-1.07-1.8-1.86-.68-1.87-.68-3.21c0-2.33,.71-4.11,2.12-5.33s3.47-1.84,6.18-1.84c1.98,0,3.64,.4,4.97,1.21s2.3,2.01,2.93,3.62l-2.77,1.24c-.58-1-1.31-1.79-2.2-2.36s-1.89-.86-3-.86c-1.66,0-2.92,.36-3.8,1.07s-1.31,1.76-1.31,3.15c0,1,.28,1.74,.84,2.23s1.31,.84,2.24,1.05,1.93,.41,2.99,.56c.91,.14,1.82,.31,2.73,.52s1.75,.54,2.51,1,1.36,1.12,1.82,1.97,.68,1.98,.68,3.39c0,2.36-.76,4.16-2.27,5.4s-3.72,1.86-6.61,1.86Z"/><path class="b" d="M299.93,271.83v-3.35h3.4v3.35h-3.4Zm0,30.05v-24.33h3.4v24.33h-3.4Z"/><path class="b" d="M318.49,302.23c-2.92,0-5.14-.76-6.67-2.27s-2.29-3.73-2.29-6.63v-7.12c0-2.91,.76-5.14,2.29-6.69s3.75-2.33,6.67-2.33c2.28,0,4.12,.52,5.51,1.56s2.26,2.53,2.6,4.46l-3.28,1.01c-.3-1.28-.85-2.25-1.65-2.91s-1.84-.98-3.11-.98c-1.83,0-3.23,.5-4.21,1.51s-1.46,2.46-1.46,4.37v7.12c0,1.88,.49,3.3,1.46,4.29s2.38,1.48,4.21,1.48c1.3,0,2.36-.32,3.2-.95s1.42-1.54,1.75-2.73l3.09,.98c-.34,1.86-1.21,3.3-2.6,4.31s-3.23,1.52-5.51,1.52Z"/><path class="b" d="M339.05,302.23c-2.7,0-4.8-.77-6.28-2.31s-2.23-3.71-2.23-6.53v-7.5c0-2.78,.74-4.93,2.23-6.46s3.58-2.29,6.28-2.29,4.8,.76,6.28,2.29,2.23,3.68,2.23,6.46v7.57c0,2.78-.74,4.94-2.23,6.47s-3.58,2.3-6.28,2.3Zm-.02-3.14c1.64,0,2.91-.49,3.81-1.48s1.35-2.36,1.35-4.12v-7.62c0-1.77-.45-3.13-1.35-4.1s-2.17-1.45-3.81-1.45-2.88,.48-3.77,1.45-1.34,2.34-1.34,4.1v7.62c0,1.77,.45,3.14,1.34,4.12s2.15,1.48,3.77,1.48Zm.19-26.11l-2.27-1.64,6.23-8.32,2.72,2.09-6.68,7.88Z"/><path class="b" d="M356.67,267.8v27.68c0,1.03,.24,1.83,.73,2.4s1.16,.86,2.02,.86h1.92v3.14h-2.34c-1.8,0-3.2-.56-4.2-1.69s-1.5-2.71-1.5-4.76v-27.63h3.38Z"/><path class="b" d="M373.71,302.23c-2.7,0-4.8-.77-6.28-2.31s-2.23-3.71-2.23-6.53v-7.5c0-2.78,.74-4.93,2.23-6.46s3.58-2.29,6.28-2.29,4.8,.76,6.28,2.29,2.23,3.68,2.23,6.46v7.57c0,2.78-.74,4.94-2.23,6.47s-3.58,2.3-6.28,2.3Zm-.02-3.14c1.64,0,2.91-.49,3.81-1.48s1.35-2.36,1.35-4.12v-7.62c0-1.77-.45-3.13-1.35-4.1s-2.17-1.45-3.81-1.45-2.88,.48-3.77,1.45-1.34,2.34-1.34,4.1v7.62c0,1.77,.45,3.14,1.34,4.12s2.15,1.48,3.77,1.48Z"/><path class="b" d="M394.62,302.25c-2.3,0-4.08-.75-5.34-2.24s-1.9-3.59-1.9-6.29v-7.8c0-2.8,.62-4.95,1.86-6.47s3-2.27,5.26-2.27c1.47,0,2.82,.35,4.04,1.04s2.21,1.8,2.94,3.32l-.49,4.01c.02-1.02-.18-1.94-.57-2.77s-.98-1.48-1.73-1.97-1.68-.73-2.75-.73c-1.64,0-2.91,.52-3.82,1.55s-1.36,2.47-1.36,4.31v7.76c0,1.77,.45,3.14,1.36,4.14s2.18,1.49,3.82,1.49c1.08,0,1.99-.24,2.74-.73s1.32-1.14,1.72-1.98,.6-1.75,.6-2.73l.33,4.17c-.55,1.45-1.41,2.52-2.6,3.19s-2.55,1.01-4.1,1.01Zm.8,9.52c-2.16,0-3.9-.5-5.24-1.5s-2.15-2.41-2.45-4.24l3.02-.96c.27,1.16,.81,2.05,1.64,2.68s1.86,.95,3.09,.95c1.73,0,3.09-.47,4.05-1.42s1.45-2.29,1.45-4.04v-25.69h3.35v25.48c0,2.78-.78,4.93-2.33,6.46s-3.75,2.29-6.6,2.29Z"/><path class="b" d="M418.48,302.23c-2.7,0-4.8-.77-6.28-2.31s-2.23-3.71-2.23-6.53v-7.5c0-2.78,.74-4.93,2.23-6.46s3.58-2.29,6.28-2.29,4.8,.76,6.28,2.29,2.23,3.68,2.23,6.46v7.57c0,2.78-.74,4.94-2.23,6.47s-3.58,2.3-6.28,2.3Zm-.02-3.14c1.64,0,2.91-.49,3.81-1.48s1.35-2.36,1.35-4.12v-7.62c0-1.77-.45-3.13-1.35-4.1s-2.17-1.45-3.81-1.45-2.88,.48-3.77,1.45-1.34,2.34-1.34,4.1v7.62c0,1.77,.45,3.14,1.34,4.12s2.15,1.48,3.77,1.48Z"/></g></svg>