<?xml version="1.0" encoding="utf-8"?>
<!-- Generator: Adobe Illustrator 26.1.0, SVG Export Plug-In . SVG Version: 6.00 Build 0)  -->
<svg version="1.1" id="Layer_1" xmlns="http://www.w3.org/2000/svg" xmlns:xlink="http://www.w3.org/1999/xlink" x="0px" y="0px"
	 viewBox="0 0 512 512" style="enable-background:new 0 0 512 512;" xml:space="preserve">
<style type="text/css">
	.st0{fill-rule:evenodd;clip-rule:evenodd;fill:#FFFFFF;}
</style>
<g>
	<path class="st0" d="M88.6,245.1c0.1-0.5,0.1-0.7,0.2-1.1c2-0.7,4.1-0.9,6.3-1.1c2-0.2,3.9-0.5,5.9-0.6c2.2-0.2,4.5-0.4,6.7-0.4
		c2.4-0.1,4.5-1.1,6.6-2.1c0.4-0.2,0.8-0.8,0.9-1.3c0.3-1.3,0.5-2.6,0.5-3.9c0-8.4,0-16.9,0.1-25.3c0-3.1,0.4-6.2,0.6-9.3
		c0.1-1.4,0.4-2.8,0.3-4.2c-0.2-4.9,0.7-9.7,1.4-14.5c0.8-6.2,2.1-12.4,3.1-18.6c0.4-2.2,1-4.4,2.3-6.3c0.4-0.6,0.8-1.3,1.1-2
		c1.3-3.1,3.5-5.6,5.7-8c2-2.2,4.5-4,7.3-5.2c1-0.4,2-1,2.9-1.6c1.2-0.7,2.3-1.7,3.6-2.2c3.2-1.4,6-3.4,8.8-5.5
		c0.6-0.5,1.2-1,1.8-1.3c3.5-2,7-4,10.5-5.9c2.5-1.4,5.1-2.7,7.6-4.2c1.1-0.6,2.1-1.1,3.4-1.1c1.1,0.1,2-0.3,3-0.6
		c4.3-1.5,8.7-2.9,13.3-3.3c3.6-0.3,7.2-1.1,10.8-1.7c2.9-0.5,5.7-0.8,8.6-1c3.5-0.2,7.1-0.7,10.6-1c0.4,0,0.8-0.1,1.1-0.2
		c3.1-1.7,6.5-1.8,9.8-2.1c3.5-0.3,6.9-0.2,10.4-0.3c2.4-0.1,4.8,0,7.3-0.4c1.8-0.3,3.7,0.2,5.6,0.4c1.5,0.1,3,0.3,4.5,0.3
		c4.4-0.1,8.8,0.3,13.2,1c1.6,0.3,3.2,0.5,4.7,0.6c4.2,0.2,8.4,1,12.5,2.1c0.9,0.2,1.9,0.2,2.8,0.2c1.9,0,3.7,0.2,5.5,0.9
		c1.3,0.5,2.7,0.8,4.1,1c3,0.3,5.9,1,8.8,1.9c10,3.2,19.9,6.5,29.9,9.7c3.7,1.2,7.5,2.4,11.3,3.4c1.7,0.4,3.5,0.5,5,1.6
		c1,0.7,2.1,1.3,2.9,2.2c3.3,3.6,7.2,6.2,11.5,8.4c0.8,0.4,1.5,0.8,2.2,1.2c3.6,1.6,6.3,4.3,8.7,7.3c1.7,2.1,3.3,4.4,4.8,6.5
		c0.5,0.7,1,1.4,1.3,2.1c0.6,1.4,1.4,2.6,2.4,3.7c1.5,1.7,2.3,3.6,2.9,5.7c0.7,2.8,1.6,5.6,2.5,8.3c0.6,1.9,1.5,3.6,2.3,5.4
		c0.9,2,1.8,3.9,1.8,6.2c0,0.4,0.1,0.7,0.2,1.1c0.4,1.3,0.7,2.5,1.1,3.8c0.1,0.5,0.4,1.1,0.4,1.6c-0.2,3.3,1.3,6.4,1.1,9.7
		c-0.1,1.8,0.3,3.5,0.5,5.3c0.2,2.4,0.6,4.8,0.7,7.3c0.2,4.2,0.1,8.4,0.2,12.7c0.1,3.5,0.3,6.9,1.1,10.2c4.5,1.7,8.8,3.4,13.1,5.2
		c2.9,1.2,5.8,2.7,8.6,4.2c1.9,1,3.6,2.4,5.4,3.6c1.9,1.4,3.8,2.8,5.7,4.2c3,2.3,6,4.5,9,6.8c0.6,0.5,1.2,0.9,1.7,1.5
		c2.1,2.4,4.4,4.5,6.9,6.5c4.6,3.6,8,8.3,11.6,13c1.3,1.7,2.7,3.3,4.1,5c2.7,3.4,5.3,6.8,6,11.3c0.1,0.4,0.2,0.7,0.4,1.1
		c0.9,1.6,1.2,3.3,1.7,5c0.6,2,0.7,4,0.7,6.1c0,3.7-0.1,7.3,0,11c0.1,3.4-0.5,6.7-2.1,9.8c-1.9,3.7-2.9,7.7-4.3,11.6
		c-1,2.7-2.2,5.2-4.1,7.3c-2,2.2-3.9,4.5-5.5,7.1c-0.4,0.6-0.8,1-1.6,0.8c-0.7-0.2-1.3,0.5-1.5,1c-0.6,1.3-1.7,1.9-2.7,2.8
		c-1.4,1.2-2.8,2.5-4.2,3.7c0.2,0.4,0.3,0.6,0.5,1c-0.6,0.5-1.1,1.2-1.8,1.5c-3.6,1.6-6.8,4-10.2,5.8c-1.2,0.6-2.3,1.2-3.5,1.8
		c-3.3,1.5-6.4,3.1-9.3,5.1c-1.8,1.3-3.7,2.2-6,1.9c-0.7-0.1-1.4,0.3-2.1,0.6c-7.8,2.9-15.4,6.4-23.5,8.3c-4.5,1.1-9.1,2.3-13.6,3.4
		c-2,0.5-4.1,0.9-6.1,0.9c-6.2,0.2-12.3,0.7-18.4,1.9c-0.6,0.1-1.3,0.2-2,0.2c-2.6-0.1-5.2,0.3-7.8,0.7c-4.9,0.8-9.9,1-14.9,1
		c-11.4,0-22.9,0.1-34.3,0c-4,0-8-0.5-12.1-0.8c-6.2-0.5-12.3-0.9-18.5-1.5c-7.3-0.6-14.6-1.2-21.8-2.5c-6.1-1.1-12.2-2.2-18.3-3.2
		c-2-0.3-4.1-0.5-6.1-0.8c-3-0.5-5.9-1-8.9-1.5c-1.8-0.3-3.7-0.5-5.5-0.8c-2.8-0.4-5.6-0.8-8.3-1.4c-10.6-2.2-21.2-4.8-31.6-7.9
		c-10.9-3.3-21.8-6.8-32.5-10.8c-4.8-1.8-9.2-4.3-13.4-7c-0.8-0.5-1.4-1.2-2.2-1.8c-0.8-0.7-1.6-1.6-2.9-0.7c-0.2,0.2-0.7,0-1.1-0.2
		c-2.6-1.2-5.4-2.3-7.9-3.6c-5.4-3-10.8-6.1-16.1-9.2c-1.3-0.8-2.6-1.6-3.8-2.4c-3.7-2.6-7.4-5.2-11.1-7.7
		c-6.1-4.2-11.6-9.2-16.9-14.4c-5.9-5.9-11.9-11.7-17.8-17.6c-1.4-1.5-2.8-3-4-4.7c-2.8-3.7-5.4-7.4-8.2-11.1
		c-2.1-2.8-3.5-6-4.9-9.2c-0.4-1-0.5-1.9-0.1-3c0.3-0.7,0.3-1.5,0.2-2.2c-0.2-2.6,0.1-5.2,0.6-7.8c0.3-1.8,1.2-3.3,2.6-4.5
		c4.6-3.7,9.5-6.9,15.1-9.1c8.2-3.3,16.7-5.4,25.4-7.1C78.2,247.4,83.4,246.2,88.6,245.1z M82.6,279.1c0.1-0.2,0.2-0.3,0.2-0.5
		c0-0.1-0.2-0.2-0.3-0.3c0,0.1-0.1,0.2-0.1,0.2C82.5,278.7,82.6,278.9,82.6,279.1c0.1,0,0.1,0.1,0.1,0.2
		C82.6,279.2,82.6,279.2,82.6,279.1z M243.2,149.5c-0.2-0.1-0.3-0.3-0.5-0.4c-0.1,0.1-0.1,0.1-0.2,0.2c0.2,0.1,0.3,0.2,0.5,0.2
		C243,149.5,243.1,149.4,243.2,149.5c0.2,0.1,0.3,0.3,0.5,0.5c0.1,0,0.3-0.1,0.4-0.2c-0.1-0.1-0.2-0.3-0.4-0.3
		C243.5,149.4,243.3,149.4,243.2,149.5z M297.3,165.2c-0.2-0.1-0.4-0.3-0.6-0.4c0,0-0.1,0.1-0.2,0.1c0.2,0.1,0.4,0.2,0.6,0.2
		C297.2,165.2,297.3,165.1,297.3,165.2c0.1,0,0.1,0.1,0.2,0.2c0,0.1,0.1,0.1,0.2,0.1C297.5,165.4,297.4,165.3,297.3,165.2z
		 M55.2,273.7c0.1-0.1,0.3-0.2,0.4-0.3c0,0,0-0.1-0.1-0.2C55.5,273.4,55.4,273.6,55.2,273.7c-0.5,0.3-0.6,0.8-0.4,1.3
		c-1,0.1-0.6,0.9-0.7,1.5c-0.1,0.1-0.1,0.2-0.2,0.3c0.1-0.1,0.1-0.2,0.2-0.3c0.6-0.3,0.6-0.9,0.6-1.5
		C55.3,274.7,55.2,274.2,55.2,273.7z M337.8,165.7c-0.5-0.6-1-0.5-1.6-0.1c0.1-0.8,0.1-0.8-0.8-1.1c0.3,0.3,0.5,0.7,0.8,1
		C336.8,165.5,337.3,165.6,337.8,165.7c0.3,0.7,0.5,0.7,1.4,0.2c-0.1,0.3-0.2,0.5-0.3,0.8c0.4,0.2,0.8,0.4,1.5,0.8
		c-0.6-0.8-0.9-1.2-1.3-1.6C338.7,165.8,338.3,165.8,337.8,165.7z M143.3,358.9c0.2,0,0.4,0,0.6,0.1
		C143.6,359,143.4,358.9,143.3,358.9c-0.1-0.1-0.2-0.1-0.2-0.2c0,0,0-0.1,0-0.2C143.1,358.7,143.2,358.8,143.3,358.9z M380.5,289
		c-0.3,0-0.6,0.1-0.9,0.1c0,0.1,0,0.2,0,0.3c0.3,0,0.6,0.1,0.9,0.1c-1.3,1.1-3,1.5-4.6,2c-8.7,2.6-17.5,4.7-26.5,6.5
		c-5.8,1.1-11.6,2.1-17.3,3.7c-0.6,0.2-1.3,0.3-1.9,0.3c-2.2,0.1-4.5,0.2-6.7,0.4c-1.9,0.1-3.8,0.1-5.6,0.4c-4.1,0.7-8.2,1-12.3,1.1
		c-0.7,0-1.3,0-2,0.1c-6.3,0.6-12.5,1.2-18.8,1.7c-3.2,0.3-6.3,0.6-9.5,0.7c-7.1,0.2-14.2,0.5-21.4,0.9c-4.8,0.3-9.6,0-14.3-0.1
		c-0.8,0-1.8,0-2.4-0.5c-0.9-0.6-1.7-0.5-2.7-0.5c-1.2,0.1-2.4,0.2-3.7,0.2c-6.4,0-12.7,0-19.1,0c-0.8,0-1.7,0-2.5-0.2
		c-0.5-0.1-1-0.4-1.5-0.7c0.3-0.5,0.5-0.9,0.8-1.4c-1.2-0.2-2.3-0.3-3.4-0.5c-3.1-0.5-6.3-1-9.4-1.6c-5.3-1.1-10.6-2.3-15.9-3.6
		c-1.1-0.3-2.2-0.4-3.3-0.1c-0.7,1.2-1.6,0.1-2.4,0.3c-0.5,0.8-0.7,1.5-0.6,2.4c0.6,3.2,1,6.5,1.1,9.7c0.1,1.8,0.1,3.5,0.5,5.3
		c0.8,0.3,1.6,0.6,2.4,1c0.1,0,0.1,0.3,0.1,0.5c-0.8,0.1-1.6,0.2-2.3,0.3c-0.2,1.1,0.5,1.5,0.9,2.1c0.4,0.7-0.7,1.4,0,2.1
		c0.1,0.1,0.1,0.1,0.3,0.2c1.4-1.9,2.9-3.8,4.3-5.8c1.4-1.9,2.6-4,4.3-6c0.2,0.5,0.4,0.7,0.4,0.9c-0.2,0.6-0.4,1.2-0.8,1.8
		c-1.4,2.2-2.9,4.4-4.4,6.5c-0.9,1.3-1.8,2.6-2.4,4.2c1.8,1.7,3.6,3.3,5.7,4.5c0.3-0.2,0.5-0.4,0.7-0.6c0.3-0.2,0.6-0.4,0.8-0.5
		c0.9,0.8-0.4,1.5,0.1,2.1c0.6,0.6,1.5,1,1.8,1.7c0.5,1,1.2,1.4,2.1,1.7c0.9,0.4,1.7,0.7,2.6,1.1c1.5,0.6,2.6,1.6,3.5,3l0.1-0.1
		c-0.5-0.1-0.9-0.1-1.4-0.2s-1.1-0.4-1.6-0.3c-0.7,0.2-1.3,0.7-1.5,1.7c1.2,1.2,2.7,1.9,4,2.9c1.1-0.4,2.2-1.4,3.1,0.4
		c-0.4,0.2-0.9,0.6-1.2,0.5c-2.3-0.7-4.9-0.6-6.8-2.3c-0.1-0.1-0.4,0-0.6,0c-0.3,0.3-0.7,0.7-0.2,1.1c1.2,1.1,2.4,2.3,4.2,2.8
		c0.4,0.1,1.2,0.1,1.2,1c-0.9,0.4-1.9,0-2.7-0.3c-2.8-1.3-5.7-2.3-8-4.5c-0.7-0.7-1.6-1.4-2.4-2c-0.3-0.3-0.8-0.4-1.1-0.6
		c-0.7,0.9-1.2,1.6-0.8,2.7s1.1,1.7,2.2,1.9c0.9,0.2,1.8,0.5,2.7,0.8c6.4,2.3,12.9,4.6,19.3,6.8c2.2,0.8,4.4,1.5,6.7,2
		c5.7,1.2,11.4,2.3,17.1,3.4c0.5,0.1,1.1,0.1,1.6,0c0.9-0.3,1.5-0.1,2.3,0.4c0.9,0.5,1.9,0.8,2.9,1c1.6,0.3,3.1,0.6,4.7,0.6
		c1,0.1,2.2,0,3-0.4c1.3-0.8,2.5-0.8,3.8-0.4c1.8,0.5,3.5,0.1,5.3-0.2c1.1-0.2,1.6-0.9,1.8-1.8c0.8-0.3,1.7,0.5,2.4-0.2
		c-0.6-1.4-1.6-2.5-2.8-3.3c0.8-0.9,1.5-1.3,2.5-0.7c1.6,0.9,3.2,1.5,4.8,2.4c3,1.6,6.1,2.9,9.6,2.5c0.5-0.1,1.1,0.1,1.7,0.1
		c0.4,0,1,0.2,1-0.6c-2.5-1.3-5.1-2.4-7.5-3.8c-4.2-2.3-8.3-4.7-12.5-7c-0.1,0-0.1-0.2-0.1-0.2c0-0.1,0-0.1,0.1-0.3
		c1.1-0.3,2,0.3,2.9,0.7c2,0.9,3.9,1.9,5.8,2.9c5.4,2.9,10.8,5.6,16.5,7.7c1.2,0.5,2.4,1.1,3.8,1c0.4,0,0.8,0.4,1.2,0.6
		c0.6,0.3,1.1,0.6,1.7,0.9c0.3,0.2,0.9,0.1,1,0.3c0.8,1.2,2,1.2,3.3,1.2c0.5,0,1,0,1.4,0.2c1.1,0.6,2.4,0.5,3.6,0.6
		c1.4,0,2.8,0,4.2,0c1.5-0.1,3.1,0.5,4.2-1.1c1.2-0.2,2.4-0.4,3.6-0.5c2.2-0.2,4.5-0.4,6.7-0.6c0.1,0,0.2-0.2,0.3-0.4
		c-0.1-0.4-1-0.4-0.6-1c4.4-1.7,6.8-2.1,8.6-1.5c-1.1,1-2.6,0.7-3.7,1.3c1.6,0.9,1.6,1,3,0.8c2.1-0.2,4.3-0.4,6.4-0.7
		c0.4,0,0.8-0.3,1.5-0.7c-2.2-0.8-4-1.5-5.9-2.2c1.2-1,2.4-1,3.6-0.7c1.6,0.5,3.2,0.9,4.9,1.4c1,0.3,2,0.5,2.9,0.7
		c-0.2-0.6-0.5-0.9-0.8-1.1c-1.3-0.6-2.6-1.1-3.8-1.8c-0.2-0.1-0.4-0.4-1.1-1.1c1.1,0.3,1.5,0.4,1.9,0.6c1.7,0.7,3.4,1.5,5.2,2.2
		c1.2,0.5,2.3,0.7,3.4-0.3c0.2-0.2,0.5-0.3,0.9-0.6c-1.3-0.5-2.5-0.8-3.6-1.3s-2.5-0.6-3.7-1.6c0.7-0.3,1.1-0.6,1.5-0.6
		c1.2,0,2.5,0.6,3.7-0.4c0.1-0.1,0.3,0.1,0.5,0.1c0.9,0.1,1.9,0.3,2.8,0.2c2,0,4.1-0.2,6.1-0.3c1,0,2.1,0.1,3.1,0.1
		c0.4,0,0.9,0,1-0.2c0.7-1.3,2-1,3-1.2c2.3-0.4,4-1.6,5.3-3.4c0.5-0.7,1-1.3,1.5-2c0.2-0.3,0.7-0.6,0.2-1.3
		c-3.1,1.2-6.3,2.3-9.3,3.7c-2.8,1.3-5.7,1.9-8.6,2.4c-0.3,0.1-0.7,0.2-0.9-0.5c0.2-0.2,0.5-0.4,0.8-0.6c0.9-0.4,1.9-0.8,2.9-1.2
		c2.6-0.9,5.1-1.8,7.7-2.7c1.3-0.5,1.3-0.5,1.2-2.3c1.8-0.5,4,0.5,5.9-1.3c-1.4,0-2.4,0-3.5,0c2.3-2.3,4-2.8,6.7-1.9
		c-0.6,0.7-0.6,1.8-1.5,2.3c0.1,0.1,0.1,0.2,0.2,0.3c-0.1,0-0.1,0-0.2,0.1c0-0.1,0-0.3,0.1-0.4c0.3-0.1,0.8,0,1-0.2
		c0.7-0.7,1.2-1.4,1.8-2.2c0.2-0.2,0.4-0.3,0.6-0.5c0.8,0,1.5,0,2.5,0c-1.6,2.7-3.5,4.8-5.1,7.3s-3.7,4.6-5.1,7.3
		c1,0.2,1.4-0.4,1.8-0.9c1.9-2.5,3.7-4.9,5.5-7.4c0.9-1.3,1.7-2.7,3.1-3.6c0.6-0.4,0.7-0.9,0.8-1.6c0.1-0.5,0.8-1,1.3-1.3
		c0.2-0.2,0.6,0,1,0c-0.1,1.4-1.3,2.2-1.2,3.8c0.8-0.9,1.5-1.5,2-2.2c1.4-1.7,3-3.1,5.1-3.7c1.1-0.3,2.1-1.3,3.4-1.1
		c0.3,0,0.6-0.4,0.9-0.6c1.5-1,1.7-1.1,3.7-1.4c-0.7,0.9-1.3,1.8-1.9,2.6c-1.9,2.3-3.8,4.6-5.7,6.9c-0.2,0.3-0.8,0.6-0.3,1.2
		c1-0.7,1.9-1.5,3-2.1c2.1-1.1,3.4-2.8,4.6-4.8c1-1.7,2-3.4,3.1-5c0.8-1.2,1.4-1.4,2.9-1.4c-0.6,1.6-1.8,3-2.3,4.7
		c0.6-0.3,1.1-0.7,1.4-1.2c0.9-1.4,1.8-2.8,2.7-4.3c0.6-1,1.3-1.9,2.4-2.3c1.5-0.6,2.7-1.7,4-2.5c0.6-0.4,1.2-0.7,2-1.1
		c0,0.5,0,0.9,0,1.2c0.7,0,1.1-0.9,1.9-0.1c-0.4,1.3-1.5,2.1-2.5,2.9c-2.7,1.9-4.4,4.5-6,7.3c-0.4,0.7-0.9,1.4-1.4,2.1
		c-0.1,0.2-0.1,0.5-0.3,1.1c0.8-0.6,1.5-0.8,2-1.3c1.7-1.9,4-3.1,6.1-4.4c1.2-0.7,2.8-1,2.4-2.9c0-0.1,0.1-0.1,0.2-0.2
		c1.5-1.8,2-4.2,3.1-6.1c-0.5-0.9-0.9-1.6-1.2-2.4c0.3-0.6,0.9-1.2,0.7-1.7c-0.3-1.1,0.3-1.8,0.8-2.6c0.6-0.9,1.2-1.7,1.7-2.6
		c0.1-0.1,0-0.4,0-0.6c-0.7-0.4-1.4-0.8-2-1.2c-1,0.6-2.1,1.1-3.6,1.1c1-1.2,1.7-2.2,2.6-3c1.7-1.6,2.7-3.4,2.8-5.9
		c0.1-3.2,0.7-6.3,1-9.3c-0.3-0.4-0.3-0.6-0.5-0.7c-1.5-1.2-1.9-2.6-1.3-4.5c0.4-1.2,0.4-2.6,0.5-3.9c0-0.4,0-1.1-0.3-1.3
		c-1-0.9-0.8-2-0.8-3.1c-0.1-1.4,0.1-2.7-0.2-4.8c-1.2,2-2,3.6-2.7,5.1c1,1.7,1.1,2,0.1,3.3c-1.7,2.1-3.4,4.2-5.2,6.3
		c-0.3,0.4-0.7,0.7-1.1,0.9c-1.5,0.5-3,0.9-4.9,1.4c0.9-1.4,1.9-1.9,2.9-2.6c1.8-1.2,3.5-2.6,5.1-3.9c0.6-0.5,1-1.1,1.4-1.8
		c0.6-1,0-1.8-1.2-1.9c-0.3,0-0.7,0.4-1-0.1c0.1-0.4,0.1-0.8,0.2-1.4c-3.4,1.8-6.5,3.5-9.5,5.1c0.1,1.8-0.1,2.2-1.1,2.7
		c-0.4,0.2-0.9,0.3-1.3,0.5c-1.7,0.6-3.3,1.3-5,1.9c-0.4,0.2-0.9,0.2-1.4,0.3c0-0.2-0.1-0.5-0.1-0.7c0.5,0.1,1.1,0.3,1.2-0.5
		c0.5,0.2,1,0.1,1.3-0.4c0.2-0.1,0.3-0.1,0.4-0.2c0.1,0,0.1-0.1,0.1-0.2c-0.2,0-0.4-0.1-0.4,0c-0.1,0.1,0,0.3-0.1,0.5
		c-0.5-0.2-1-0.1-1.3,0.4c-0.4,0.2-0.8,0.4-1.2,0.5C381.1,288.5,380.6,288.4,380.5,289z M59.7,268.6c0.2-0.1,0.4-0.2,0.5-0.4
		c0,0-0.1-0.1-0.1-0.2C59.9,268.2,59.8,268.5,59.7,268.6c0,0.2-0.2,0.3-0.3,0.4c0.1,0,0.2,0.1,0.3,0.1
		C59.7,269,59.7,268.8,59.7,268.6z M270.4,197.5c-0.1,0.1-0.2,0.2-0.2,0.3c0-0.1-0.1-0.3-0.1-0.4
		C270.2,197.5,270.4,197.5,270.4,197.5c0.1,0.1,0.2,0.2,0.3,0.3c-0.1,0-0.3,0-0.4,0C270.3,197.7,270.4,197.6,270.4,197.5z
		 M158.5,356.2c0.1-0.1,0.1-0.1,0.2-0.2c0,0,0.1,0,0.2,0.1C158.7,356.1,158.6,356.1,158.5,356.2c-0.6-0.8-0.6-0.8-1.8-0.4
		c0-0.3,0-0.5,0.1-0.9c-1.6-0.7-3.3-1.4-4.8-2.2c-6.2-3.3-12.8-5.6-19.2-8.4c-0.8-0.4-1.8-0.5-2.6-0.7c0-0.5-0.5-0.6-0.6-0.3
		c-0.1,0.4,0.3,0.4,0.6,0.3c0.1,0.2,0.2,0.5,0.4,0.7c1.8,1.1,3.7,2.2,5.6,3.2c0.3,0.2,0.7,0.4,1,0.4c1.4-0.1,2.5,0.7,3.7,1.2
		c4.9,2.2,9.8,4.6,15,6.2c0.3,0.1,0.6,0.4,0.9,0.6C157.3,355.9,157.9,356,158.5,356.2z M188.7,380.4c0.4,0,0.9,0,1.3,0
		c0-0.1,0-0.1,0-0.2C189.6,380.3,189.1,380.3,188.7,380.4c-0.1-0.5-0.1-0.9-0.8-0.6C188.2,380,188.4,380.2,188.7,380.4z
		 M161.5,288.5c-0.4-0.8-1.1-0.4-1.7-0.6c-0.4-0.8-1.1-0.4-1.7-0.6c-0.3-0.8-1.1-0.4-1.7-0.6c-1.6-1.1-3.4-1.5-5.2-1.7
		c-3.7-0.4-7.2-1-10.7-2.3c-2.8-1.1-5.5-1-8.3-0.3c-0.1,0-0.2,0.3-0.4,0.5c0.4,0.4,0.8,0.9,1.3,1.5c-0.4,3.6-0.8,7.2-1.2,10.8
		c-0.2,2.2,0,4.3,1.2,6.2c2.4,3.8,4.9,7.6,7.9,10.9c2.5,2.9,5.1,5.7,7.7,8.6c0.4,0.4,0.8,0.8,1.2,1.1c0.3,0.2,0.8,0.4,1.3-0.2
		c-1.6-1.9-2.7-4.2-4.8-5.7c-0.2-0.2-0.5-0.4-0.5-0.6c-0.2-1.8-1.5-3-2.5-4.3c-3.9-5.1-7.1-10.6-9.9-16.3c-0.2-0.5-0.7-0.9-0.3-1.7
		c0.3,0.2,0.8,0.4,1,0.7c0.4,0.6,0.8,1.3,1.1,1.9c3.3,6.5,7.8,12.1,12.1,17.9c1.1,1.5,2.6,1.9,4.5,2.1c-0.7-0.9-1.1-1.6-1.6-2.3
		c-2-2.6-4-5.2-6-7.8c-2.1-2.7-4-5.7-5.6-8.7c-0.2-0.3-0.1-0.8-0.2-1.7c1.3,1.4,1.9,2.6,2.6,3.6c0.7,1.1,1.4,2.2,2.1,3.2
		c1.1,0,2,0,3.2,0c-0.7-1-1.2-1.8-1.7-2.5c-1.4-1.9-2.8-3.8-4.2-5.7c-0.2-0.3-0.3-0.6,0.3-1c0.4,0.4,0.9,0.8,1.3,1.3
		c2,2.6,4,5.2,6,7.8c0.7,1,1.6,1.8,2.8,2.3c3.1,1.4,6.1,2.9,9.1,4.4c0.4,0.2,0.8,0.5,1.4,0c-1.1-1.6-2.3-3.2-3.3-4.8
		c-0.9-1.6-1.8-3.3-1.9-5.4c0.3,0,0.4,0,0.5,0c0.3,0.3,0.6,0.5,0.7,0.8c1.5,3.3,3.9,6,5.9,8.9c0.6,0.9,1,2,2.4,2.2
		c0.2,0,0.4,0.4,0.5,0.6c0.2,0.8,0.6,1.3,1.4,1.7c0.6,0.3,1.3,0.6,2.2,1c-0.3-1-0.7-1.7-0.7-2.4c0-0.8,0.1-1.7,0.3-2.5
		c0.1-0.7,0.3-1.4,0.4-2.1c-1.5-2.6-3.6-3.8-6.6-4.1c0.6,1.7,1.7,2.7,2.5,3.9c0.4,0.6,0.7,1.3,1.7,1.2c0.4,0,0.6,0.8,0.3,1.4
		c-0.2,0.5-0.7,0.7-1.1,0.5c-0.3-0.1-0.7-0.3-0.9-0.6c-1.5-2-3.2-4-3.9-6.5c-0.1-0.4-0.1-0.8-0.1-1.3c1.2-0.3,2.3-0.1,3.2,0.1
		c1,0.2,2,0.5,2.9,0.9c0.9,0.3,1.5,1.3,2.5,1.5c0.2-0.6,0.3-1,0.4-1.5c0.1-0.3,0.1-0.5,0.2-0.8c0.2-0.8-0.1-1.5-0.6-2.1
		c-0.4-0.5-0.8-0.6-1.4-0.6c-0.5,0-1-0.4-1.6-0.6c-1.6-0.6-3.1-1.3-4.7-1.7c-3.3-0.9-6.3-2.3-9.5-3.6c-0.3-0.1-0.5-0.4-1.2-0.9
		c2-0.2,3.3,0.6,4.6,1.1s2.6,1.1,3.9,1.5c1.4,0.4,2.7,1.1,4.2,1.2c-0.1-1.1-0.7-1.5-1.4-1.8c-0.7-0.4-1.5-0.8-2.2-1.2
		c-0.4-0.3-0.3-0.6,0.1-0.9c1.9,0.7,3.8,1.5,5,3.3c0.5,0.7,1.4,1.2,2.3,1.8c0.3-0.8,0.6-1.3,0.8-1.8c-0.7-1.3-2.4-1-3-2.2
		c1.2-0.7,2.2,0.8,3.6,0.2c-0.3-0.4-0.5-0.7-0.8-0.9c-0.7-0.5-1.4-0.9-2.1-1.3c1,0.3,1.9,0.6,2.9,0.8c0.9,0.3,1.7,0.6,2.6,0.8
		c0.2,0,0.5-0.3,0.9-0.5c-0.4-0.3-0.5-0.6-0.8-0.6c-2.4-0.8-4.7-1.6-7.1-2.4c-0.8-0.2-1.6-0.2-2.4-0.3
		C162.9,288.2,162.2,288.5,161.5,288.5z M391.4,374.8c-0.1,0.1-0.2,0.2-0.3,0.4c-0.1,0.1-0.1,0.2-0.2,0.3c0.1,0,0.2-0.1,0.2-0.1
		C391.2,375.2,391.3,375,391.4,374.8c0.1,0.1,0.2,0.2,0.4,0.2C391.6,374.9,391.5,374.9,391.4,374.8z M177.3,290.7
		c-0.4-0.4-0.4-0.4-0.9-0.2c0.2,0.1,0.3,0.1,0.5,0.2C177,290.7,177.2,290.6,177.3,290.7c0.5,0.2,0.9,0.5,1.3,0.9
		c0.2,0,0.4-0.1,0.6-0.1c-0.2,0-0.4,0.1-0.6,0.1C178.6,290.6,178.6,290.6,177.3,290.7z M229.1,190.5c-0.5-0.7-0.5-0.7-1.2-0.6
		C228.1,190.5,228.5,190.6,229.1,190.5c0.2,0.3,0.4,0.5,0.7,0.7c0.2,0.1,0.4,0.1,0.6,0.1c0-0.1,0.1-0.2,0.1-0.3
		C230,190.9,229.6,190.7,229.1,190.5z M159.8,231.5c-0.2,0.1-0.4,0.3-0.5,0.5s-0.1,0.4-0.1,0.7c0.2-0.1,0.5-0.1,0.6-0.3
		s0.1-0.5,0.2-0.7c0.7-0.3,1-0.8,0.9-1.8C160.1,230.4,159.8,230.8,159.8,231.5z M288.7,234.4c-0.5-0.7-0.5-0.7-1.9-0.7
		C287.9,234.1,288.3,234.2,288.7,234.4c0.2,0.2,0.4,0.5,0.6,0.7c0.1,0.1,0.4,0.1,0.6,0.1c0-0.1,0.1-0.2,0.1-0.3
		C289.6,234.8,289.2,234.6,288.7,234.4z M376.1,184c1.2,0.1,1.2,0.1,1.3-1.6C376.8,183.1,376.5,183.6,376.1,184c0.1,0.2,0,0.4,0,0.5
		s0.1,0.2,0.2,0.3c0-0.1,0.1-0.3,0.1-0.4C376.4,184.2,376.2,184.1,376.1,184z M151.9,333.6c0.1,0,0.2,0.1,0.2,0.1c0.1,0,0.3,0,0.4,0
		c0-0.1,0-0.2-0.1-0.2c-0.1-0.1-0.2-0.1-0.2-0.1c-0.2,0.1-0.3,0.2-0.4,0.3c0-1-0.2-1.2-1.4-1.5c-0.3-0.3-0.6-0.7-0.9-1
		c-1.4-1.1-2.8-2.1-4.3-3.2c-0.7-0.5-1.4-1-2.1-1.4c-0.9-0.5-1.7-1-2.3-1.9c-0.6-1-1.6-1.4-2.9-1.3c-0.4,0.1-0.9-0.2-1.3-0.1
		c-0.4,0.1-0.7,0.4-1.2,0.7c1.1,0.6,2,1.1,2.9,1.6c3.6,2.1,7.3,4.2,10.9,6.2c0.3,0.2,0.7,0.2,1,0.3
		C150.8,332.8,151.3,333.2,151.9,333.6z M47.8,295.4c-0.1,0.1-0.2,0.3-0.3,0.4c0,0.1,0.1,0.2,0.2,0.3c0-0.1,0-0.2,0-0.3
		S47.7,295.5,47.8,295.4c-0.3-0.3-0.6-0.6-0.9-0.9c-0.2-0.2-0.4-0.3-0.6-0.4c0-0.2,0.1-0.4,0-0.5c-0.8-1.5-1.8-2.9-2.4-4.6
		c-0.2-0.4-0.4-1.1-1.1-0.9c-0.1-0.2-0.1-0.3-0.2-0.5c0.1,0.1,0.2,0.3,0.3,0.4c0.5,2.2,1.7,4.1,3,5.9c0.1,0.1,0.3,0.1,0.5,0.1
		C46.5,295.3,46.6,295.4,47.8,295.4z M287.7,173.5c-0.2-0.2-0.3-0.4-0.5-0.5c-0.1-0.1-0.3,0-0.5,0.1c0.1,0.2,0.2,0.4,0.3,0.5
		c0.1,0.1,0.3,0,0.5,0c0.3,0.2,0.6,0.5,1,0.8C288.6,173.7,288.2,173.6,287.7,173.5z M261.1,393.9c-0.6,0-1.1-0.1-1.7-0.1
		c0,0.1,0,0.2,0,0.2C260,394,260.5,394,261.1,393.9c0.3,1.1,1,0.8,2,0.6C262.2,394.3,261.7,394.1,261.1,393.9z M445.7,363.8
		c1,0,1.5-0.7,2-1.4C446.8,362.5,446,362.9,445.7,363.8c-0.6,0-1.1,0.2-1,1C445.2,364.6,445.7,364.5,445.7,363.8z M376.3,394.5
		c-0.8,0.2-1.5,0.3-2.3,0.5C374.9,395.1,375.8,395.7,376.3,394.5c1.1,0.6,2.2,0.1,3.3-0.1c0.4-0.1,0.7-0.3,1.1-0.3
		c3.4-0.6,6.8-1.1,10.2-1.7c0.3-0.1,0.8,0,0.9-0.7c-0.7-0.7-1.5-0.8-2.5-0.5c-3.1,0.9-6.1,1.7-9.2,2.6c-0.2,0.1-0.4,0.4-0.6,0.6
		C378.5,393.9,377.4,394.2,376.3,394.5z M128.8,338.3c-0.5-0.1-1.1-0.2-1.6-0.3c-0.5-1.1-1.6-1.5-2.7-1.8c-0.2-0.2-0.3-0.4-0.5-0.5
		c-0.1,0-0.2,0-0.3,0.1c0.1,0.1,0.1,0.2,0.2,0.2c0.2,0.1,0.5,0.1,0.8,0.2c0.5,1.2,1.4,1.7,2.7,1.8
		C127.6,338.6,128.3,338.1,128.8,338.3c0.3,0.3,0.5,0.7,0.9,1c0.2,0.1,0.5,0.1,0.7,0.1l0.1-0.2c-0.1-0.2-0.3-0.4-0.5-0.5
		C129.6,338.4,129.2,338.4,128.8,338.3z M319.1,200.1c0.9,0.1,1.7,0,2.4-1.1C320.3,198.9,319.5,199.1,319.1,200.1
		c-0.1,0.1-0.3,0-0.5,0c-0.1,0-0.1,0.1-0.2,0.2c0.1,0.1,0.3,0.2,0.4,0.2C319,200.4,319,200.2,319.1,200.1z M275.4,356.1
		c-0.8,0.2-1.5,0.4-2.5,0.7C273.9,356.8,274.8,357,275.4,356.1c0.6,0.1,1.2,0.9,2,0C276.6,356.1,276,356.1,275.4,356.1z
		 M163.3,243.4c-0.9,0.2-1.1,1.1-1.5,1.7c-0.1,0.2,0,0.5,0,1.2C162.6,245.2,163.3,244.5,163.3,243.4c0.5,0.1,0.5-0.4,0.5-0.7
		c0-0.1-0.1-0.2-0.2-0.2c-0.1,0-0.2,0.1-0.2,0.1C163.4,242.9,163.3,243.2,163.3,243.4z M397.4,333.5c1.7-0.9,1.7-0.9,2.4-2.3
		c-1,0.6-2,1.1-2.5,2.2c-0.6,0.1-1,0.3-0.9,1.3C396.8,334.1,397.1,333.8,397.4,333.5z M98.2,284.3c-0.2,0-0.4-0.1-0.5,0
		c-0.7,0.6-1,1.4-0.5,2.6C97.7,285.9,98,285.1,98.2,284.3c0-0.1-0.1-0.1-0.1-0.2c0,0,0-0.1,0-0.2C98.2,284,98.2,284.2,98.2,284.3z
		 M111.3,330.8c-1,0.3-0.8-1.4-1.8-1.2C110,331.1,110,331.1,111.3,330.8c0,0.2-0.1,0.5-0.2,0.7c0.5,0.6,1,1,1.9,1.1
		c0-0.6-0.1-1.1-0.1-1.5c-0.4,0-0.7,0-0.9,0S111.6,330.9,111.3,330.8z M369.3,288.4c-0.1,0.1-0.1,0.1-0.2,0.2
		c-0.1,0-0.1-0.1-0.2-0.1C369.1,288.4,369.2,288.4,369.3,288.4c0.3,0.6,0.7,0.7,1.2,0.6c0.5,0,1.1-0.1,1.6-0.3
		c0.3-0.1,0.9-0.1,0.8-0.8C371.6,288.1,370.5,288.2,369.3,288.4z M173.4,160.7c-1.1,0.5-1.3,1.5-1.7,2.5c0.3,0.1,0.4,0.2,0.6,0.2
		c0.2,0,0.3-0.1,0.4-0.2C173.4,162.5,173.5,161.6,173.4,160.7c0.8-0.1,1.1-0.6,1-1.5C173.7,159.6,173.2,160,173.4,160.7z
		 M428.7,291.9c-0.1-0.1-0.1-0.3-0.2-0.4C428.6,291.6,428.7,291.8,428.7,291.9c0.1,1.2,0.5,2.4,1.3,3.6
		C430.6,293.7,430.4,293.3,428.7,291.9z M270,263.9c-0.1,0-0.1,0.1-0.2,0.1s-0.1-0.1-0.2-0.1C269.7,264,269.9,264,270,263.9
		c0,0.1-0.1,0.2-0.1,0.3c0.6,1.3,1.6,2.1,3.6,2.1C272.1,265.3,271,264.6,270,263.9z M132.5,239.1c-1.2,0.4-1.2,1.7-1.7,2.6
		c-0.1,0.2,0,0.6,0,1.1C132.1,241.7,132.1,241.7,132.5,239.1c-0.1-0.2-0.1-0.4-0.1-0.5C132.5,238.8,132.5,238.9,132.5,239.1z
		 M383.6,362.9c1.5,0.6,2.7-0.1,3.9-0.7c0.2-0.1,0.2-0.6,0.4-1.1C386.3,361.8,385,362.4,383.6,362.9c0,0.2-0.1,0.4-0.2,0.5l0.1,0.1
		C383.5,363.4,383.6,363.2,383.6,362.9z M184.6,230.5c-0.1-0.1-0.3-0.3-0.4-0.4c0,0.1-0.1,0.1-0.1,0.2
		C184.3,230.3,184.5,230.4,184.6,230.5c0.6,1.4,2,2,3.2,2.7c0.1,0.1,0.5-0.2,0.6-0.4s0-0.6-0.1-0.7
		C187.2,231.4,186.1,230.6,184.6,230.5z M144.5,153.2c-0.3,0-0.8-0.1-1,0.1c-0.4,0.3-0.8,0.8-1.1,1.3c-0.5,0.8-1,1.7-1.5,2.6
		c0.1,0.1,0.3,0.2,0.4,0.3c0.8-0.9,1.6-1.8,2.2-3C143.8,154,144.2,153.6,144.5,153.2c0-0.2-0.1-0.5-0.1-0.7
		C144.4,152.7,144.4,153,144.5,153.2z M43.5,285.4c0.1,0.1,0.1,0.3,0.2,0.4C43.7,285.7,43.6,285.6,43.5,285.4
		c-0.2-0.5-0.3-1-0.4-1.5c-0.2-0.5-0.3-1.1-0.5-1.6c-0.2-0.4,0-1.1-0.9-1.3c-0.1,0.5-0.6,1.2-0.4,1.5
		C41.9,283.5,42.3,284.8,43.5,285.4z M357.6,135.8c-0.3-0.1-0.7-0.4-1-0.4c-0.4,0-0.7-0.7-1.2-0.2
		C356.1,135.6,356.7,136.3,357.6,135.8c0.1,0.1,0,0.4,0.1,0.4c1.2,0.9,3.7,1.9,5.4,2.3c-0.2-0.8-1-1.1-1.6-1.3
		C360.2,136.7,358.9,136.2,357.6,135.8z M34.9,277.7c0-0.2,0.1-0.4,0.1-0.5c-0.2-1.3-0.5-2.5-0.8-3.8c0,0-0.1-0.1-0.2-0.1
		c-0.1,0-0.2,0-0.2,0.1c-0.5,1.4-0.1,2.7,0.2,4C34.1,277.6,34.7,277.6,34.9,277.7c0,0.7-0.1,1.4,0,2.1c0.1,0.6,0.5,1.2,0.8,1.8
		c0.3,0.5,0.5,1.3,1.5,1.7C36.5,281.2,36.2,279.3,34.9,277.7z M389.5,333.5c-0.4,0.2-0.8,0.4-1.1,0.8c-1.1,1.2-2.2,2.5-3.3,3.8
		c-0.2,0.2-0.6,0.5,0,0.9C387,337.4,388.8,335.8,389.5,333.5c0.1-0.2,0.3-0.3,0.5-0.4c0,0-0.1-0.3-0.1-0.4c-0.1,0-0.2,0.1-0.2,0.1
		C389.6,333,389.5,333.2,389.5,333.5z M280.2,149.1c-0.5-0.2-1.1-0.2-1.6-0.5c-1.1-0.5-2.1-0.4-3.6-0.1c1.1,0.6,1.8,1,2.3,1.4
		C278.4,149.6,279.3,149.4,280.2,149.1c-0.4,1,0.1,1.7,0.6,2.6c1.1-0.2,2.1,0.3,3.7-0.1c-1-0.5-1.7-0.8-2.3-1.2
		C281.5,150,280.8,149.6,280.2,149.1z M135.7,219.1c1.5-1.2,2.1-3,3-4.6c0.1-0.1-0.1-0.6-0.3-0.7c-0.2-0.1-0.7,0-0.7,0.1
		C136.9,215.7,135.9,217.3,135.7,219.1c-0.1,0.2-0.2,0.2-0.3,0.3c0,0,0,0.1,0.1,0.2C135.5,219.5,135.6,219.3,135.7,219.1z
		 M230.9,375c-0.4-0.4-0.9-0.6-1.7-0.1C230,374.9,230.5,374.9,230.9,375c0.4,0.8,1.3,0.6,2,0.8c2.7,0.8,4.5,0.9,7.1,0.5
		C236.5,375.8,233.7,375.4,230.9,375z M163.4,140c1.7-1.4,2.9-3.2,4.4-5c-1.1-0.2-1.7,0.2-2.1,0.8c-1,1.2-2,2.4-2.5,4
		c-0.5,0.4-1,0.8-0.7,1.7C162.9,140.9,163.1,140.4,163.4,140z M439.8,370.8c-0.6,0.9-1.7,1.1-2.6,1.5c-1.9,0.9-3.7,1.7-5.6,2.5
		c-0.4,0.2-1,0.2-0.9,0.9c-0.3,0-0.5,0.1-0.8,0.1c0.1,0,0.1,0.1,0.1,0.1c0.2-0.1,0.4-0.2,0.6-0.3c3.2-0.7,6.1-2.2,8.8-3.9
		C439.7,371.7,439.6,371.2,439.8,370.8c0.1,0.1,0.2,0.1,0.4,0.2C440,370.9,439.9,370.9,439.8,370.8z M158.8,283.8
		c1.2,1.1,2.6,1.6,4.2,1.6C161.7,284.5,160.3,284,158.8,283.8c-2.8-1.5-5.8-2.6-9-2.7c-0.1-0.1-0.2-0.3-0.3-0.4c0,0-0.1,0-0.2,0.1
		c0.2,0.1,0.4,0.1,0.6,0.2C152.6,282.7,155.6,283.6,158.8,283.8z M232.4,134.3c-0.9,0-1.9-0.1-2.8,0c-1.5,0.2-2.7,1-3.7,2.7
		C228.3,136,230.5,135.5,232.4,134.3c0,0,0.1,0,0.2,0C232.6,134.3,232.5,134.3,232.4,134.3z M208,384.4c-0.6-0.1-1.1-0.4-1.7,0.2
		C206.9,384.5,207.5,384.4,208,384.4c0.3,0.2,0.4,0.6,0.7,0.7c2.7,0.9,5.5,1.3,8.4,1.7c1,0.1,2,0.1,3-0.4c0.2,0.4,0.2,0.9,0.8,0.9
		c0.3,0,0.8,0.1,0.6,0.8c-0.3,0-0.6,0.2-0.9,0.1c-1.7-0.2-3.3-0.5-5-0.8c-0.5-0.1-0.9,0-1.8,0c5.5,2.5,31.1,6.7,38.4,6.4
		c-0.7-0.4-1.4-0.5-1.9-0.9c-0.8-0.8-1.8-1-2.8-1c-4.5-0.3-8.9-1.1-13.2-2.5c-0.6-0.2-1.3-0.3-1.9-0.5c-3.8-0.7-7.5-1.4-11.3-2.2
		c-0.3-0.1-0.6-0.3-1-0.4c-0.9-0.1-1.9-0.1-2.8-0.3C214.2,385.6,211.1,385,208,384.4z M397.8,356.4c-1.4,0-2.4,0.8-3.6,1.4
		c-0.9,0.4-1.1,1-1.7,2.7c0.6-0.2,1.2-0.2,1.6-0.4c1.4-1,2.9-1.9,3.8-3.5c0.2-0.1,0.4-0.2,0.6-0.3c-0.1-0.1-0.2-0.2-0.2-0.2
		C398.2,356.2,398,356.3,397.8,356.4z M150.8,137.5c-2.3,1.2-4.6,2.2-6.8,3.5c-1.2,0.7-2.5,1.5-3.2,2.8c-2.5,0-4.3,1.4-6,3
		c-0.3,0.3-0.4,0.8,0.2,1.1c1.8-1.2,3.7-2.4,5.5-3.7c0.1-0.1,0.2-0.3,0.2-0.5c0.2,0,0.4,0.1,0.5,0c3.4-1.7,6.7-3.6,9.7-6.1
		c0.6-0.2,1.2-0.4,1.8-0.7c0.5-0.3,0.5-0.7-0.1-1C151.9,136.3,151.2,136.8,150.8,137.5z M59.6,276.4c-1.4,1.6-2.8,3.2-2.5,5.5
		c0,0.3-0.2,0.7-0.4,1c-0.6,1,0.1,1.4,0.8,2.1c0.2-0.4,0.3-0.7,0.4-0.9c0.2-1.5-0.1-3.2,1.4-4.3c0.2-0.2,0.3-0.7,0.3-1
		C59.6,278,59.5,277.2,59.6,276.4c1.1,0.1,1.1,0.1,1.1-1.7C60.2,275.4,59.9,275.9,59.6,276.4z M190.7,121.1c2.1-0.7,4.2-1.4,6.3-2
		c0.3-0.1,0.6-0.2,0.8-0.1c2.4,0.6,4.5-0.6,6.7-1.3c-0.5-0.2-1-0.3-1.5-0.2c-1.4,0.2-2.8,0.3-4.1,0.6c-2.6,0.5-5.1,1-7.5,2.1
		C190.9,120.2,190.6,120.5,190.7,121.1c-0.4-0.1-0.8-0.1-1.2-0.2c0,0.1,0,0.1,0,0.2C189.9,121.1,190.3,121.1,190.7,121.1z
		 M160.3,334.2c-0.1,0.1-0.1,0.1-0.2,0.1c-0.1,0-0.1,0-0.2,0C160,334.3,160.2,334.3,160.3,334.2c-0.3,0.5-0.3,0.9,0.2,1.2
		c2.6,1.8,5.1,3.7,7.7,5.5c0.1,0.1,0.3,0,0.7,0c-1.5-1.9-3.2-3.2-4.8-4.7C163,335.2,161.5,335,160.3,334.2z M325.7,127.7
		c-0.4,0-0.8,0-1.4,0C324.9,128.3,325.3,127.9,325.7,127.7c0,0.2,0,0.5,0,0.8c5.2,2.1,10.4,4.2,15.6,6.2c0.3,0.1,0.8,0,1.1,0
		c-0.4-0.6-0.9-0.8-1.4-1c-2.4-0.9-4.9-1.8-7.3-2.8C331.1,129.8,328.4,128.7,325.7,127.7z M123.7,166c0.3-0.2,0.6-0.4,0.8-0.7
		c1.4-3.2,2.8-6.5,4.1-9.8c0.3-0.7,0.7-1.5,0.7-2.7c-0.5,0.8-0.9,1.2-1.2,1.6C126,158.1,124.1,161.8,123.7,166
		c0,0.1,0.1,0.2,0.1,0.2c0,0.1,0,0.1,0,0.2C123.8,166.3,123.7,166.2,123.7,166z M209.4,222c0.1-0.4-0.1-0.5-0.4-0.4
		c-0.1,0-0.1,0.1-0.2,0.2C209,221.9,209.2,221.9,209.4,222c0.2,0.2,0.2,0.5,0.4,0.6c2.8,2.3,6,3.6,9.7,3.8c0.3,0,0.7,0.2,0.9-0.3
		c-0.3-1-1.1-1.1-1.9-1.4c-2.7-0.8-5.3-1.8-7.9-2.6C210.1,222,209.8,222.1,209.4,222z M75.5,304.7c0.8,1.3,1.8,2.2,3.2,2.9
		c0.4-2.3,0.8-4.3,1.1-6.4c0.1-0.7,0-1.2-0.8-1.5c-0.7,1-0.8,2.1-1.1,3.2C77.3,304.6,77.4,304.6,75.5,304.7
		c-0.5-1.8-0.5-3.6-0.2-5.5c0.3-1.5,0.5-2.9,0.8-4.4c0.1-0.4,0.2-0.9-0.5-1.2c-1.5,2.6-1.2,5.8-3.4,8.1
		C73.2,302.8,74.1,304.1,75.5,304.7z M261.1,362.4c-0.9,0.1-1.8-0.4-2.7,0.2C259.2,362.6,260.2,362.5,261.1,362.4
		c0.4,0.2,0.7,0.6,1.1,0.7c1,0.2,2,0.3,3.1,0.4c3.5,0.3,7.1,0.6,10.6,0.8c2.5,0.1,5,0.1,7.6,0.2c1.1,0,2.2,0,3.4-0.1
		c1,0,2.1,0,3-0.4c-1.5-0.2-3-0.2-4.5-0.1c-6.1,0.4-12.1-0.2-18.2-0.7C265.1,362.9,263.1,362.7,261.1,362.4z M308.8,150.8
		c0.4-0.8-0.1-1.3-0.6-1.6c-0.6-0.4-1.3-0.4-2.4,0C307.1,149.8,308,150.2,308.8,150.8c1.5,0.6,2.9,1.4,4.3,2.1
		c1.4,0.7,2.7,1.6,4.2,1.9c0.5-0.7,0.9-1.2,1.2-1.7c-0.2-0.2-0.3-0.4-0.5-0.5c-0.5-0.3-1-0.5-1.4-0.9c-2-1.5-4.2-2.2-6.7-1.3
		C309.5,150.6,309.2,150.7,308.8,150.8z M400,192.4c-0.1-0.2-0.1-0.3-0.2-0.5C399.9,192,400,192.2,400,192.4
		c0.7,6.6,1.2,13.3,1.4,20c0,0.1,0,0.2,0.1,0.3c0.1,0,0.2,0,0.4,0c0.3-0.2,0.4-0.7,0.4-1.1c0-2.6,0-5.2,0-7.8c0-0.7-0.1-1.5-0.3-2.2
		c-0.4-1.6-0.7-3.3-0.7-5C401.3,195,400.9,193.6,400,192.4z M389.2,244.8c1.4,0.7,2.5-0.4,3.6-0.4c2.4-3.3,3.7-5.7,4-7.4
		c-0.7,0.4-1.3,0.9-2,1.2c-2.1,1-3.7,2.5-4.5,4.7C390.2,243.7,389.7,244.3,389.2,244.8c-1,1.6-2.1,3.1-3.2,4.6
		c-0.2,0.3-0.7,0.6-0.3,1c1.3-1.3,2.6-2.6,4-3.9C389.6,246,389.4,245.4,389.2,244.8z M415.8,366.6c-0.6,0.1-1.3,0.2-1.9,0.3
		c-1.2,0.3-2.3,0.6-3.5,0.8c-1.9,0.2-3.6,0.8-5.3,1.6c-1.9,0.9-3.9,1.8-5.8,2.7c-0.7,0.3-1.4,0.6-2,0.9c-0.1,0.1-0.1,0.5-0.1,0.7
		c-0.4,0-0.8-0.1-1.2-0.1v0.1c0.4,0,0.8,0,1.2,0c0.4-0.2,0.9-0.3,1.3-0.5c5.5-1.6,10.8-3.6,16-5.7
		C415,367.3,415.7,367.2,415.8,366.6c0.2-0.1,0.4-0.2,0.6-0.2c-0.1,0-0.2-0.1-0.2-0.1C416.1,366.4,416,366.5,415.8,366.6z
		 M374.3,154.5c0.2,1.1,1.1,1.4,2,1.7C375.9,155.3,375.3,154.6,374.3,154.5c-0.2-0.2-0.2-0.5-0.4-0.6c-5.6-4.9-11.6-9.2-17.6-13.6
		c-0.9-0.6-0.9-0.6-2.7,0.3c0.8,1.4,2.3,0.8,3.5,1.3c0.3,1.1,1.1,1.9,2.1,2.5c5,2.9,9.5,6.3,14.1,9.7
		C373.6,154.3,374,154.3,374.3,154.5z M474.1,298.9c0-0.2,0.1-0.4,0.1-0.6C474.2,298.5,474.1,298.7,474.1,298.9
		c0.3,0.6,0.7,1.3,0.9,2c0.8,3.9,1.6,7.9,2.3,11.8c0.3,1.9,1,3.6,1.5,5.4c0,0.1,0.3,0.2,0.6,0.4c0-2.4,0.2-4.7-0.1-7
		c-0.2-2-0.8-4-1.4-6c-0.3-1.2-0.8-2.5-1.4-3.7c-0.4-0.9-0.9-1.8-1.4-2.7C475,299,474.5,299,474.1,298.9z M128.2,211.2
		c0.7,0.1,0.7-0.4,0.9-0.8c1.4-3.3,2.9-6.7,4.3-10c0.7-1.6,0.6-1.9-0.8-2.8c-0.4-0.3-0.9-0.7-1.6-0.4c-0.2,0.4-0.5,0.9-0.7,1.4
		c-0.8,2-1.7,4-2.4,6c-0.8,2.4-2.1,4.6-2.3,7.2c0,0.3-0.4,0.6-0.6,0.9c-1.1,1.3-1.1,1.3-0.2,3.3c1-1.1,1.3-2.5,1.7-3.8
		c0.4-1.3,0.8-2.7,1.3-4c0.1-0.3,0.5-0.5,1-0.9c0,0.8,0.1,1.3,0,1.7C128.7,209.6,128.5,210.4,128.2,211.2c0,0.2-0.1,0.3-0.2,0.5
		c0,0.1,0,0.1,0,0.2c0.1-0.1,0.3-0.1,0.3-0.2C128.4,211.5,128.3,211.3,128.2,211.2z M140,366.2c-0.3,0.1-0.6,0.1-0.9,0.2
		c0,0.1,0.1,0.2,0.1,0.2C139.5,366.5,139.8,366.3,140,366.2c0,0.3-0.1,0.5-0.1,1c4.5,1.8,8.8,4,13.4,5.6c9.9,3.5,19.9,6.9,29.8,10.4
		c0.1,0,0.3,0,0.4-0.1c-0.1,0-0.3,0-0.4,0c0-0.2,0-0.7-0.1-0.7c-0.7-0.3-1.4-0.5-2.1-0.7c-0.3-0.1-0.5-0.1-0.8-0.2
		c-0.3-0.6-0.5-1.2-0.8-1.8c-2.2-0.7-4.3-1.3-6.4-2c-10.4-3.3-20.9-6.3-31-10.6C141.3,366.9,140.7,366.5,140,366.2z M408.5,387.7
		c0.7,0.4,1.4,0.3,2.2,0.1c2.2-0.6,4.4-1,6.5-1.6c3-0.8,5.9-1.9,8.6-3.4c1.9-1,3.8-1.9,5.8-2.8c3-1.4,6.1-2.4,8.9-4.1
		c4.1-2.4,8.1-5.1,12-7.7c0.4-0.3,0.7-0.7,1.1-1c-0.8,0.1-1.5,0.4-2.1,0.8c-2.9,1.8-5.7,3.6-8.6,5.3c-1.8,1.1-3.7,2.2-5.6,3.1
		c-5.4,2.4-10.9,4.4-16.7,5.7c-1.3,0.3-2.5,0.8-3.6,1.4C414.1,384.9,411.3,386.3,408.5,387.7c0,0.2,0,0.3,0,0.3c0,0.1,0,0.1,0,0.2
		C408.4,388,408.4,387.9,408.5,387.7z M389.4,388.5c-0.8,0.1-1.7,0.1-2.5,0.2c-8.3,1.3-16.6,2.6-25,3.9c-3.3,0.5-6.7,0.8-10,1.1
		c-2,0.2-4.1,0.3-6.1,0.7c-3.5,0.8-7,1.4-10.5,1.8c-2.4,0.3-4.8,0.5-7.2,0.8c-6,0.7-12,0.6-18,0.6c-0.2,0-0.4,0.1-0.5,0.1
		c0.1,0.1,0.3,0.2,0.4,0.2c5,0.4,10.1,1,15.1,0.8c1.2-0.1,2.4,0.3,3.2-1c0.1-0.2,0.7-0.3,1-0.3c1.8-0.1,3.5-0.3,5.3-0.4
		c3.3-0.1,6.6-0.1,9.8-0.1c3.8,0,7.7-0.3,11.4-1.1c5.9-1.2,11.7-2.3,17.6-3.3c5-0.8,9.9-2.2,14.7-3.5
		C388.7,389,389.3,389.1,389.4,388.5c0.5,0.1,1.1,0.3,1.7-0.5C390.3,388.2,389.9,388.3,389.4,388.5z M451.4,277.4
		c-1.6-1.4-3.3-2.8-4.9-4.3c-3-2.8-6.2-5.4-9.7-7.7c-6.2-4-12.4-8-18.6-12.1c-1-0.7-2.1-1.3-3-2c-0.3-0.2-0.4-0.5-0.8-1.1
		c0.7,0,1.2-0.2,1.6,0c1.6,0.6,3.2,1.1,4.7,1.9c4,2.3,7.9,4.7,11.9,7c6.2,3.6,12,7.6,17.2,12.6c0.4,0.4,0.8,0.6,1.5,1.2
		c-1.1-2.2-3.8-6.1-5-7.1c-0.1-0.1-0.1-0.1-0.2-0.2c-2.3-1.8-4.6-3.5-7-5.3c-2.1-1.6-4.2-3.1-6.4-4.6c-1.8-1.3-3.7-2.6-5.6-3.7
		c-5.7-3.1-11.7-5.4-17.7-7.8c-0.5-0.2-1-0.2-1.8-0.3c0,1,0,1.9,0,2.7s0.1,1.7,0.1,2.3c1.5,1.1,2.8,2,4.1,2.9
		c1.6,1.1,3.1,2.5,4.9,3.3c4.4,1.9,8.5,4.3,12.6,6.8c6.5,4.1,12.9,8.4,18.2,14.1c1.6,1.7,3.2,3.4,4.9,5.1c1.6,1.6,3.1,3.3,4.7,4.9
		c0.2,0.3,0.6,0.4,0.9,0.7c0.3-0.3,0.5-0.6,0.8-0.9c-1.5-1.8-2.9-3.5-4.3-5.2c0.5,0.3,1,0.5,1.4,0.8c0.5,0.3,0.7,1.1,1.7,1
		c-0.7-2.7-1.7-4.9-4.3-6.1C452.1,275.7,451.8,275.9,451.4,277.4z M459.5,281.3c0.2-1.7-0.2-2.3-2.1-3.2
		C458.2,279.4,458.9,280.3,459.5,281.3c0.3,0.3,0.6,0.7,0.9,1.1c3.3,5.3,5.7,10.9,7.8,16.7c0.6,1.6,1.1,3.1,1.8,4.8
		c0.2-0.3,0.3-0.4,0.4-0.6s0.2-0.3,0.5-0.7c0.2,1,0.5,1.6,0.4,2.2c0,2,0.5,3.9,0.9,5.8c0.2,0.8,0.5,1.7,0.3,2.5
		c-0.6,2.4,0.1,4.7,0.4,7c0.3,1.8,0.4,3.5,0.2,5.3c-0.4,2.8-0.9,5.5-1.6,8.3c-0.4,1.7-0.9,3.4-1.6,5c-0.9,2.2-2.1,4.4-3.1,6.6
		c-0.4,0.9-0.9,1.8-0.3,2.9c0.2,0.3,0,0.9-0.1,1.3c-0.3,0.7-0.6,1.4-0.9,2c-1.1,2.6-2.8,4.5-5.3,5.9s-4.8,3.3-6.5,5.6
		c-0.5,0-0.8,0.2-0.9,0.9c0.4-0.3,0.7-0.6,1-0.8c2.1-0.5,3.9-1.8,5.7-2.9c2.2-1.3,4.2-2.8,6-4.6c4-4.1,4-4.1,6.1-9.5
		c2-5,3-10.2,3-15.6c0-1.2,0-2.4,0.1-3.6c0.3-5.5,0.3-11.1-0.3-16.5c-0.5-4.5-1.2-8.9-3-13.1c-0.5-1.1-0.7-2.2-0.3-3.3
		c0.4-1.1,0-1.8-0.5-2.6c-1.1-1.6-2.4-3.1-3.4-4.8c-1.5-2.4-3.7-4-6-5.4C460.6,281.2,460.1,281,459.5,281.3z M120.6,292.5
		c0.7-0.9,0.4-2.3,1.6-3.4c0.1,0.8,0.3,1.4,0.2,1.8c-0.7,2.1-0.7,4.2-1.1,6.3c-0.1,0.6-0.2,1.4,0.1,1.9c1,1.6,2.1,3,3.3,4.6
		c0.9-1.2,1.1-2.4,1.2-3.1c-0.2-1.4-1.6-1.8-1.4-3.2c0.7,0.1,1.3,0.2,1.9,0.4c0.3-0.7,0.7-1.4,1-2.1c0.5,0.2,0.9,0.3,1.3,0.4
		c0.9-1.7,0.9-3.5,0.7-5.5c-0.5,0.2-0.9,0.5-1.4,0.6c-0.9,0.2-1.5-0.3-1.4-1.2c0.1-1,0.7-1.7,1.3-2.4c0.4-0.5,0.8-1.1,0.8-1.7
		c0.1-1.3,0-2.6,0-3.7c-1.3-1-2.5-1.9-3.7-2.8c0.3-0.5,0.5-0.8,0.6-1.1c0.1-0.3,0.2-0.6,0.3-1c-1.1-0.6-2.2-0.7-3.4-0.7
		c-0.5,0-1,0.1-1.4-0.1c-1.9-1.1-3.8-2.2-4.8-4.2c-0.9-1.7-2.5-2.8-3.3-4.5c-0.1-0.1-0.6,0-1.2,0c0.5,1,0.8,1.8,1.1,2.5
		c0.8,1.7,1.7,3.3,2.3,5.1c0.5,1.6,1.3,3.1,2.2,4.4c2.4,0.2,2.4,0.2,3.9-1.2c1.6,0.5,2.8,1.6,4.5,2.7c-2.4,1.2-4.6,1.3-6.7,0.6
		c-2.4-0.8-4.5-2.4-5.6-4.8c-1-2.1-1.9-4.2-2.8-6.4c-0.2-0.4-0.1-0.9-0.1-1.4c0-1.3,0.1-2.6,0.1-3.9c0-1,0.3-1.9,1-2.5
		c0.6-0.5,0.9-1.1,1.1-1.9c0.3-1,0.7-1.9,1.1-2.9c0.5-0.1,1-0.3,1.6-0.5c0-0.6,0-1.1,0-1.7c0-0.2-0.2-0.3-0.4-0.6
		c-0.6,0.2-1.4,0.3-2,0.6c-1.4,0.8-2.6,1.8-3.3,3.4c-0.6,1.3-1.3,2.5-1.9,3.8c-1.5,3-2.5,6-2.6,9.4c-0.1,2.3-0.1,4.7-0.1,7
		c0,1.9,0.3,3.6,0.9,5.5c1.3,4.2,3.4,8.1,5.4,12c0.5,0.9,0.9,1.8,1.7,2.5c0.3-0.2,0.5-0.3,0.6-0.4c0.4-0.7,0.7-1.3,1.1-2
		c-0.6-1.1-1.2-2.1-1.7-3.2c-1.4-3-2.8-5.9-4.1-8.9c-0.2-0.4-0.4-0.9,0.4-1.2c2.1,3.3,3.2,7.1,5.7,10.1c0.8-0.6,1.1-1.2,0.7-2
		c-0.2-0.5-1-1.1,0-1.7c0.5,0.3,1,0.8,1.6,0.9c0.9,0.2,0.1,1.3,0.9,1.4c1.2-1,1.2-1,2.3-1.3C120.5,291.6,120.6,292.1,120.6,292.5
		c-1.1-0.3-1.4,0.7-1.7,1.3c-0.4,0.8,0.1,1.4,0.9,1.8C120.7,294.7,120.3,293.5,120.6,292.5z M47.2,273.1c-0.3,0.3-0.8,0.5-0.7,1.1
		c0,0.7,0,1.5,0,2.2c0,1.7,0.1,3.4-0.2,5c-0.5,2.5-0.1,4.8,0.8,7.2c0.6,1.6,1.3,3.1,1.9,4.7c0.5,1.4,1.3,2.5,2.5,3.3
		c0.4,0.3,0.7,0.6,1,0.9c3.1,4.1,6.6,7.6,10.3,11.1c0.7,0.6,1.4,1.2,2.1,1.9c3.1,3.4,6.2,6.7,9.3,10.1c1.5,1.6,3,3.1,5,4
		c0.5,0.2,0.8,0.7,1.2,1c-0.3,0.5-0.5,0.8-0.7,1.2c0.4,0.3,0.7,0.6,1,0.9c2.2,1.6,4.3,3.3,6.5,4.9c0.6,0.5,1.3,0.9,1.6,1.5
		c0.8,1.5,2.1,2.3,3.5,3.1c4.5,2.5,9,5.1,13.4,7.6c0.7,0.4,1.5,0.8,2.1,1.4c5.9,4.7,12.7,7.8,19.6,10.7c3.8,1.6,7.6,3.2,11.4,4.8
		c0.4,0.2,0.9,0.3,1.2,0.6c0.9,0.9,2.1,1.2,3.2,1.6c3.7,1.4,7.3,2.8,11,4.3c6.8,2.7,13.7,5.2,20.6,7.4c0.7,0.2,1.4,0.5,2.2,0.6
		c4,0.7,7.9,1.3,11.9,1.9c0.4,0.1,0.8,0,1.1,0c-1-0.5-2-0.7-3-1c-3.9-1.1-7.7-2.2-11.6-3.4c-1.7-0.5-3.1-1.4-3.4-3.2
		c-3.1-1.7-6.4-2.8-9.8-3.5c-6.9-1.5-13.4-4-20-6.7c-0.7-0.3-1.6-0.5-2-1c-0.7-1-1.7-1.4-2.7-1.8c-7.7-3.8-15.5-7.5-23.2-11.3
		c-2.5-1.2-5-2.6-7.4-4c-4.2-2.5-8.3-5.2-12.4-7.8c-2-1.3-3.9-2.6-5.7-4.1c-3.5-2.9-6.8-5.9-10.2-8.8c-0.6-0.6-1.2-1.3-1.9-1.6
		c-1.2-0.5-2-1.4-2.8-2.3c-5.7-6.1-11.4-12.2-16.9-18.4c-2.1-2.4-3.9-5-5.4-7.9c-1.1-2.2-1.8-4.5-1.6-7c0.1-0.8,0-1.7-0.2-2.5
		c-0.3-1.6-0.9-3.2-0.4-4.9c0.1-0.5-0.1-0.6-1-1.9c-0.5,2.5-0.2,4.9,0.1,7.3s1,4.7,1.6,7.5c-0.6-0.6-0.9-0.8-1-1.1
		c-0.9-1.5-1.5-3.2-1.8-5c-0.1-0.9-0.1-1.8-0.6-2.7c-0.2-0.4-0.2-0.9-0.2-1.4c0-1.8,0-3.6,0.1-5.3C46.7,274,47,273.6,47.2,273.1
		c0-0.4,0-0.7,0-1.1s0.3-0.8-0.5-1.3C46.9,271.7,47.1,272.4,47.2,273.1z M85.9,252.6c0.3,0.1,0.5,0.2,0.7,0.1
		c2.7-0.3,5.2-1.5,7.9-1.8c0.5,0,1-0.4,1.5-0.7c0.8-0.4,1.5-1.2,2.4-0.2c1.4,0,2.8-0.1,3.6-1.6c0.4-0.6,0.8-1.2,1.3-1.8
		c1,1-0.4,1.8,0,2.6c2.4,0.8,3.6-1.8,5.5-2c0.2,0.2,0.4,0.3,0.4,0.4c0.2,0.6,0.5,1,1.1,1s1.1,0,1.5-0.5c0.3-0.4,0.5-0.8,0.8-0.7
		c1.5,1.8-0.6,3-0.5,4.8c1.2-1.5,2.2-2.7,3.3-4.1c0-1,0-2.3,0-3.5c-2.5-1-5.1-1.2-7.5-0.4c-2.5,0.8-5,1.3-7.6,1.6s-5.2,0.9-7.7,1.5
		c-1.5,0.3-3.1,0.8-4.5,1.1C87.3,250,86.6,251.2,85.9,252.6z M403,380c-3.8-1.3-3.8-1.4-7.1-0.3c-7.8,2.6-15.6,5.3-23.3,7.9
		c-0.4,0.1-0.8,0.4-1.8,0.8c1.4,0,2.1,0.1,2.8,0c3.7-0.4,7.4-0.8,11.1-1.2c3.4-0.4,6.8-1,10.3-1.4c1.1-0.1,2.2-0.7,3.1,0.5
		c0.1,0.1,0.5,0.1,0.8,0c0.7-0.2,1.4-0.5,2.3-0.8c-0.6-0.4-1-0.5-1.3-0.8s-0.5-0.7-0.7-1.1c-1.7-0.2-3.5,1-5.6-0.6
		C397.2,382.4,400.2,381.8,403,380z M329.4,388c0.2-0.5,0.4-1,0.7-1.5c2.1,0,4.2,0,6.2,0c3.1,0,6.2,0,9.3-0.1c1.3,0,2.3-0.5,3.3-1.7
		c-0.7,0-1.2-0.1-1.6-0.1c-3.7,0-7.3,0.1-11,0.1c-1.6,0-3.2,0-4.7,0.7c-1,0.4-2.1,0.7-3,0.2c-1.3-0.6-2.5-0.5-3.8-0.5
		c-4.1,0-8.2,0-12.4,0c-1.3,0-2.6,0.1-3.9,0.2c-2.7,0.3-5.4,0.7-8.1,1.1c-0.3,0-0.8,0-0.7,0.6c0.2,0.1,0.5,0.3,0.7,0.3
		c5,0.2,10.1,0.5,15.1,0.7C320.2,388.1,324.8,388,329.4,388z M77.9,330.9c-0.1,0.3-0.1,0.4-0.1,0.4c3.4,3.8,6.9,7.6,11.2,10.6
		c5.3,3.8,10.7,7.3,16.2,10.6c1.3,0.8,2.8,1.4,4.3,2.1c2.1,0.9,4.2,1.7,6.2,2.5c0.9,0.4,1.8,0.9,3.2,0.9c-1.6-1.4-3.1-2.1-4.7-2.9
		c-3.2-1.6-6.4-3.2-9.4-5c-4-2.3-7.8-4.8-11.7-7.3c-1.6-1.1-3.4-2.1-4.7-3.5c-2.2-2.4-4.8-4.1-7.3-6.1C80,332.4,79,331.7,77.9,330.9
		z M198,127c2.6-0.5,4.9-0.8,7.2-1.4c1.1-0.3,2.1-1.1,3.2-1.7c0.9-0.5,1.8-1,2.7-1.5c2.7-1.4,5.3-2.7,8-4.1c0.5-0.3,1-0.7,1.8-1.2
		c-2.9,0-18.1,3.9-20.6,5.1C199.6,123.7,198.9,125.1,198,127z M185.7,135.4c-0.1-2.7,0-3.1,2.1-4.5c1-0.7,2.1-1.2,3.2-1.7
		c0.7-0.3,1.5-0.4,2-0.9c1.5-1.5,3-3.1,4.1-5.3c-0.7,0.1-1.1,0.1-1.5,0.2c-2.1,0.7-4.2,1.5-6.4,2.2c-1.3,0.4-2.4,1.1-3.1,2.2
		c-0.4,0.6-0.9,1.2-1.4,1.8c0.3,0.5,0.6,0.9,0.9,1.3c-2.8,1-2.8,1-4.6,3.8c-0.5,0.8-1,1.6-1.5,2.4c-0.2,0.4-0.7,0.7-0.2,1.2
		C181.4,137.2,183.6,136.3,185.7,135.4z M264,389.1c-0.3-0.2-0.4-0.3-0.6-0.3c-5.4-1.1-10.7-2.5-16.3-2.7c-4.8-0.2-9.5-0.8-14.3-1.3
		c-0.4,0-0.7,0-1.7,0.1c1.4,0.4,2.2,0.7,3,0.8c7.7,1.5,15.4,3,23.1,4.5c2,0.4,4.1,0.5,6.1,0.7c0.2,0,0.5-0.2,0.8-0.3
		C264.1,390.1,264,389.5,264,389.1z M41.6,271c0.2,0,0.4,0,0.6,0c0.8,4,0.2,8.3,2.8,12.5c0-1.4,0-2.1,0-2.9c0-2.1,0-4.3,0-6.4
		c0-2.7,0.8-5.1,1.8-7.6c0.3-0.6,0.5-1.2,0.7-1.8c-0.5-0.5-0.9-1-1.3-1.5c-2.3,1.6-4.2,3.4-5.8,4.9c0,2-0.8,3.9,0.6,5.6
		C41.3,272.8,41.5,271.9,41.6,271z M373.2,363.5c-1.8-0.5-1.8-1.8-2.1-3.1c-3.1,1.4-6,2.6-8.9,3.9c-1,0.5-2.1,0.7-2.8,1.7
		c-0.2,0.3-0.8,0.4-1.2,0.6c-0.7,0.2-1.5,0.3-2.2,0.5c-1.5,0.5-3,1.1-4.4,1.7c-0.1,0-0.1,0.3-0.3,0.6c1,0,1.9,0,2.8,0.1
		c2.5,0.1,4.8-0.3,7.1-1.4c3.3-1.5,6.7-2.9,10.2-3.9C371.8,364.1,372.2,363.9,373.2,363.5z M156.3,312c-0.1,0.2-0.3,0.3-0.4,0.5
		c1.2,1.6,2.5,3.2,3.7,4.9c1,1.4,2.3,2.5,4,2.9c0.5,0.2,1.1,0.4,1.6,0.5c0.3-0.4,0.6-0.7,1-1c1,0.7,1.9,1.3,2.8,1.9
		c0.3,0.2,0.8,0.3,1.4,0.5c-0.1-2-0.3-3.8-0.4-5.6c-1-0.4-1.9-0.9-2.8-1.3c-1.8,1-1.8,1-3.2,0.4c-1.9-0.9-3.7-1.8-5.5-2.8
		C157.7,312.7,157,312.4,156.3,312z M318.3,375.7c-8.8,0.6-17.6,1.2-26.5,1.7c0.1,0.3,0.1,0.4,0.2,0.4c0.2,0.1,0.5,0.3,0.7,0.4
		c5.2,1.1,10.5,1.7,15.9,1.5c0.7,0,1.3-0.1,1.7-0.8c0.5-0.8,1.3-1,2.1-1.1C314.4,377.4,316.4,377,318.3,375.7z M275.6,389.7
		c2.2,0.8,4.4,1.5,6.8,1.6c3.3,0.2,6.5,0.6,9.8,0.6c10,0.2,20,0.4,30.3,0.5c-4.3-1.3-8.4-0.9-12.5-1c-2.5,0-5.1,0-7.6-0.3
		c-5.5-0.5-11-1-16.5-1c-1.9,0-3.7-0.2-5.6-0.3C278.8,389.8,277.2,389.7,275.6,389.7z M68.3,258.5c0.3,0.1,0.5,0.2,0.6,0.1
		c1.2-0.4,1.8-1.2,1.7-2.5c0-0.7,0.5-0.9,1.1-0.8c0.6,0.3,0.1,1.4,1.2,1.5c1.4-1.7,3.5-3,4.1-5.9c-3.8,0.7-7.4,1.4-11,2.1
		c-0.2,0.9-0.4,1.8-0.7,2.7c-0.4,1-0.8,1.9-1.2,2.8c-0.3,0.8-1.1,1.5-0.8,2.8c0.6-0.7,1-1.3,1.4-1.7c0.4-0.4,0.8-1,1.3-1
		c1-0.1,1.4-0.8,1.8-1.6c0.6-1.2,1.1-2.4,1.7-3.5c0.1-0.2,0.4-0.3,0.8-0.6C70.5,255.3,68.7,256.7,68.3,258.5z M325,378.6
		c0,0.1,0.1,0.2,0.1,0.3c3.2-0.3,6.5-0.7,9.7-0.9c6.7-0.4,5.4-0.5,11.2-3.1c0.5-0.2,1-0.5,1.5-0.8c0.2-0.1,0.3-0.4,0.6-0.7
		c-3.1,0.2-5.9,0.4-8.8,0.6c-0.4,0-0.7,0.1-1.1,0.1c-0.3,0.1-0.5,0.1-0.8,0.2c-3.6,1.2-7.3,2.3-10.9,3.5
		C326,378.1,325.5,378.4,325,378.6z M244.6,145c2.2-0.1,4.2-0.2,6.2-0.3c0.3-0.7,0.4-1.4,0.8-1.9c0.3-0.5,0.9-0.9,1.5-1.5
		c-1.6-0.9-3.1-1.6-4.5-2.4c-0.4,0.3-0.8,0.5-1,0.8c-0.8,1.1-1.7,1.2-2.9,0.4c-0.3-0.2-0.9-0.3-1.3-0.2c-1.6,0.6-3.3,1.1-5.1,2.1
		c1.4,0.9,2.7,1.3,4,1.8c0.6-0.4,1.1-0.8,1.6-1.2c0.3-0.2,0.6-0.5,1-0.5c0.3-0.1,0.8,0,1,0.2c0.3,0.2,0.3,0.7-0.1,0.9
		C245.2,143.5,244.5,143.7,244.6,145z M209.7,298.5c1.3,0.9,2.5,1.2,3.5,1.8c1.7,1,3.5,1.2,5.4,1.4c3.6,0.3,7.3,0.6,10.9,1.1
		c3.4,0.5,6.9,0.6,10.3,0.3c0.3,0,0.7,0.1,0.8-0.5c-1.3-0.5-2.7-0.4-4.1-0.6c-4.6-0.5-9.3-1-13.9-1.7c-2.2-0.3-4.5-0.3-6.4-1.6
		c-0.1-0.1-0.4-0.1-0.5-0.1C213.8,298.5,211.9,298.5,209.7,298.5z M210.1,133.7c2.7-0.6,5.1-0.8,7.4-1.8c2.1-0.8,4.1-1.7,6.2-2.6
		c1.6-0.7,2.8-1.6,3.8-3c-1.4-0.3-2.8,0.2-4.2,0.5c-7.1,1.2-7.1,1.2-12.4,5.8C210.7,132.8,210.5,133.1,210.1,133.7z M355.2,250
		c-2.4,1.3-4.7,2.5-7,3.8s-5,1.9-7.2,4.1c1.4,0.1,2.5,0.1,3.5,0.2c0.5,0,1,0.1,1.4,0c1.6-0.4,3.3-0.9,4.5-2.2
		c3.1-3.3,6.2-6.5,9.3-9.8c0.2-0.2,0.7-0.5,0.1-1c-0.8,0.5-1.7,1-2.6,1.6c-0.8,0.5-1.5,1-2.3,1.5C355,248.8,355.1,249.3,355.2,250z
		 M260.3,297c7.8,0.8,26.7,1.4,33.4,0c-3.7-0.1-7.5,0-11.2-0.1c-3.8-0.1-7.7-0.3-11.5-0.6c-3.7-0.2-7.4-0.6-11.2-0.9
		c0.1,0.4,0.1,0.7,0.1,1C260,296.5,260.1,296.7,260.3,297z M386,367c2.8,0.4,5.3,0.3,7.5-0.4c1.9-0.6,3.8-1.1,5.6-1.9
		c4.1-1.7,8.2-3.6,12.3-5.4c0.4-0.2,0.8-0.6,1.2-0.9c-4.7,1.1-9.4,1.9-13.5,4.4c-0.7,0.4-1.5,0.7-2.3,1c-1.4,0.5-2.8,0.9-4,1.9
		c-0.4,0.3-1.3,0.5-1.8,0.3c-0.8-0.2-1.5-0.7-2.4-0.2C387.7,366.2,386.7,366.2,386,367z M389.8,178.6c0.1-2.3-0.2-4.3-1.2-6.2
		c-0.7-1.3-5.4-5.1-7-5.8c-0.3,2.8,0.2,3.9,2.3,5.5c1.4,1,2.3,2.2,2.5,3.8c0.1,1.1,0.7,1.9,1.4,2.8
		C388.5,178.6,389,178.6,389.8,178.6z M234.7,293.2c-1.9-0.9-10.6-2.8-18.3-4.1c-0.8-0.1-1.6-0.1-2.7-0.1c0.6,1,1.1,1.6,1.4,2.2
		C219.3,292.4,230.8,293.6,234.7,293.2z M282.6,235.9c-2.5-1.9-2.5-2-4.8-2.1c-2,0-4-0.8-6,0.4c1.5,1.5,5.9,4.2,9.1,5.7
		c0.6-0.3,1.2-0.6,1.6-0.9C282.6,237.9,282.6,237,282.6,235.9z M179.4,133c-0.1-0.1-0.3-0.2-0.4-0.3c-0.5,0.3-1,0.5-1.5,0.8
		c-1.9,1.3-3.8,2.6-5.8,3.9c-1.9,1.3-3.1,3.1-4.2,5.2c0.6,0,1.1,0.1,1.5,0c0.5-0.1,0.9-0.2,1.3-0.4c3.8-1.5,3.8-1.5,6.2-4.9
		c0.6-0.9,1.3-1.8,1.9-2.8C178.8,134.1,179.1,133.6,179.4,133z M141.5,166.8c0.3,0,0.4,0,0.5,0c3.2-3.3,5.1-7.3,5.5-11.9
		c0-0.4-0.1-0.7-0.7-0.8c-1.2,1.3-2.3,2.8-3.4,4.3c-2.4,3.5-2.4,3.5-2.1,7.8C141.4,166.3,141.4,166.5,141.5,166.8z M232.7,139
		c0.8,1.1,1.7,1.4,3,1c1.2-0.4,2.5-0.5,3.8-0.8c1.6-0.3,3.3-0.7,4.9-1c0.3-0.1,0.6-0.3,1-0.5c-0.3-0.3-0.4-0.7-0.6-0.7
		c-1.6-0.2-3-0.9-4.3-1.9c-0.6-0.4-1.3-0.4-1.8,0C236.8,136.3,234.7,137.5,232.7,139z M302.2,144.5c0.1-0.2,0.1-0.4,0.2-0.5
		c-3.2-1.7-6.4-3.6-9.7-5c-1.5,0.4-2.8,0.8-4,1.2c0,0.2,0,0.4,0.1,0.4c2.5,1.3,4.9,2.6,7.4,3.8c0.2,0.1,0.4,0.1,0.5,0.1
		C298.5,144.5,300.3,144.5,302.2,144.5z M135.3,180.9c0.8-1.3,1.3-2.1,1.7-2.9c1.1-2.1,0.9-4.6,1.9-6.7c-0.2-1.3-0.4-2.5-0.6-4.1
		c-0.5,0.5-0.7,0.8-0.9,1.1c-1,1.9-2,3.8-3,5.7C133.3,176.2,134.1,178.3,135.3,180.9z M285.8,158.8c-0.2-0.2-0.3-0.4-0.4-0.5
		c-2.4-1.7-5.3-2.1-8.1-2.7c-1-0.2-1.5,0.4-2,1.2c2,2.2,4.6,3.9,7.2,4.6C283.7,160.8,284.9,160,285.8,158.8z M323.6,285.6
		c6.2,0.4,27.5-3.4,32.7-5.5c-0.6,0-0.9-0.1-1.2-0.1c-3.1,0.4-6.2,0.6-9.1,1.6c-1,0.3-2,0.5-3,0.7
		C336.5,283.4,330,284.5,323.6,285.6z M384.7,231.3c1.7-1.3,2.9-2.2,4.1-3.2c0.4-0.3,0.8-0.9,0.9-1.4c0.9-2.6,1.7-5.3,2.5-8
		c0.1-0.4,0.1-0.9,0.1-1.6c-1,0.6-1.4,1.4-1.6,2.1c-0.3,0.9-0.8,1.6-1.4,2.3C387.1,224.3,385.2,227.1,384.7,231.3z M73.4,280.4
		c-1.1,0.6-1.9,0.7-2.2,1.2c-1.2,2-2.5,4-2.5,6.5c0,1.6-0.3,3.2-0.4,4.8c0,0.5,0,1.1,0,1.6c0.3-0.2,0.5-0.2,0.6-0.3
		c0.8-1.1,1.1-2.6,2.2-3.6c0.4-0.3,0.4-1,0.5-1.6c0.4-1.6,0.7-3.1,1-4.7C72.8,283.3,73,282.2,73.4,280.4z M223,279.8
		c4,1.5,8.1,2,12.2,2.9c0.3,0.1,0.7-0.1,1.2-0.1c-0.2-0.5-0.3-0.8-0.4-1.2c-0.2-0.4-0.4-0.8-0.5-1.2c-5.4-1.3-12.5-2.5-13.1-2
		C222.7,278.7,222.8,279.2,223,279.8z M309.8,361.1c-1.7,0-2.8,0-3.9,0c-1.7,0.1-3.3,0.3-5,0.3c-4.2,0.1-8.4,0.1-12.6,0.1
		c-0.5,0-0.9,0-1.4,0c-0.4,0-0.9,0.1-1.9,0.3c3.2,0.5,5.8,0.1,8.3,0.5c0.2,0.5,0.3,1,0.5,1.5C299,363.6,304.1,363.2,309.8,361.1z
		 M230.1,240.1c-3.8-3-7.3-4.4-11.7-4.6c1.3,1.5,2.5,2.7,3.8,3.9c0.3,0.2,0.6,0.5,1,0.5C225.4,240.4,227.6,240.7,230.1,240.1z
		 M123.9,202.7c0.1,0,0.3,0.1,0.4,0.1c0.9-2.1,1.9-4.2,2.8-6.4c0.9-2.1,1.9-4.2,3.1-6.2c-0.7-1.2-0.9-2.5-2-3.5
		c-0.3,0.6-0.6,1.1-0.8,1.6c-0.2,0.5-0.4,1-0.6,1.5c2,0.8,2.1,1.1,0.9,2.5c-0.9,1.1-1.8,2.2-2.7,3.2c-0.8,0.8-1.1,1.9-0.9,2.8
		c0.3,1.1,0.1,2-0.2,3C123.8,201.8,123.9,202.3,123.9,202.7z M60.7,310.5c1.9,1.9,3.6,3.8,5.7,5.3c-0.1-0.3-0.2-0.5-0.3-0.7
		c-3.9-4.2-7.8-8.3-11.8-12.4c-0.2-0.2-0.4-0.5-0.6-0.5c-0.3-0.1-0.7,0-1,0c-0.1,0.2-0.1,0.3-0.1,0.4c0.6,2.3,2,3.9,3.9,5.3
		c0.3,0.2,0.7,0.4,0.8,0.7c0.3,1.4,1.3,2.2,2.2,3.2c0.1,0.1,0.3,0.1,0.5,0.2C60.2,311.4,60.4,311,60.7,310.5z M187.8,337.7
		c-0.8-0.6-1.7-1.3-2.5-2.1c-0.3-0.3-0.4-0.6,0.1-1c1.1,0.6,2.3,1.3,3.6,2c0.4-0.4,0.8-0.8,1.2-1.3c-2-1.8-4-3.1-6.3-4.2
		c-0.9,1.1-1.5,2.2-2.1,3.4c1.5,1.6,3.1,2.8,4.8,4C187.3,339,187.7,338.6,187.8,337.7z M268.8,114.8c-2.2-0.2-4-0.4-5.8-0.5
		s-3.5-0.1-5.3-0.2c-1.9,0-3.7-0.1-5.6-0.1c-1.8,0-3.7-0.4-5.3,0.1c-1.7,0.5-3.4,0-5.1,0.7c0.5,0.2,0.9,0.2,1.4,0.2
		c2.9,0.1,5.8,0.3,8.7,0.4c1,0,2.1,0.1,3.1,0C259.4,115.3,263.9,115,268.8,114.8z M251,127.4c4.4,2.5,8,1.9,11.2-2
		c-0.4-0.1-0.8-0.2-1.1-0.2c-2,0-4.1,0.1-6.1,0C253.1,125.2,252.1,126.2,251,127.4z M445.7,355.7c-0.5,0-0.7,0-0.8,0.1
		c-2.9,1.7-5.8,3.3-8.7,5.1c-2.1,1.3-3.9,3-6,4.9C435.7,364.2,442.1,360,445.7,355.7z M384.9,185.6c-0.8,0.1-1.4,0.4-2,0.3
		c-0.6,0-1.2-0.4-1.8-0.6c-0.8,0.9-1.9,1.5-1.9,2.7c0,1.5-0.6,2-1.9,2.2c-0.2,0-0.5,0.2-0.9,0.4c1.5,0.8,2.4,1.6,3.7,1.7
		c2.4-1.2,3.2-3.7,4.8-5.6C385,186.5,384.9,186,384.9,185.6z M54,269.3c0.8-1.4,1.3-2.3,1.9-3.3c0.6-1,1.3-2.1,2-3.1
		c0.6-0.9,1.3-1.8,1.9-2.7c0.7-1,1.4-2,2.1-3c0.6-0.9,1.4-1.7,1.8-3.3c-2,1.7-3.9,2.7-4.6,4.9c-0.1,0.2-0.3,0.5-0.5,0.6
		c-1.9,1.3-3,3.3-4.4,5.1C55.3,266,53.7,267.4,54,269.3z M184.1,148.4c3.1-1.9,5.8-3.4,8.4-5c0.1-0.1,0.2-0.3,0.4-0.5
		c-0.9-1-1.7-2.1-2.9-2.7C187.5,142.1,186.5,143.4,184.1,148.4z M111.2,303.2c0.7-0.2,0.9-0.6,0.8-1.1c-0.1-0.3-0.3-0.7-0.5-1
		c-2.2-3.3-3.7-6.9-5.1-10.6c-0.2-0.5-0.2-1.1-0.9-1.4c-0.1,0.3-0.2,0.5-0.2,0.7c0,1.5-0.1,3-0.1,4.5c0,0.2,0,0.4,0.1,0.6
		c0,0.1,0.1,0.2,0.1,0.3c0.5,0.7,1,1.3,1.5,2c0.8,1.2,1.5,2.3,2.4,3.5C109.9,301.5,110.4,302.5,111.2,303.2z M327.1,203.4
		c-2.8,1.6-5.5,3.2-8.3,4.8c0.5,0.8,1.1,1.4,1.9,1.1c2.9-0.8,5.9-1.4,8-3.8c0.2-0.2,0.2-0.5,0.3-0.8
		C328.3,204.3,327.7,203.9,327.1,203.4z M146.9,332.9c-3.8-1.8-6.8-4.3-10.5-5.7c-1.7-0.6-3.2-1.5-4.2-3c-0.3-0.4-0.7-0.8-0.8-1
		c-1.5,0.2-2.8,0.3-4,0.4c0.1,1.4,0.5,1.7,3.4,3c0.1-0.3,0.1-0.7,0.3-1c0.4-0.4,0.8-0.2,1.3,0.1c0.2,0.1,0.5,0.3,0.7,0.5
		c3.6,2.6,7.7,4.6,11.8,6.5C145.3,332.8,145.8,333.3,146.9,332.9z M154.1,135c0.8,0.2,1.3-0.2,1.8-0.5c5.9-3.2,11.7-6.6,17.8-9.3
		c0.3-0.1,0.4-0.4,0.9-1c-1.4,0.2-2.4,0-3.4,0.5c-2.7,1.5-5.4,2.9-8.1,4.4c-1.9,1-3.7,2.2-5.5,3.2C156.4,133,155.1,133.7,154.1,135z
		 M141.7,217.6c-2,3-3.4,5.9-4.8,8.8c0.5,0.3,0.8,0.5,1.3,0.8c-0.7,0.7-1.2,1.1-1.7,1.6c0.7,0.4,1.2,0.7,1.8,1.1
		c0.6-1.2,1.2-2.3,1.7-3.4c0.4-0.8,0.6-1.4,0.2-2.4c-0.5-1.1-0.1-1.7,1.1-2.1c0.3-0.1,0.6-0.1,0.8-0.2c0.5-0.3,0.9-1.1,0.7-1.7
		C142.5,219.4,142.2,218.6,141.7,217.6z M159.8,139.7c-1.4,0-2.5,0.5-3,1.4c-0.9,1.7-2.4,2.8-3.6,4.2c-0.5,0.6-0.9,1.2-1.2,1.9
		c-0.5,1.3-0.8,2.7-1.1,4c-0.1,0.3-0.3,0.7,0.5,0.8C154.2,148,157,143.9,159.8,139.7z M237.2,129.6c1.8-0.1,3.5-0.2,5.3-0.4
		c0.6-0.1,1.3-0.3,1.8-0.6c1-0.6,2-1.4,3-2.1c0.4-0.3,0.8-0.5,0.7-1.1c-1.4,0-2.8,0-4.1,0c-0.5,0-1.1,0.1-1.6,0.4
		C240.5,126.8,238.8,127.9,237.2,129.6z M225,220c3.2,3.3,8.2,5.3,12.3,5.1c-1.4-1.2-2.7-2.3-4-3.3c-0.4-0.3-0.8-0.4-1.3-0.5
		C229.8,220.8,227.5,220.4,225,220z M110.1,307.8c-2.1-2.9-4.3-5.6-5.7-8.8c-0.6-1.3-1-2.6-1-4c0-1.6-0.2-3.2-0.4-4.7
		c0-0.1-0.1-0.1-0.2-0.3c-0.3,2.2-0.6,4.3-0.7,6.4c-0.1,1.2-0.2,2.7,1.5,3.2c0.3,0.1,0.5,0.6,0.6,0.9c0.3,3.1,2.3,5.2,4.3,7.3
		C108.9,308.2,109.4,308.3,110.1,307.8z M168.2,154.4c-1.3,2.2-2.7,4.1-3.4,6.4c0.6,0.3,1.1,0.6,1.6,0.8c0.1,0.1,0.4,0,0.6-0.1
		c1.3-1.2,2.7-2.5,4.1-3.8c0.3-0.3,0.8-0.6,0.5-1.4C170.7,155.9,169.6,155.2,168.2,154.4z M129.2,224.6c0.4-0.3,0.7-0.5,0.9-0.8
		c1.5-3.5,3-7,4.5-10.5c0-0.1,0.1-0.2,0.1-0.3c0.1-0.5-0.1-0.9-0.6-1.1c-0.5-0.2-0.9-0.1-1.2,0.4c-0.6,1.4-1.2,2.7-1.8,4.1
		c-1.2,2.3-1.6,4.8-2.1,7.2C128.9,223.9,129.1,224.1,129.2,224.6z M423.4,266.7c0.3,1.1,1.8,4.7,2.3,5.3c0.2,0.2,0.4,0.4,0.6,0.5
		c1.1,0.5,2.3,0.7,3.4,0.3c0.1-0.2,0.1-0.3,0.1-0.4c-0.1-0.4-0.2-0.9-0.4-1.3C428.4,268.4,426.6,267,423.4,266.7z M395.3,198.8
		c0.3-0.2,0.5-0.2,0.6-0.3c0.6-2.1,1-4.2,0.5-6.3c-0.7-2.9-1.3-5.8-1.9-8.8c-0.1-0.5-0.4-1-0.6-1.5
		C394,187.5,394.6,193.1,395.3,198.8z M371.5,273.5c0.9,0.8,1.6,1.5,2.8,1.5c1.2,0,2.4-0.1,3.5-0.8c1.1-0.8,2.4-1.5,3.6-2.2
		c0.3-0.2,0.5-0.4,0.9-0.9c-1.5,0.3-2.8,0.8-4,0.8c-1.3-0.1-2.7-0.6-4.1-1C373.1,271.7,372.3,272.6,371.5,273.5z M381.5,203
		c2.4-1.7,3.1-4,4-6.2c0.1-0.1-0.1-0.3-0.1-0.6c-0.6-0.2-1.3-0.3-2.2-0.6c-0.1,1.3-0.8,2.1-1.7,2.7c-0.9,0.6-1.4,1.7-2.2,2.6
		C380,201.7,380.7,202.3,381.5,203z M217,164.1c1.3-0.7,2.6-0.7,3.7-1.6c-0.2-1.3-1.2-1.5-2.1-1.6c-2-0.4-4-0.8-6.1-1.2
		c-0.2,0-0.5,0.1-0.9,0.2C212.9,162,214.8,163.1,217,164.1z M461.3,345c1.9-1,3-1.9,3.4-3c1.3-3.8,2.1-7.7,2.3-11.8
		c-0.3,0.1-0.5,0.1-0.6,0.3c-0.8,1.5-1.5,3-2.2,4.5c1.3,1.9,0.9,3.6-0.1,5.3c-0.7,1.1-1.4,2.2-2.1,3.3
		C461.7,344,461.2,344.4,461.3,345z M153.1,181.3c-0.4,0.5-0.6,0.6-0.7,0.7c-0.6,1.2-1.1,2.3-1.7,3.5c-1.3,2.8-1.3,2.9,1.7,3.7
		c0.1,0,0.2,0,0.4-0.1c0.7-0.9,1.6-1.9,1.4-3.3C153.9,184.4,153.5,183,153.1,181.3z M170.3,325.7c-1.5-0.6-2.9-1.2-4.3-1.8
		c-0.3-0.1-0.6,0-1,0c2.3,4,4.5,6.9,6,7.8C171.3,329.8,170.5,327.9,170.3,325.7z M180.5,333.1c0.3-0.4,0.7-0.8,1-1.3
		c0.4-0.5,0.6-1,1-1.7c-2-1.4-3.2-3.4-5.5-4.6c-0.2,1.6,0.5,2.7,0.6,4C177.9,331.3,178.8,332.4,180.5,333.1z M263.4,128.3
		c3.2,0.5,8,0.5,9.1,0.1c0.1,0,0.2-0.3,0.3-0.7c-1.1-0.9-2.3-1.7-3.7-2.2c-0.6-0.3-1.3-0.2-1.8,0.2
		C266.1,126.5,265,127.2,263.4,128.3z M296.5,220.1c0.8,0.5,1.4,1,2.1,1.4c2.5-1.1,5.1-1.8,7.4-3.1c-0.4-0.9-1-1.2-1.6-1.1
		C301.7,217.7,298.9,218,296.5,220.1z M249.6,225.5c-1.3-1.4-2.7-1.7-4.2-1.9c-1.5-0.3-2.9-0.7-4.9-0.8c1.8,1.7,3.4,2.8,5,3.9
		c0.9,0.6,1.9,0.6,2.8-0.1C248.7,226.2,249,225.9,249.6,225.5z M374.9,336c-0.2,0.2-0.5,0.3-0.7,0.5c-3.4,3.7-6.7,7.3-10.1,11
		c-0.1,0.1-0.1,0.2-0.1,0.3c0,0.1,0.1,0.1,0.3,0.4c0.4-0.2,0.9-0.4,1.3-0.8c1.2-1.2,2.6-2.2,3.5-3.6c1-1.5,2.6-2.4,3.8-3.7
		C373.9,338.9,374.7,337.6,374.9,336z M389.3,167.4c0-0.6,0.1-0.8,0-0.9c-1.5-2.7-3.7-4.9-5.7-7.2c-0.2-0.2-0.7-0.2-1-0.2
		c-0.2,0-0.3,0.4-0.4,0.7c-0.1,1,0,1.8,0.8,2.5C385.1,163.9,387,165.6,389.3,167.4z M321.7,133.9c-0.1-0.1-0.2-0.3-0.4-0.4
		c-2.9-1.1-5.9-1.5-8.9-2.1c-0.8-0.1-0.9,0-1.9,1.2c0.1,0.1,0.3,0.3,0.4,0.3c2.7,0.6,5.5,1.1,8.2,1.7
		C320.1,134.8,320.9,134.5,321.7,133.9z M370.6,372.6c4.7-1.1,9-2.2,13.4-3.4c0.1-0.5,0.3-0.8,0.3-1.2c0-0.2,0-0.3-0.1-0.5
		c-1.9,0.4-11.7,3.6-13.2,4.3C370.9,371.8,370.9,372.1,370.6,372.6z M157.6,318c-0.6-1.1-4.5-6.8-5-7.2c-0.7-0.6-1.5-1-2.7-0.8
		c1.6,2.6,3.5,4.8,5.2,7C155.7,317.7,156.6,317.8,157.6,318z M243.3,288c-2.4-0.5-4.7-0.9-7.1-1.4c-2.4-0.5-4.7-1.1-7.1-1.5
		c-2.4-0.4-4.6-1.4-7.6-1.6c0.8,0.5,1.1,0.8,1.4,0.8c5.4,1.3,10.9,2.7,16.3,4C240.6,288.6,242,288.7,243.3,288z M375.9,269
		c0.3,0.7,0.8,0.8,1.4,0.6c2.7-0.9,4.2-2.7,5.2-6.7C379.8,264.7,377.5,266.4,375.9,269z M245.6,267.9c0.4,0.2,0.7,0.4,0.9,0.5
		c2.1,1,4.2,2,6.3,3c1,0.5,2.2,0.3,3.3,0.1c-0.8-1.6-1.2-2-2.8-2.4c-2.3-0.5-4.5-1-6.8-1.4C246.4,267.6,246.2,267.8,245.6,267.9z
		 M312.9,266.4c0.7,0.3,0.9,0.5,1.1,0.6c2.3,0.3,4.5-0.2,6.5-1.3c1.1-0.7,2.2-1.4,3.3-2.1c0.3-0.2,0.4-0.5,0.7-0.8
		c-2.3-0.7-4,0-5.4,1.6c-0.5,0.6-1.1,1-1.5,1.5C316.1,266,314.7,265.7,312.9,266.4z M398.3,216.8c-0.2-3.5-0.4-6.8-0.6-10
		c0-0.1-0.1-0.2-0.1-0.2c-0.1,0-0.2,0-0.3,0c-0.7,1-1.3,2.2-1.2,3.6c0,1.8,0.1,3.5,0.1,5.2C396.9,215.9,397.5,216.3,398.3,216.8z
		 M115.7,299c-1.2,1.6-1.2,2.9-0.3,4.2c1.1,1.7,2.3,3.4,3.5,5.1c0.1,0.1,0.3,0.1,0.7,0.1c0.2-0.6,0.3-1.1,0.5-1.8
		c-0.7-0.2-1.2-0.3-1.7-0.5c-0.1-1,0.1-2-0.2-2.8C117.6,301.9,116.7,300.6,115.7,299z M162,325.9c0.7,1.8,2.8,4.7,4.8,6.6
		c0.4-0.3,0.8-0.6,1.3-0.9c-1.5-2.1-3-4.1-4.4-6c-0.5,0.1-0.9,0.1-1.3,0.2C162.3,325.7,162.2,325.8,162,325.9z M177.7,189.8
		c-0.9,0.4-1.5,0.6-2,1c-0.9,0.6-1.1,1.5-0.5,2.4s1.5,1.3,2.5,1.6c0.8-1,1.6-1.9,2-3.2C179.1,191,178.5,190.4,177.7,189.8z
		 M170.1,151.1c1.5,1,2.7,1.8,4.3,2.3c0.6-0.8,1.2-1.5,1.8-2.4c-0.7-0.4-1.2-0.8-1.7-1.1c-0.6-0.4-1.3-0.7-1.9-1
		c-0.7,0.5-1.3,0.9-1.9,1.3C170.5,150.4,170.4,150.7,170.1,151.1z M267.6,266.5c-2.8-3.5-4.9-4.7-9.5-3.5c0.5,0.7,1.2,0.9,1.9,0.9
		c0.8,0,1.7-0.2,2.5-0.1c0.4,0,0.8,0.3,1.2,0.4c-0.3,0.6-0.5,1.1-0.7,1.5C264.4,266.8,265.9,266.3,267.6,266.5z M438.2,347.8
		c1.9-1.6,3.9-3.2,5.8-4.8c0.7-0.6,1.3-1.4,1.6-2.6C442.2,341.2,440.5,343.2,438.2,347.8z M176.1,130.3c-0.4,0.9-0.6,1.7-1,2.6
		c2-0.8,3.8-1.6,5.6-2.3c1.1-0.4,1.7-1.3,2.3-2.6C180.4,128.4,178.4,129.5,176.1,130.3z M175.2,243.8c1.4,1.3,2.9,2.1,4.3,3
		c0.4,0.2,0.7,0.2,0.9-0.3c-0.4-0.7-1.1-1.3-1.2-2.1c-0.2-1.6-1.3-2.3-2.5-3.2C176.2,242.2,175.8,242.9,175.2,243.8z M157.9,207.3
		c-0.6,1-1.2,1.9-1.7,2.8c-0.2,0.4-0.2,0.8-0.3,1.4c1,0.3,1.9,0.5,2.8,0.7c0.9-0.8,1.3-1.7,1.6-2.6
		C159.4,208.1,159.4,208.1,157.9,207.3z M401,238.8c0.4,0.1,0.8,0.2,1.2,0.3c0.3-3.1,0.2-11.4-0.2-13.4c-0.3,0.4-0.7,0.7-0.6,0.9
		c0,0.9,0.1,1.9,0.3,2.8c0.3,1.4,0.3,2.7-0.1,4.1C401,235.1,400.5,236.9,401,238.8z M205,169.7c1-0.5,1.6-1.2,2.6-1.3
		c0.8-0.1,1.7-0.4,2.3-1.5c-1.5-0.4-2.9-0.7-4.1-1c-1,0.9-2,1.6-2.4,2.9C203.9,169.1,204.4,169.4,205,169.7z M326.2,361.9
		c3.6,0.8,7,0.4,10.4-0.9c0.3-0.1,0.6-0.4,1.2-0.9C333.5,359.9,329.9,361.2,326.2,361.9z M172.6,202.6c-0.5-0.5-0.9-1.1-1.5-1.6
		c-0.2-0.2-0.5-0.3-0.9-0.5c-0.7,1.3-1.4,2.6-2,3.9c-0.3,0.6,0.4,1.3,1.1,1.2C171,205.4,172.1,204.3,172.6,202.6z M259.6,140.6
		c2.5,1.3,4.7,2.5,7,3.6c0.7,0.4,1.6,0.3,2.7-0.1c-2.8-1.6-5.4-2.8-8-4.1c-0.2-0.1-0.4-0.1-0.5-0.1
		C260.4,140.1,260.2,140.3,259.6,140.6z M96.1,327c-1.7-1.9-7-6.1-9.4-7.4c-0.1,0-0.3,0.1-0.4,0.2C87.8,322.3,93.3,326.4,96.1,327z
		 M183.6,152.8c-1.5,1.2-3.4,1.7-3.9,3.7c1.5,1.1,1.6,1.2,2.6,0.3c1.1-0.9,2.2-1.6,3.2-2.9C184.9,153.5,184.3,153.2,183.6,152.8z
		 M265.1,160c-2.4-1.7-5-2.8-7.6-3.9c-0.5-0.2-1.1-0.1-1.2,0.8c0.7,0.4,1.4,0.8,2.1,1.2c1.6,0.8,3.1,1.7,4.7,2.4
		C263.8,160.9,264.4,160.9,265.1,160z M339.9,349.5c2.5,1.7,6,2.1,7.9-0.1c-1.9-0.3-3.7-0.5-5.5-0.8
		C341.3,348.4,340.6,348.9,339.9,349.5z M447.4,284.8c-0.1,0.1-0.2,0.2-0.4,0.3c0.1,0.3,0.1,0.6,0.2,0.8c1.8,2.4,3.5,4.8,5.3,7.3
		c0,0.1,0.2,0.1,0.3,0.1c0.1,0,0.1-0.1,0.3-0.2c0-1.5-0.5-2.9-1.6-4C450.2,287.5,448.8,286.1,447.4,284.8z M138.3,182.8
		c1.1,1.3,1.1,1.3,2.5,1.8c1.5-2.1,1.5-2.4-0.3-5.7C139.5,180.1,139,181.4,138.3,182.8z M279.9,378.8c-3.7-1.8-7.6-1.4-11.5-1.2
		C272.1,378.5,276,379,279.9,378.8z M461.7,307.3c-0.7,2.6-1.9,4.8-1.1,7.5c0.5-0.3,1.2-0.5,1.3-0.9c0.5-1.4,0.8-2.9,1-4.3
		C463,308.9,462.8,308,461.7,307.3z M203.7,196.1c-1.2-0.9-2.1-1.8-3.2-2.5c-0.6-0.4-1.2-0.3-1.7,0.3s-1.1,1.2-1.1,2.4
		c0.7-0.5,1.2-0.8,1.7-1.1c0.3-0.1,0.6-0.1,1.2-0.1c-0.3,0.8-0.5,1.4-0.7,1.9C202.5,197.4,202.5,197.4,203.7,196.1z M259.7,286.9
		c6,1.3,8.6,1.5,10.9,0.9c-0.3-0.3-0.4-0.7-0.7-0.8c-0.6-0.2-1.3-0.3-1.9-0.4c-2.5,0-5,0-7.5,0C260.3,286.7,260.1,286.8,259.7,286.9
		z M441.2,279.2c-2.6-3.7-6.2-6.5-8.2-6.9c0.1,1.2,0.6,2.1,1.8,2.6c2.2,0.9,3.9,2.4,5.7,3.9C440.7,279,441,279.1,441.2,279.2z
		 M423.6,276c-0.1-0.2-0.3-0.5-0.3-0.7c-0.4-3-2.1-5.5-3.3-8.2c-0.2-0.4-0.5-0.8-1.2-0.1C420.5,270,420.9,273.6,423.6,276z
		 M237.8,209.7c-0.6,0.7-1.1,1.3-1.7,1.9c1.7,1.8,3.8,1.6,6.1,1.9C241,211.6,239.4,210.8,237.8,209.7z M299.8,136.8
		c1.1,1.1,2.5,1.5,3.8,2.3c1,0.6,2,0.5,3.2-0.3c-1.3-0.8-2.4-1.4-3.4-2.1C302.1,135.8,301,135.8,299.8,136.8z M157.2,323.6
		c-0.3-1.2-1.1-1.9-1.5-2.8c-0.9-1.5-2.3-2-4.3-2.2c1.2,1.7,2.1,3,3.2,4.2C155.2,323.6,156.1,323.7,157.2,323.6z M159.2,244.4
		c0.9-1.3,1.5-2.3,2.1-3.4c0.1-0.1,0-0.3,0-0.7c-0.5-0.3-1.1-0.7-1.8-1.2c-0.3,0.3-0.6,0.6-0.8,0.9c-0.5,0.9-1,1.7-1.6,2.7
		C157.9,243.3,158.4,243.8,159.2,244.4z M288.7,181.3c-2.3-0.9-4-2.2-6.8-1.9c1.6,1.5,3,2.6,4.5,3.7
		C287.2,182.6,287.7,182.1,288.7,181.3z M440.6,288.7c-0.7-2.1-1.5-4.2-2.2-6.3c-0.4-1.1-1.2-1.8-2.5-2.3
		C436.5,283.7,438.8,286.1,440.6,288.7z M77.5,263.3c-0.1,0-0.2,0-0.3,0c-1.7,1.7-2.9,3.8-4.1,5.9c-0.1,0.2,0.1,0.6,0.3,1.2
		c1.3-1.3,2.4-2.3,3.4-3.4C77.7,266.1,77.8,265.3,77.5,263.3z M217.3,278.1c-0.6-0.6-0.9-1.3-1.4-1.4c-2-0.7-4.1-1.3-6.1-1.8
		c-0.3-0.1-0.6,0.4-1,0.7C210.8,276.8,214.2,277.8,217.3,278.1z M119.1,211.9c0.2-2.6,0.6-5,0.7-7.4s0.9-4.8,0.6-7.4
		c-0.3,0.4-0.6,0.6-0.7,0.8C119.1,202.5,118.5,207.1,119.1,211.9z M100,286.7c-1.1,3.8-1.3,8.1-0.4,11.8c0.3-3,0.7-5.8,1-8.7
		C100.6,288.8,100.8,287.8,100,286.7z M190.6,235.6c1.2,0.8,2.1,1.5,3.1,2c0.3,0.2,0.9,0.1,1.3-0.1c0.5-0.3,0.6-0.9,0.3-1.5
		c-0.7-1.3-1.8-2.1-3.4-2.2C191.5,234.3,191.2,234.8,190.6,235.6z M146.5,323.4c0.1,0.4,0.2,0.7,0.3,0.9c1.3,1.8,3.1,3.2,5,4.4
		c0.2,0.1,0.6,0,1.3,0c-1.5-1.7-2.7-3-3.9-4.4C148.5,323.7,147.6,323.5,146.5,323.4z M335.9,220.8c1.2,1.3,1.5,1.4,2.2,0.5
		c1.1-1.4,2.1-2.8,3.1-4.2c0.1-0.1,0-0.3,0-0.5c-0.2-0.1-0.4-0.2-0.5-0.2C339,217.7,337.5,219.3,335.9,220.8z M315.8,144.2
		c-1.6-1.2-3.2-2.1-4.8-3c-0.8-0.4-1.6-0.4-2.3,0.6c1.7,1,3.4,2,5.1,2.9C314.4,145.1,315,145.1,315.8,144.2z M292.1,268.4
		c1.8,1.2,3.2,2.7,5.6,1.7c0.1-0.4,0.2-1,0.3-1.5C295.7,267.3,295.5,267.3,292.1,268.4z M286.6,144.2c-1.5-1.1-9.4-4.9-11.8-5.7
		c-0.1,0-0.2,0.2-0.3,0.3c1.6,1.1,10,5.1,11.3,5.5C285.9,144.4,286.2,144.3,286.6,144.2z M181.1,147.6c0.6-0.9,1.1-1.6,1.4-2.3
		c0.3-0.6,0.2-1.2-0.6-1.7c-0.7,0.3-1.5,0.6-2.2,1s-1.5,0.5-2,1.4C178.9,146.6,179.9,147,181.1,147.6z M211,216.8
		c-2.3-0.7-4.5-1.4-6.8-2.1c-0.1,0-0.2,0-0.3,0c-0.2,0.1-0.4,0.2-0.5,0.3c0,0.2,0,0.6,0.2,0.7c1,0.5,2,0.8,3,1.3
		C208.1,217.7,209.5,217.7,211,216.8z M236,120.9c-2.5-0.4-5-0.5-7.4-0.2c-1.1,0.1-2,0.6-2.9,1.7C229.3,122.1,232.6,121.6,236,120.9
		z M90.9,257.6c-0.5,0-0.9-0.1-1,0.1c-1.8,2-3.5,4.1-5.2,6.2c-0.2,0.2,0,0.7,0,1.1c0.3-0.1,0.6,0,0.7-0.2
		C87.2,262.5,89.1,260.2,90.9,257.6z M186,279c-0.3-0.3-0.5-0.5-0.8-0.7c-2-1-4-2-6-3c-0.2-0.1-0.5-0.3-0.8-0.3
		c-0.3,0.1-0.6,0.4-1,0.7c2.9,1.2,5.3,2.9,8.2,3.6C185.6,279.4,185.8,279.2,186,279z M205.1,381.6c3.4,1.3,6.9,2.3,10.5,3
		c0.1,0,0.2-0.2,0.4-0.3C214.3,383,209.9,381.8,205.1,381.6z M272.2,239.6c-1.9-1.4-3.4-2.4-5.2-3.1c-0.9,0.6-1.8,1-2.1,2
		c1.2,1.2,1.5-0.8,2.6-0.6C268.5,239.3,269.6,240.6,272.2,239.6z M461.8,321.2c-1.1,2-2.1,4-2.6,6.1c-0.1,0.4,0.1,0.8,0.2,1.7
		C461.3,326.4,462.7,324.2,461.8,321.2z M307.6,192.7c0.6-0.5,1.1-1,1.5-1.4c0,0,0-0.2-0.1-0.4c-1-0.7-2.1-1.5-3.4-2
		c-0.7,0.5-1.4,0.8-1.5,1.7C305.3,191.3,306.4,191.9,307.6,192.7z M82.5,266.7c-0.3,0-0.5,0-0.6,0.1c-1.4,1.8-2.7,3.5-4,5.3
		c-0.2,0.2,0,0.6,0,1.3c1-0.9,1.6-1.9,2.4-2.3C82.3,270.2,82.5,268.5,82.5,266.7z M309.3,394.9c-5.5,0-11,0-16.5,0
		C298.3,395.2,303.8,395.6,309.3,394.9z M323.6,141.2c-1.1-0.7-2.1-1.5-3.1-2c-0.7-0.4-1.5-0.6-2.3-0.8c-0.4-0.1-0.9,0.1-0.9,0.9
		c1.4,0.8,3,1.7,4.5,2.6C322.4,142.1,322.9,142,323.6,141.2z M278.5,253.1c1,0.4,1.5,0.9,2,0.8c1.7-0.1,3.4-0.4,5.2-0.6
		c-0.4-1-0.9-1.4-1.7-1.4C282.3,251.9,280.7,252.2,278.5,253.1z M164.7,201.5c0.8-1.4,1.4-2.6,2.2-4c-0.8-0.3-1.4-0.5-2.1-0.7
		c-0.7,0.9-1.4,1.8-2.2,2.7C163.4,200.2,163.9,200.8,164.7,201.5z M94.5,264.4c1.2,0.4,0.8,1.5,1.8,1.6c0.9-1.4,1.8-2.7,2.7-4.2
		c0.2-0.3,0.1-0.8,0.1-1.7C97.5,261.7,96.2,262.9,94.5,264.4z M283.8,128.3c1.4-0.6,1.4-0.5,2.4-1.8c-1.8-0.2-3.5-0.5-5.2-0.7
		c-0.3,0-0.6,0.4-1.3,0.7C281.3,127.3,282.6,127.8,283.8,128.3z M192.4,196.6c0.2-0.1,0.3-0.3,0.5-0.4c-0.9-1.3-1.8-2.5-2.7-3.8
		c-0.6-0.9-1.5-1-2.5-0.9c-0.2,0-0.4,0.4-0.6,0.7C188.7,193.9,190.7,195.1,192.4,196.6z M285.5,135.2c-1,0.7-2.1,1.2-3.2,2.4
		c0.7,0.4,1.3,0.7,1.6,0.9c1.6-0.6,3-1.1,4.4-1.6C287.6,135.9,286.6,135.7,285.5,135.2z M147.4,207c0.2,1.1,1,1.6,1.7,2
		c0.9-0.5,1.6-1.1,1.4-2c-0.2-0.9-0.3-2-1.5-2.5C148.1,205.1,147.9,206.1,147.4,207z M282.2,191.4c1.8,0.8,3.2,0.9,5.9,0.4
		c-1.6-1.3-1.8-1.4-4.2-2.1C283.4,190.3,282.8,190.8,282.2,191.4z M208.7,206.6c1.3,0.2,2.4,0.9,3.8,0.7c-0.5-0.7-1-1.3-1.4-1.9
		c-0.1-0.2,0-0.5,0.1-0.9c0.7,0.5,1.3,0.9,1.9,1.3c0.3-1.3,0-1.6-2-2.4c-0.7,0.8-1.5,1.6-2.3,2.4
		C208.8,205.9,208.9,206.1,208.7,206.6z M372.5,158.5c-0.2,0.3-0.4,0.5-0.3,0.6c0.5,1.2,3.8,4.4,5.4,5.3c0.1-1.5,0.2-1.6-0.3-2
		C375.6,161,374.2,159.6,372.5,158.5z M390.3,269c-1.8,0.6-6.1,3.5-7.5,5C387.4,272.3,389,271.2,390.3,269z M260.9,179.2
		c-1.6-0.8-2.7-1.4-3.9-2.1c-0.5,0.4-1,0.8-1.7,1.2c0.8,0.9,1.6,1.4,2.5,1.9c0.3,0.2,0.9,0.2,1.3,0
		C259.6,180.1,260.1,179.7,260.9,179.2z M242.1,157.5c-2.5-1.5-4.7-2.6-7-3.5c-0.3-0.1-0.7-0.2-0.8,0.4c1.9,1.5,5.6,3.5,6.7,3.7
		C241.2,158,241.4,157.8,242.1,157.5z M324.8,279.7c2.4,0.2,4.7-0.2,6.9-0.6c0.2,0,0.3-0.4,0.5-0.7C329.5,277.8,327,278,324.8,279.7
		z M362,384.4c3-0.5,6-0.9,9.2-2.5C367.6,382,364.7,382.7,362,384.4z M393.8,202.7c-0.2-2.1-0.4-3.8-0.6-5.6c0,0-0.1,0-0.4-0.1
		c-0.5,1.8-1.1,3.6-1,5.7C392.5,202.7,393,202.7,393.8,202.7z M249.6,240.8c-3-1-6.2-1-9.3-1.4c-0.2,0-0.5,0.2-0.7,0.2
		c0.1,0.2,0.2,0.5,0.3,0.5C243.1,241,246.3,240.6,249.6,240.8z M91.5,288.9c2.1-2.2,1.4-5.2,2.9-7.6c-0.5-0.1-0.9-0.1-1.3-0.2
		c-0.6,2.4-1.2,4.6-1.7,6.9C91.2,288.2,91.4,288.5,91.5,288.9z M372.8,237.3c0.1,0.1,0.2,0.2,0.2,0.2c2.3-1.3,4.2-3,6.7-4.7
		C375.9,232.7,374.5,235.2,372.8,237.3z M367.4,211.1c1-1.2,2-2,2.3-3.4c-0.5-0.3-0.8-0.5-1.2-0.8c-0.1,0-0.2,0-0.4,0
		c-0.7,0.9-1.8,1.7-2.3,3C366.3,210.4,366.8,210.7,367.4,211.1z M220.6,122.2c-0.3-0.4-0.6-0.8-0.9-1.3c-1.8,1-3.6,1.5-5.2,3.1
		C219.5,123.3,219.2,123.6,220.6,122.2z M300.2,129.2c0.5,1.1,1.5,1.3,2.2,1.8c1.5,1.1,2.7,0.7,4.1-0.5
		C304.4,129.8,302.5,129.2,300.2,129.2z M136.4,186.5c0,2.6,0.2,3.4,1.2,4.7c0.7-1,1.3-2,1.5-3.3
		C138.3,187.5,137.5,187.1,136.4,186.5z M127.4,179.8c2.9-2.8,3.4-4.2,2.2-6.1C127.8,176.5,127.5,177.3,127.4,179.8z M64.8,268.6
		c0.6-1.4,1.3-2.6,1.5-4.6c-1,1.1-1.7,1.9-2.4,2.6c-0.7,0.8-1.5,1.5-2.4,2.5C62.8,269.5,63.7,269,64.8,268.6z M157.1,177.9
		c1.3,0.7,1.4,0.7,1.9,0.3c1.1-0.8,1.5-2.1,2.1-3.3c0.2-0.4,0.2-0.9-0.4-1.1c-0.2,0.2-0.5,0.3-0.6,0.5
		C159.1,175.5,158.1,176.6,157.1,177.9z M250.7,167.9c-3.3-2.1-3.4-2.2-5.5-1.8c1.4,1.4,2.9,2.1,4.5,2.6
		C249.9,168.8,250.2,168.3,250.7,167.9z M234.6,167.2c1.1,1.2,2.1,1.5,3.2,1.4c0.7,0,1.3-0.3,1.2-1.4c-0.9-0.5-1.8-1-2.8-1.6
		C235.7,166.3,235.2,166.7,234.6,167.2z M204,165.7c-1.4-0.8-2.5-1.1-3.5,0c-0.3,0.3-0.5,0.7-0.9,1.2c0.9,0.5,1.6,0.8,2.3,1.2
		C202.6,167.2,203.2,166.5,204,165.7z M69.4,300c0.4-0.5,0.7-0.8,0.9-1.2c0.2-0.7,0.1-2.8-0.3-4.3c-0.4,1.3-0.6,2.3-1,3.2
		c-0.6,1.4-0.3,2.7,0.4,4c0.1,0.2,0.4,0.2,1,0.6C70,301.3,69.8,300.7,69.4,300z M144.4,234.2c1-1.3,1.7-2.7,2.2-4.1
		c-0.7-0.7-1.1-1.5-2.1-1.1c0.2,0.5,0.4,0.9,0.6,1.4c-0.7,0.9-1.3,1.8-2.1,2.9C143.5,233.5,143.9,233.8,144.4,234.2z M214.9,156
		c2,0.9,3.9,1.3,5.7,1c-1.5-1-2.9-1.8-4.6-2.3C215.6,155.1,215.2,155.5,214.9,156z M418.9,300.6c-0.3,2.2-0.2,3.7-0.2,5.3
		c0,0.9,0.1,1.9,0.1,2.8c0,0.1,0.3,0.3,0.4,0.3c0.2-0.1,0.6-0.2,0.6-0.3c0.1-0.3,0.2-0.7,0.1-1.1
		C419.9,305.4,419.5,303.3,418.9,300.6z M251.8,136.7c1.8,0.9,3,1.5,4.3,2.1c0.6,0.3,1.1,0.2,1.5-0.5c-1.3-1-2.8-1.7-4.4-2.2
		C252.9,136,252.5,136.3,251.8,136.7z M80.2,263.3c1.5-1.5,2.7-2.5,3.5-4.3c-1.4,0.3-2.5,0.6-3.5,0.8
		C80.2,260.9,80.2,261.8,80.2,263.3z M69.7,326.5c0.1-0.1,0.3-0.3,0.4-0.4c-1.6-1.8-3.3-3.5-4.9-5.3c-0.3-0.3-0.6-0.3-0.9,0.3
		C66,322.9,67.8,324.8,69.7,326.5z M406.4,377c3.4,0.2,6.8-0.8,8.2-2.5C411.8,375.3,409.2,375.8,406.4,377z M135.4,166.1
		c-0.3-0.2-0.4-0.4-0.7-0.5s-0.6-0.2-1-0.3c-0.8,1.5-1.9,2.8-0.6,4.6C134.1,168.7,134.8,167.4,135.4,166.1z M144.2,198.7
		c0.9,0.3,1.5,0.5,2.1,0.7c1.3-1.5,0.6-2.8-0.2-4.3C145.1,196.1,144.8,197.3,144.2,198.7z M355.1,170.2c-2.4-2.1-3.6-2.6-5.6-2.5
		c1.7,1.2,2.9,2.3,4.5,3C354.2,170.9,354.6,170.5,355.1,170.2z M345.5,136.7c1.9,1.2,3.3,2.4,5.5,1
		C349.3,137,347.9,135.5,345.5,136.7z M415.1,353.7c0-0.9,0.1-1.7,0.1-2.8c-1.7,1-2.8,2.3-4.3,3.9c1.2-0.3,2-0.4,2.8-0.6
		C414.3,354.1,414.7,353.9,415.1,353.7z M297.6,369.7c-3.1-0.3-9.6-0.3-11.3,0C290.2,370.5,293.9,369.9,297.6,369.7z M293.7,162.6
		c-2-0.6-3.1-2.1-5-2c0,0.3,0,0.6,0.1,0.7c1,0.9,2.1,1.8,3.3,2.6C292.5,163.5,292.8,163.3,293.7,162.6z M293.3,185.4
		c0.1-0.7,0.2-1.3,0.2-2c-0.6-0.2-1.1-0.4-1.7-0.6c-0.6,0.7-1.6,1-1.8,2.1C291.1,185.8,292.2,185.4,293.3,185.4z M395.4,234.1
		c0-1.2,0-2.2-0.6-3c-1.5,1.8-2,3-2.1,4.8C393.7,235.3,394.5,234.7,395.4,234.1z M261.5,303.8c-3,0.1-5.6,0.2-8.2,0.3
		c-0.7,0-1.3,0.1-2,0.1c-0.1,0-0.2,0.1-0.2,0.1c0,0.1,0.1,0.1,0.1,0.3C254.6,304.8,257.9,304.8,261.5,303.8z M171.2,237
		c-0.7,1.1-1.2,2-1.8,3c0.6,0.4,1,0.6,1.5,1c0.8-1,1.6-1.7,1.8-2.9C172.3,237.8,171.9,237.5,171.2,237z M84,251.6
		c-0.1-0.2-0.3-0.3-0.4-0.4c-0.8,0.7-1.7,1.4-2.5,2.1c-1.7,1.3-1.7,1.3-2,2.2C81.5,255.1,82.8,253.4,84,251.6z M362.6,152.6
		c0.6-0.9,0.2-1.4-0.4-1.8c-1.3-0.8-2.7-1.6-4.1-2.4c-0.2-0.1-0.5,0-1.3,0C359,150,360.8,151.3,362.6,152.6z M453.8,346.2
		c1.9-1.4,2.7-3.4,3.9-5c0.1-0.2,0-0.5,0-0.7c-0.9-0.2-1.2,0.5-1.5,1C454.8,343.3,454.2,344.4,453.8,346.2z M152.7,325.2
		c0.7,1.3,1.7,2.1,2.5,3.1c0.5,0.6,1.1,1.2,1.8,1.8c0.2,0.2,0.7,0.3,0.8-0.2C155.3,326.6,154.5,325.9,152.7,325.2z M156.2,177
		c1.3-1.6,2.5-2.9,3.7-4.4c-0.6-0.3-1.1-0.6-1.5-0.8C156.8,174.2,156.6,174.6,156.2,177z M348.1,230.2c0.4,0.1,0.6,0.3,0.7,0.2
		c1.3-0.7,3.5-2.8,4.7-4.6C351.1,226.9,349.3,228,348.1,230.2z M208.8,233c1.2,1.2,2.5,1.8,3.6,2.5c0.4,0.3,0.8,0.7,1.6,0.5
		c-0.9-1-1.7-2-2.6-2.8C210.7,232.6,209.9,232.5,208.8,233z M75.8,284.6c-0.3,0.3-0.6,0.5-0.6,0.7c-0.4,2.1-1,4.2-1.1,6.7
		c0.7-1.3,2-5.3,2.1-6.3C76.1,285.4,75.9,285.1,75.8,284.6z M149.9,224.2c0.6-0.7,1.2-1.3,1.7-1.9c0,0,0-0.2-0.1-0.4
		c-0.4-0.3-1-0.8-1.7-1.3c-0.4,0.7-0.8,1.2-1.2,1.8C149,222.9,149.4,223.5,149.9,224.2z M373.1,345c2-0.3,2.2-0.3,3.4-1.1
		c0.7-0.5,1.2-1.1,1.8-1.7c0.2-0.3,0.7-0.6,0.1-1.2C376.7,342.3,375.1,343.5,373.1,345z M150.1,307.5c-0.2-1-0.8-1.4-1.5-1.7
		c-0.9-0.3-1.6-1.1-2.8-0.9C146.7,306.6,147.7,308,150.1,307.5z M390.1,210.4c1.6-1.1,2.1-2.4,2.4-3.8c0.1-0.7-0.3-1-1.5-1.1
		C390.5,206.9,390,208.4,390.1,210.4z M230.3,258c1.9,2.2,3.8,1.6,5.6,1.3C234.3,258.4,232.5,258.2,230.3,258z M245.3,263.6
		c2.1,0.4,4.1,0.8,6.2,1.1c0.1,0,0.2-0.1,0.2-0.1s0-0.1,0-0.2C249.9,262.5,247.6,263,245.3,263.6z M161.9,330.5
		c-0.6-1.6-2-4-2.9-4.5c-0.4-0.3-1-0.2-1.9-0.4C158.7,327.6,160,329.2,161.9,330.5z M98,317.7c0,0.7,0.1,1.4,0,2.1
		c-0.2,0.7-0.6,1.3-0.9,1.9c0.5,0.9,1.1,1.4,2.2,1.4C98.8,321.2,98.6,319.4,98,317.7z M299.9,152c1.5,0.8,2.7,1.5,4,2.1
		c0.5,0.2,1.1,0.1,1-1c-1.1-0.6-2.4-1.2-3.6-1.7C301.1,151.2,300.6,151.6,299.9,152z M228.8,156c-1.5-1.1-2.8-1.9-4.3-2.4
		c-0.4-0.1-0.9-0.4-1.2,0.4c1.4,1,3,1.9,4.6,2.6C228,156.7,228.4,156.3,228.8,156z M198.9,135.4c0.2,0.4,0.3,0.7,0.5,0.9
		s0.5,0.4,0.9,0.6c1-1,1.9-1.7,2.7-3.2C201.3,134.1,200.2,134.5,198.9,135.4z M232.4,265.9c-2-1.6-4.1-2.2-7.2-1.9
		C227.8,264.8,229.9,265.6,232.4,265.9z M166.5,149.3c1-0.7,2.3-1,3-2.6c-0.7,0-1.3-0.2-1.7,0c-0.8,0.4-1.6,0.9-2.3,1.4
		c-0.1,0.1-0.1,0.3-0.1,0.6C165.6,148.9,166,149.1,166.5,149.3z M445.8,337.1c1.8-0.3,3-0.8,3.7-2.4c-0.5-0.4-0.8-0.8-1.3-1.2
		C447.3,334.7,446.4,335.7,445.8,337.1z M317.6,170.1c0.6,0.9,1.3,1.3,2.2,1.2c0.4,0,0.8-0.4,1.3-0.6c-0.4-0.4-0.5-0.7-0.8-1
		c-0.4-0.3-0.9-0.6-1.4-0.9c-0.4,0.3-0.7,0.5-1,0.7C317.8,169.6,317.8,169.8,317.6,170.1z M398.5,229c-2.4,0.9-2.5,1.1-1.6,3.7
		C398.8,232,398.4,230.4,398.5,229z M459.4,306.4c1.2-2.9,1.1-3.4-0.7-5C458.9,303.1,458,304.8,459.4,306.4z M300,162.2
		c1.4,0.8,2.8,1.7,4.2,2.5c0.3,0.2,0.7,0.2,1,0.3c-1.2-1.4-2.6-2.5-4-3.5C300.7,161.1,300.2,161.4,300,162.2z M115.8,308.4
		c-0.6-1.5-1.2-2.9-2.3-4c-0.7,0.7-0.8,0.8-0.6,1.1C113.8,306.5,114.8,307.4,115.8,308.4z M419.8,334.3c-1.5,0.8-2.1,1.8-2.6,2.9
		c-0.1,0.3,0,0.8,0,1.3C419.1,337.8,419.4,336.2,419.8,334.3z M141.9,322.5c1.9,3.8,2,3.9,4,3.7C144.7,325,144,323.4,141.9,322.5z
		 M78.6,279c-0.9,0.6-1.5,1.4-1.9,2.4c0.7,0.4,1.4,0.7,2,1C79.3,280.9,79.3,280.9,78.6,279z M230.2,158.1c1.9,0.7,3.2,2.3,5.6,1.9
		c-1.7-1.2-3.1-2.3-4.9-2.6C230.7,157.4,230.6,157.6,230.2,158.1z M202.4,147.4c-1.6-0.3-1.8-0.2-4.2,2.3c1.2-0.1,2.1-0.3,3-0.4
		C201.7,148.6,202,148,202.4,147.4z M51.3,263.2c0.3-0.2,0.6-0.2,0.7-0.4c0.8-1.2,1.6-2.5,2.4-3.7c0.1-0.2,0.1-0.6,0.2-1.2
		C52.2,260.3,51.7,261.2,51.3,263.2z M195.9,255.3c-1.8-0.8-3.6-1.5-5.4-2.3c-0.1-0.1-0.3,0.1-0.7,0.1
		C191.5,254.9,193.7,255.3,195.9,255.3z M140.6,236.9c-0.4,1-0.7,1.6-1,2.4c0.6,0.4,1.2,0.7,1.8,1c0.4-0.8,0.7-1.4,1.1-2.1
		C141.9,237.8,141.4,237.4,140.6,236.9z M205.2,239.1c0-1-0.8-0.8-1.2-1c-0.6-0.3-1.2-0.5-1.8-0.7c-0.5-0.1-1-0.1-1.7-0.2
		C201.7,239.6,203.5,239,205.2,239.1z M214.9,154c-1-0.5-1.6-0.8-2.4-1.2c-0.3,1-0.5,1.8-0.8,2.7C213.3,156.2,213.8,155,214.9,154z
		 M158.4,321.4c0.5,0.7,0.9,1.4,1.4,1.9c0.3,0.3,0.8,0.4,1.2,0.4c0.3,0,0.6-0.3,0.8-0.5c0.1-0.1-0.1-0.5-0.2-0.7
		C160.8,321.7,159.7,321.5,158.4,321.4z M373.4,148.4c0-0.8,0.1-1.1,0-1.3c-0.8-1.1-1.8-2-3.1-2.6c-0.1-0.1-0.4,0.1-0.5,0.2
		c-0.1,0.1-0.1,0.4-0.1,0.5C370.8,146.2,371.9,147.1,373.4,148.4z M401.2,383.3c1.7,0.3,3.3,0.4,5.1-0.5
		C404.3,381.5,402.8,382.8,401.2,383.3z M360.7,273.1c2.4,0.2,4-0.2,5.4-1.3c0.1-0.1,0.1-0.4,0.2-0.9
		C364.4,271.5,362.7,272,360.7,273.1z M402.1,254c0.3-1.5,0.3-2.9,0-4.7c-0.4,0.6-0.8,0.9-0.9,1.3c-0.1,0.5,0,1.1,0,1.6
		c-0.1,0.6-0.2,1.2-0.4,1.9C401.4,254,401.8,254,402.1,254z M449.3,302.7c-0.2,2.4,0.3,4.2,1.5,5.5
		C451.1,306.6,450.6,304.8,449.3,302.7z M269.1,150.1c-2-2.1-3.9-1.8-6.1-1.7C264.9,149.4,266.7,149.5,269.1,150.1z M105.3,327.6
		c0.1-1.6-0.4-2.6-1.1-3.5c-0.1-0.1-0.3-0.1-0.5-0.2c-0.5,0.8-0.7,1.5-0.3,2.5C103.9,326.7,104.4,327.1,105.3,327.6z M258.8,270.4
		c0.8,0.6,1.1,1.1,1.5,1.2c1.4,0.2,2.9,0.3,4.7-0.1C263,270.3,261.2,270.4,258.8,270.4z M362.2,205.5c0.9-0.5,1.5-1.3,1.8-2.2
		c-1-0.8-1.4-0.8-2.3,0.2C361.2,204.1,361.2,204.2,362.2,205.5z M236.8,126.1c-2.2-0.5-2.2-0.5-4.3,0.2c0.6,0.6,1.2,1,1.8,1.6
		C235.2,127.4,236.1,127,236.8,126.1z M77.7,253.6c1.6-1.1,3-1.9,3.9-3.3C78.8,250.4,78.8,250.4,77.7,253.6z M165.2,235.2
		c-0.9-0.7-1.6-1.3-2.4-2c-0.3,0.6-0.6,1.1-0.8,1.5c1.9,1.7,1.9,1.7,2.5,1.4C164.7,236,164.9,235.7,165.2,235.2z M90,271.9
		c-0.9,2.4-1,3.2-0.4,6.2C89.5,276.1,90.3,274.2,90,271.9z M326.8,246c0.6,0.5,1.1,0.9,1.7,1.4c0.6-0.8,1.1-1.4,1.6-2
		C328.6,244.4,328.6,244.4,326.8,246z M143.1,192.8c-1.6,1.8-2.1,3-2.1,4.5C142.4,196.4,143.4,194.2,143.1,192.8z M165.3,286.4
		c0.9,1.2,2.2,0.8,3.1,1.3c0.3,0.1,0.7,0,1-0.1c0.1,0,0.2-0.3,0.4-0.6C168.4,286.7,167.1,285.7,165.3,286.4z M167.3,250.5
		c2.2-2.6,2.4-3,2.4-4.7C168.4,247,167.3,248.2,167.3,250.5z M66.3,284.8c-1.5-0.4-1.6-0.4-2,0c-0.5,0.4-0.6,0.9-0.5,1.5
		c0,0.3,0.1,0.8,0.6,0.4s0.9-0.6,1.5-0.7C66.5,286,66.5,285.4,66.3,284.8z M326.3,176.6c2,2.1,3,2.1,3.5,0
		C328.7,176.4,327.5,176.4,326.3,176.6z M56.7,258.2c0.1,0.1,0.2,0.1,0.3,0.2c1-1.2,2.1-2.3,3.4-3.8c-1.2,0.3-1.9,0.5-2.6,0.7
		C57.4,256.4,57,257.3,56.7,258.2z M316.2,166.6c-2-1.3-2-1.3-3.3-0.1c0.5,0.4,1.1,0.8,1.6,1.2c0.4-0.2,0.6-0.3,0.9-0.5
		C315.6,167.1,315.8,167,316.2,166.6z M164.4,155.3c-1.7,0.7-2.3,1.5-2.6,3.8C163.4,158.2,163.7,156.6,164.4,155.3z M64.8,296.4
		c0.7-3,0.7-3,0.2-4.8c-0.4,1.3-0.9,2.3-1.1,3.3C63.9,295.2,64.4,295.6,64.8,296.4z M142.1,317.5c0.7,1.1,1.3,2.3,2.1,3.3
		c0.3,0.5,0.9,0.6,1.5,0C144.8,319.4,143.6,318.3,142.1,317.5z M265.3,214c-2.1-1.8-3.2-2.5-5-3C261.8,212.6,263.8,213.9,265.3,214z
		 M313.4,177.1c-1-0.5-1.7-0.9-2.5-1.1c-0.4-0.1-0.8,0.4-1.4,0.7c0.9,0.8,1.7,1.1,2.6,1.2C312.5,178,312.8,177.5,313.4,177.1z
		 M104.7,259.7c-0.1-0.1-0.3-0.3-0.4-0.4c-0.9,1-1.8,2.1-2.7,3.1c-0.1,0.1,0,0.4,0.1,0.5c0.2,0.1,0.6,0.2,0.7,0.1
		C103.3,262,104.1,260.9,104.7,259.7z M156.4,248.3c-0.7-0.4-1.2-0.8-1.8-1.2c-0.4,0.6-0.6,1.1-0.9,1.5
		C155.2,250,155.2,250,156.4,248.3z M167.9,244.7c-0.4,0-0.8-0.2-1-0.1c-0.8,0.8-1.3,1.9-1.8,3.1
		C166.7,247.4,166.8,247.2,167.9,244.7z M337.6,158c-1.3-1-2-1.9-3.4-1.7c0.2,1.3,1,1.8,2,2.2C336.4,158.5,336.8,158.2,337.6,158z
		 M247.5,160.1c-0.8-0.5-1.4-1.2-2.4-1.1c-0.3,0-0.5,0.4-0.8,0.6C246.3,161.1,246.3,161.1,247.5,160.1z M150,179.5
		c-0.8,1.3-2,2.3-1.9,4.2C149.6,182.1,149.8,181.6,150,179.5z M321.5,188.2c0.6,0.5,1.2,1.1,1.9,1.6c0.6,0.3,1.3,0.4,1.6-0.6
		C323.9,188.6,322.9,187.9,321.5,188.2z M283.2,396.6c-1.5-0.2-2.9-0.4-4.4-0.6c-0.5-0.1-0.6,0.2-0.5,0.8
		C279.9,397.1,281.5,397,283.2,396.6z M50.8,273.6c-0.2-2.4-0.1-2.4,0.9-5.1c0-0.1-0.2-0.2-0.3-0.3c-1.1,0.9-1.4,2.1-1.2,3.5
		C50.2,272.3,49.9,273.1,50.8,273.6z M291.8,202.6c3,0.5,3,0.5,4-1.3C294.3,201.9,292.9,201.3,291.8,202.6z M169.1,228.4
		c1-0.6,1.5-1.1,1.2-1.8c-0.2-0.5-0.2-1.3-1.2-1.2C169.1,226.4,169.1,227.3,169.1,228.4z M187.8,150.6c0.6-0.1,1.3,0,1.8-0.3
		c0.6-0.4,1.3-1,1.1-2.1C189.5,148.8,188.5,149.3,187.8,150.6z M293.9,148.5c1.1,0.9,1.9,1.4,2.8,1.6c0.3,0.1,0.6-0.2,1.2-0.3
		C296.7,148.8,295.7,148.3,293.9,148.5z M333.1,179c0.6,2.1,1.6,2.8,3.7,2.8C335.6,180.8,334.6,180.1,333.1,179z M334.7,195.4
		c0.2,0.8,0.9,0.9,1.6,0.8c0.7-0.1,1-0.7,1.1-1.4C335.9,194.5,335.9,194.5,334.7,195.4z M263.7,183.5c1.3,0.2,1.3,0.2,2.8-1.2
		C265.2,181.5,265.2,181.6,263.7,183.5z M152.5,199.2c-0.4,0.7-0.7,1-0.7,1.4c0,0.3,0.2,0.7,0.5,0.9c0.5,0.4,1.1,0.6,1.9,0.2
		C153.8,200.9,153.3,200.3,152.5,199.2z M285.3,212.6c1.6,1.7,1.7,1.7,4.1,0.6C288,213,286.7,212.8,285.3,212.6z M163.8,164.9
		c-0.8-0.8-1.1-0.9-1.4-0.4c-0.3,0.5-0.9,1-0.7,1.7c0.4,0.5,0.9,0.8,1.3,0.2C163.4,165.9,163.6,165.4,163.8,164.9z M371.5,223.9
		c1.2-0.2,2.2-0.4,2.9-1.4c-0.4-0.3-0.7-0.6-1.1-0.9c-0.4,0.5-0.8,0.8-1,1.2C372,223.1,371.8,223.5,371.5,223.9z M183.7,224
		c-1.8-1.6-1.8-1.6-3.6-1.7C180.9,224,182.5,223.7,183.7,224z M277.9,205.8c-1.4,0-2.3,0-3.4,0C276,207.4,276,207.4,277.9,205.8z
		 M190.4,174.2c0.2,1.7,0.5,2.2,1.7,2.4c0.4,0.1,0.9-0.1,0.8-0.9C192.2,175.2,191.3,174.7,190.4,174.2z M415.6,378.6
		c-1.5,0-2.7,0.5-4,1.3C413.5,380.5,414.6,379.8,415.6,378.6z M191.6,221c0.7,1,1.4,1.6,2.3,1.9c0.2,0.1,0.6-0.1,0.7-0.3
		c0.1-0.2,0-0.6-0.1-0.7C193.7,221.4,192.9,220.9,191.6,221z M383.2,223.8c0.9-1.7,0.9-1.7,0.5-2.9c-0.6,0.6-1.2,1.2-1.8,1.8
		C382.5,223.2,382.8,223.5,383.2,223.8z M174.4,204.1c-0.6,0.8-1,1.3-1.4,2c-0.1,0.2,0.1,0.6,0.2,0.9c0.2-0.1,0.6-0.1,0.7-0.2
		c0.4-0.5,0.8-1,1-1.6C175,205,174.7,204.6,174.4,204.1z M338,251.8c-1.7,0.6-1.7,0.6-3,1.9C336.5,253.8,337.4,253.2,338,251.8z
		 M448.8,348.9c-1.9,1-1.9,1-2.4,2.4C448.8,349.9,448.8,349.9,448.8,348.9z M446.2,291.3c-0.7-1.6-1.3-2.5-2.8-3.5
		C444.1,289.3,444.1,290.6,446.2,291.3z M193.3,295c-1-1.1-2.1-1-3.1-1.3c-0.3-0.1-0.8-0.1-0.7,0.8
		C190.6,294.6,191.7,295.1,193.3,295z M255.1,233.8c0,0.2-0.1,0.3-0.1,0.5c0.4,0.2,0.7,0.6,1.1,0.6c0.9,0,1.7-0.2,2.5-1.1
		C257.2,233.8,256.1,233.8,255.1,233.8z M352.1,199c0.7-0.6,1.5-1.2,2.3-1.8c-0.9-0.1-1.7,0-2.5,0.2
		C351.1,197.6,351.1,198.1,352.1,199z M258.1,144.2c-0.6-0.8-1.3-1.2-2.2-1.1c-0.7,0.1-1.3,0.4-1.7,1.4
		C255.6,144.4,256.8,144.7,258.1,144.2z M275.2,132.7c-1.1-0.2-2.2-0.2-3.3,0C273.7,134,273.7,134,275.2,132.7z M271.9,164.9
		c1,1.1,2,1.5,3.6,1.2C274.3,165.4,273.6,164.2,271.9,164.9z M88.1,312.7c-0.4,0.8-0.6,1.3-0.9,2c0.6,0.4,1.1,0.8,1.7,1.2
		C89.1,314.7,89.3,313.7,88.1,312.7z M244.4,369.2c-1.3-0.3-2.6-0.5-3.9,0C241.8,369.2,243.1,369.2,244.4,369.2z M420.2,260.3
		c0.2,2.2,0.6,2.5,2.6,1.9C421.8,261.5,421,261,420.2,260.3z M105.1,251.8c-1.2-0.1-1.2-0.1-2.8,1.5
		C103.5,253.4,103.5,253.4,105.1,251.8z M162.8,184.6c-1.5,1-1.5,1-2,2.7C161.7,186.5,162.6,185.8,162.8,184.6z M321.9,162
		c-1.5-1-1.5-1-2.6-0.1C320.6,162.9,320.6,162.9,321.9,162z M386.8,267.9c0.8,0.4,1.3-0.2,1.8-0.5c0.7-0.3,0.8-1,0.5-1.9
		C388.2,266.4,387.4,267,386.8,267.9z M117.3,295.9c-0.2,0.5-0.5,0.9-0.5,1.3s0.4,0.8,0.7,1.2c0.2,0.2,0.8,0,0.9-0.4
		C118.5,297.1,118.2,296.4,117.3,295.9z M376.7,218c0.5,0.3,0.8,0.5,0.9,0.5c0.9-0.4,1.3-1,1.6-2.4
		C378.4,216.7,377.6,217.3,376.7,218z M121.5,309.8c-0.7,1.6-0.7,1.6,0.8,2.6C122.8,311.4,122.4,310.7,121.5,309.8z M363.8,214.1
		c-0.3-0.8-0.7-1-1.3-0.6c-0.4,0.4-0.9,0.8-1,1.7C362.4,214.8,363.1,214.5,363.8,214.1z M163.6,217.8c-0.5-0.4-0.7-0.7-1-0.7
		c-0.6-0.2-1.1,0-1.3,0.7c-0.1,0.4,0.3,1,0.8,0.9C162.4,218.5,162.9,218.2,163.6,217.8z M397,243.7c0.9-0.1,1.4-0.1,1.5-0.2
		c0.2-0.6,0.3-1.2,0.4-1.9c0-0.1-0.2-0.2-0.4-0.4C398,242,397.7,242.6,397,243.7z M276.9,189.2c1.5,1.2,1.5,1.2,2.3,0.1
		C278.4,188.8,277.7,188.9,276.9,189.2z M169.5,333c-0.2,0.1-0.3,0.2-0.5,0.3c0.3,0.6,0.5,1.3,0.9,1.8s0.9,0.5,1.2-0.6
		C170.6,334.1,170,333.5,169.5,333z M446.4,294.6c-0.2,1.4,0.1,2.3,1.5,3.1C447.9,296.2,447.7,295.3,446.4,294.6z M94.7,274.2
		c0.2,0.1,0.3,0.2,0.5,0.2c0.4-0.7,0.9-1.3,1.2-2.1c0.1-0.1-0.1-0.6-0.3-0.7c-0.1-0.1-0.6,0.1-0.6,0.2
		C95.2,272.7,94.9,273.4,94.7,274.2z M289.1,128.8c0.9,1,1.1,0.9,2.4-0.5C290.5,127.7,289.8,128.4,289.1,128.8z M370.7,164.3
		c-0.1,0.1-0.3,0.3-0.4,0.4c0.6,0.5,1.3,1.1,1.9,1.6c0-0.1,0.1-0.1,0.1-0.2C371.8,165.5,371.2,164.9,370.7,164.3z M367.8,247.3
		c1.8-0.4,1.8-0.5,2.4-2.1C369.2,246.1,368.5,246.7,367.8,247.3z M375.2,196c-0.4-0.2-0.8-0.5-1.2-0.6c-0.2-0.1-0.7,0.1-0.7,0.2
		c-0.1,0.3,0,0.7,0.1,0.9C374.1,197.1,374.4,197,375.2,196z M81.9,310.1c0.3,1.2,1,1.5,1.6,1.9c0.1,0.1,0.5,0,0.7,0
		c-0.1-0.2,0-0.6-0.2-0.7C83.5,310.9,82.9,310.6,81.9,310.1z M314.1,257.7c0.9-0.2,1.6-0.3,2.5-0.5C315.1,256,315.1,256,314.1,257.7
		z M404.1,266.9c-1.1,0.9-1.9,1.5-2.8,2.2c1.1,0.5,1.8,0.1,2.4-0.5C403.9,268.3,403.9,267.8,404.1,266.9z M217.9,258
		c-2.1-1.4-2.1-1.4-3.5-1.2C215.2,257.7,216.2,258,217.9,258z M300.9,206.4c-0.9,0-1.8,0-2.8,0C299.5,207.7,299.6,207.7,300.9,206.4
		z M196.6,230.8c-0.1,0.2-0.2,0.3-0.2,0.5c0.3,0.2,0.6,0.6,1,0.7c0.4,0.1,0.9,0,1.2-0.2s-0.2-0.7-1-0.8
		C197.3,230.9,197,230.9,196.6,230.8z M306.5,174.5c-0.7-0.3-1.3-1-2.2-0.6c0.5,0.7,0.9,1.3,1.7,1.2
		C306.1,175,306.3,174.7,306.5,174.5z M324.9,135.8c1.6,0.8,1.6,0.8,2.7,0.7C326.9,135.9,326.3,135.1,324.9,135.8z M410,255.5
		c-0.6-0.5-1.2-1-2-0.6c1.1,1.8,1.1,1.8,1.7,1.5C409.8,256.1,409.9,255.8,410,255.5z M94.6,254.2c-2.2-0.2-2.2-0.2-2.9,0.9
		C92.7,255.3,93.5,255.1,94.6,254.2z M147.7,212.6c-0.8-0.3-1.4-0.6-2-0.8c-0.3-0.1-0.8-0.1-0.8,0.4c0,0.2,0.2,0.5,0.4,0.6
		C146,213,146.6,213.7,147.7,212.6z M159.9,154.1c1.8-1.3,1.8-1.4,2-2.9C160.8,152,160.8,152,159.9,154.1z M385.8,211.1
		c-0.6,1.4-0.6,1.4,0.2,2.1C386.3,212.4,386.8,211.7,385.8,211.1z M82,289.1c0-1.8,0-1.8-1.2-2.8C80.8,287.5,81.4,288.2,82,289.1z
		 M174.7,249.9c0.1-0.2,0.1-0.4,0.2-0.6c-0.5-0.3-1-0.7-1.6-0.9c-0.2-0.1-0.5,0.4-0.7,0.6c-0.1,0.1,0,0.3,0.1,0.6
		C173.3,249.7,174,249.8,174.7,249.9z M359.7,174.3c0-1.3-0.9-1.9-2.2-1.5C357.9,173.7,358.8,174,359.7,174.3z M155.7,196.8
		c-0.1,0.1-0.4,0.2-0.4,0.3c-0.1,0.8,0.6,1.7,1.4,1.8c0.1,0,0.4-0.2,0.4-0.3C157.2,197.8,156.5,196.9,155.7,196.8z M119.3,223.7
		c-0.5,2.1-0.5,2.1,0,3.7C119.3,226.3,119.3,225.3,119.3,223.7z M173.4,259.9c-0.3-0.6-0.7-1-1.2-1.1c-0.3-0.1-0.6,0.1-1,0.2
		c0.1,0.2,0.1,0.6,0.3,0.7c0.4,0.3,0.8,0.5,1.2,0.6C172.9,260.3,173.2,260.1,173.4,259.9z M232.6,208.9c0.7-0.9,1.1-1.4,1.5-1.9
		c-1.3,0-1.3,0-2.6,0.9C231.8,208.2,232.1,208.4,232.6,208.9z M126.6,243.1c-0.9,0.6-1,1.5-0.9,2.5
		C126,244.8,126.3,243.9,126.6,243.1z M107.2,252.5c1.3-0.7,2.1-1.1,3.2-1.8C108.9,250.8,107.8,250.5,107.2,252.5z M96.4,254.3
		c1.6-0.7,1.6-0.7,2.1-1.7C97.4,252.2,97.3,253.2,96.4,254.3z M167.7,225.1c-1.3,1.8-1.3,1.8,0,2.5
		C167.7,226.9,167.7,226.2,167.7,225.1z M328.1,144.6c-0.9-1.4-1.1-1.4-1.9-0.4C326.8,144.7,327.4,145.2,328.1,144.6z M195.8,146.7
		c1.4-0.4,2.2-0.7,2.6-1.7C196.9,144.4,196.7,145.5,195.8,146.7z M156,161.7c-0.1-0.1-0.2-0.3-0.4-0.4c-0.5,0.4-1.1,0.9-1.6,1.3
		c0.3,0.7,0.7,0.9,1.2,0.4C155.6,162.7,155.8,162.2,156,161.7z M158.7,164.9c0.4-0.6,0.8-1.2,1.2-1.8c0.1-0.1,0-0.3-0.1-0.7
		C158.8,162.9,158.4,163.7,158.7,164.9z M151.6,168.5c1.5-1.5,1.5-1.7,0-2.2C151.6,167,151.6,167.7,151.6,168.5z M143.8,177.6
		c0.7-1.9,0.7-1.9-0.7-2.2c0.1,0.4,0.2,0.7,0.3,1.1C143.5,176.8,143.6,177.1,143.8,177.6z M358.6,201.4c0.1,0.1,0.3,0.2,0.4,0.4
		c0.5-0.4,0.9-0.8,1.4-1.2c0.1-0.1,0-0.4-0.1-0.4c-0.1-0.1-0.4-0.2-0.5-0.1C359.4,200.4,359,200.9,358.6,201.4z M274.9,213.9
		c0.7,0.5,1.5,0.5,2.3,0.1C275.6,212.9,275.6,212.9,274.9,213.9z M174,239.5c-0.1-0.1-0.3-0.2-0.4-0.4c-0.4,0.6-0.8,1.2-1.2,1.8
		c-0.2,0.3-0.3,0.7,0.4,0.8C173.2,241,173.6,240.3,174,239.5z M377.4,204.2c-0.5-0.1-1,0.5-0.8,0.7c0.3,0.3,0.7,0.6,1,0.8
		c0.1,0.1,0.4-0.1,0.5-0.2c0.1-0.2,0.1-0.5,0-0.7C377.8,204.5,377.5,204.3,377.4,204.2z M234.4,179.1c0.1-1,0.1-1-2-1.4
		C233.3,178.3,233.8,178.7,234.4,179.1z M367.5,154.5c0.7,1.3,0.7,1.3,2.1,1.7C368.6,155.4,368.1,154.9,367.5,154.5z M395.3,266.8
		c0.8,0.4,1.1-0.2,1.5-0.6c0.1-0.1,0-0.6-0.1-0.7s-0.6-0.2-0.7,0C395.7,265.9,395.5,266.4,395.3,266.8z M162.8,189
		c1-0.2,1.6-0.7,1.4-1.9C163.6,187.9,163.2,188.5,162.8,189z M147.2,260.4c-0.4,0.6-0.7,1.1-1,1.6
		C147.1,261.9,147.6,261.5,147.2,260.4z M137.3,245.5c0.3-0.4,0.6-0.7,0.9-1.1c0.2-0.3,0.3-0.7-0.1-0.8c-0.1-0.1-0.5,0.2-0.6,0.4
		C137.2,244.3,137.2,244.6,137.3,245.5z M353.3,347.2c-1.4-0.7-1.4-0.7-1.7,0.9C352.3,348.2,352.9,347.9,353.3,347.2z M211.5,143.3
		c0.1-0.3,0.2-0.5,0.2-0.5c-0.5-0.4-1-1-2.1-0.5C210.3,142.7,210.9,143,211.5,143.3z M60,288.7c0.1,0,0.2,0,0.3,0c0-0.7,0-1.3,0-2
		c-0.1,0-0.2,0-0.3,0C60,287.4,60,288.1,60,288.7z M155.1,170.6c0.9-1.1,0.9-1.1,0.8-2.2C155.4,169.1,154.8,169.6,155.1,170.6z
		 M193.9,141.5c0.3-0.2,0.5-0.3,0.6-0.4c0.3-0.3,0.2-0.7-0.2-0.8c-0.3-0.1-0.6-0.1-0.9-0.1c0.1,0.2,0.1,0.5,0.2,0.7
		C193.6,141.1,193.8,141.3,193.9,141.5z M168.8,256.4c-0.3,0.3-0.6,0.4-0.7,0.6c-0.2,0.3,0.2,0.9,0.7,0.9c0.2,0,0.6-0.3,0.6-0.4
		C169.2,257.2,169,256.8,168.8,256.4z M224.7,140.7c0.4,0.7,1,1.1,1.8,0.6C226.1,140.4,225.5,140.2,224.7,140.7z M346.3,184
		c-0.8-1.1-0.8-1.1-1.9-1.2C344.9,183.6,345.5,184,346.3,184z M307.2,296c0,0,0,0.1-0.1,0.1c0.5,0,0.9,0,1.4,0V296
		C308.1,296,307.6,296,307.2,296z M340.2,196c-0.4-0.2-0.6-0.4-0.8-0.4c-0.2,0-0.5,0.2-0.6,0.4s0,0.5,0,0.7c0,0.1,0.4,0.1,0.5,0.1
		C339.6,196.6,339.8,196.4,340.2,196z M108.8,254.8c-1.8,0.1-1.8,0.1-1.5,1.6C107.7,255.9,108.1,255.6,108.8,254.8z M181.9,195.6
		c-1.1-1.6-1.1-1.6-2-0.2C180.5,195.5,181,195.5,181.9,195.6z M47.4,304c0.3,0.8,0.7,1.2,1.5,1.6C48.7,304.8,48.5,304.2,47.4,304z
		 M152.7,266.2c-0.1,0.2-0.2,0.4-0.3,0.6c0.5,0.3,1,0.7,2.1,0.5C153.7,266.8,153.2,266.5,152.7,266.2z M257.7,353.1
		c0,0.1-0.1,0.2-0.1,0.3c0.2,0.1,0.4,0.3,0.6,0.4c0.1,0.1,0.3,0,0.5,0c-0.1-0.2-0.1-0.5-0.3-0.6
		C258.2,353.1,257.9,353.1,257.7,353.1z M302,397.3c0.3,0.2,0.5,0.4,0.7,0.5c0.1,0.1,0.3,0,0.5,0c-0.1-0.1-0.1-0.4-0.2-0.4
		C302.7,397.3,302.5,397.3,302,397.3z M135.4,207.6c-0.1,0.1-0.3,0.3-0.3,0.5c-0.1,0.6,0.4,0.8,0.8,0.8c0.2,0,0.4-0.3,0.6-0.4
		c-0.2-0.3-0.4-0.5-0.6-0.7C135.8,207.6,135.6,207.6,135.4,207.6z M451.1,359.4c0.1,0.1,0.2,0.2,0.3,0.4c0.4-0.3,0.7-0.7,1.1-1
		c-0.1-0.1-0.2-0.2-0.2-0.3C451.8,358.8,451.5,359.1,451.1,359.4z M358.9,379.4c0-0.1,0-0.1,0-0.2c-0.6,0-1.2,0-1.8,0
		c0,0.1,0,0.1,0,0.2C357.7,379.4,358.3,379.4,358.9,379.4z M219,379.9C219,379.9,219,379.8,219,379.9c-0.4-0.1-0.8-0.1-1.2-0.1
		c0,0,0,0,0,0.1C218.2,379.9,218.6,379.9,219,379.9z M315.6,277.8c0,0.1,0,0.3,0,0.4c0.5,0,0.9,0,1.4,0c0.2,0,0.3-0.3,0.4-0.5
		c-0.1-0.1-0.3-0.2-0.4-0.2C316.5,277.5,316.1,277.7,315.6,277.8z M273.2,389.5v-0.1c-0.5,0-1,0-1.5,0c0,0.1,0,0.1,0,0.1
		C272.2,389.5,272.7,389.5,273.2,389.5z M315.1,210.7c-0.1-0.1-0.2-0.3-0.4-0.4c-0.4,0.3-0.9,0.5-1.6,0.9c0.6,0,0.9,0.1,1.1,0
		C314.6,211.1,314.8,210.8,315.1,210.7z M262.3,132.6c0.6,0.4,0.9,0.7,1.2,0.8c0.2,0.1,0.4-0.1,0.7-0.2c-0.1-0.2-0.2-0.5-0.4-0.6
		C263.3,132.6,263,132.6,262.3,132.6z M143.7,202.4c-0.1,0.1-0.1,0.2-0.2,0.4c0.1,0.2,0.2,0.5,0.4,0.6s0.4,0.1,0.7,0.1
		c0-0.2,0.1-0.6,0-0.7C144.4,202.6,144,202.5,143.7,202.4z M308.7,252.4c0-0.1,0.1-0.2,0.1-0.3c-0.3-0.2-0.7-0.5-1-0.7
		c-0.1,0-0.4,0.1-0.4,0.2c0,0.1,0,0.4,0.1,0.5C307.9,252.2,308.3,252.3,308.7,252.4z M139.3,266.4c0.4-0.6,1-0.9,0.6-1.6
		C139.1,265,139,265.5,139.3,266.4z M366.6,161.2c0.1-0.1,0.2-0.2,0.3-0.4c-0.2-0.1-0.5-0.2-0.7-0.3c-0.1,0-0.2-0.1-0.2-0.1
		c0,0.1-0.1,0.3,0,0.4C366.1,161,366.4,161.1,366.6,161.2z M289.7,269.5c-0.5-0.3-0.9-0.6-1.3-0.8c-0.1-0.1-0.3,0.1-0.5,0.2
		c0.1,0.1,0.1,0.3,0.2,0.4C288.6,269.5,289,270,289.7,269.5z M214.3,379.2C214.3,379.3,214.3,379.3,214.3,379.2
		c0.3,0.1,0.6,0.1,0.9,0.1v-0.1C214.9,379.2,214.6,379.2,214.3,379.2z M341.5,160.6c-0.5-0.5-0.7-0.7-1-0.8c-0.2-0.1-0.4,0-0.7,0.1
		c0.1,0.2,0.2,0.5,0.4,0.6C340.5,160.6,340.7,160.6,341.5,160.6z M177.9,152.1c0.1,0.1,0.3,0.2,0.4,0.2c0.2-0.4,0.4-0.7,0.6-1.1
		c0-0.1-0.1-0.3-0.2-0.4c-0.1,0.1-0.3,0.1-0.4,0.2C178.1,151.4,178,151.8,177.9,152.1z M170.7,296.1c-0.1,0.3-0.3,0.6-0.2,0.7
		c0.1,0.2,0.4,0.3,0.6,0.4c0.1-0.2,0.4-0.5,0.3-0.6C171.4,296.4,171,296.3,170.7,296.1z M232.6,368.6L232.6,368.6
		c-0.2-0.1-0.5-0.1-0.7-0.1c0,0,0,0,0,0.1C232.1,368.6,232.4,368.6,232.6,368.6z M373.8,188.6c-0.3-0.3-0.5-0.5-0.7-0.6
		c-0.2,0-0.4,0.2-0.5,0.4c0.2,0.2,0.3,0.4,0.5,0.5C373.2,188.9,373.4,188.7,373.8,188.6z M282.4,265.4c-0.3,0-0.5,0-0.8,0
		c0,0,0,0.2,0,0.4c0.2,0,0.3,0.1,0.5,0C282.2,265.7,282.2,265.6,282.4,265.4z M332.1,146.9c-0.1-0.1-0.2-0.3-0.4-0.3
		c-0.1,0-0.3,0.1-0.4,0.2c0.1,0.1,0.2,0.3,0.4,0.3C331.8,147.1,332,147,332.1,146.9z M373,201.8c0.3,0.2,0.4,0.5,0.6,0.5
		s0.4-0.2,0.6-0.3c-0.1-0.2-0.3-0.5-0.4-0.5C373.6,201.4,373.3,201.7,373,201.8z M154.6,240.5c0.2-0.2,0.4-0.4,0.5-0.6
		c0.1-0.1,0-0.3-0.1-0.4c-0.1,0-0.2,0-0.2,0.1C154.4,239.8,154.2,240.1,154.6,240.5z M217.9,199.7c-0.1,0.2-0.1,0.3-0.2,0.5
		c0.4,0.1,0.8,0.3,1.1,0.4c0-0.1,0.1-0.2,0.1-0.3C218.6,200,218.2,199.8,217.9,199.7z M136.5,268.7c-0.4-0.4-0.5-0.7-0.8-0.8
		c-0.2-0.1-0.5,0-0.7,0c0.1,0.2,0.1,0.5,0.3,0.6C135.6,268.6,135.9,268.6,136.5,268.7z M38.7,286c-0.1,0.1-0.2,0.2-0.2,0.3
		c0.1,0.2,0.3,0.4,0.4,0.6c0.1,0.1,0.1,0.1,0.2,0.2c0-0.1,0.2-0.3,0.1-0.4C39.1,286.3,38.9,286.2,38.7,286z M149.6,258.1
		c-0.6,0-1,0.2-1.4,0.9C148.9,258.9,149.3,258.8,149.6,258.1z M126.6,306.4c-0.1,0.1-0.2,0.1-0.2,0.1c0.1,0.1,0.2,0.3,0.3,0.4
		c0,0,0.2-0.1,0.3-0.2C126.8,306.6,126.7,306.5,126.6,306.4z M40.6,293.3c-0.3-0.6-0.5-0.8-0.6-1c0-0.1-0.1-0.1-0.2-0.2
		c0,0.2-0.2,0.4-0.1,0.5C39.8,292.7,40.1,292.8,40.6,293.3z M63.1,271.5c0.1-0.2,0.2-0.4,0.3-0.6c-0.1,0-0.2-0.1-0.2-0.1
		c-0.2,0.2-0.3,0.4-0.4,0.6C62.9,271.4,63,271.4,63.1,271.5z M92.6,318.1c-0.2-0.2-0.4-0.3-0.5-0.5c-0.1,0.1-0.2,0.3-0.2,0.4
		s0.2,0.3,0.3,0.4C92.2,318.4,92.4,318.2,92.6,318.1z M218.7,138.1c0.1-0.2,0.3-0.4,0.4-0.7c0,0-0.4-0.3-0.4-0.2
		c-0.2,0.2-0.3,0.4-0.5,0.6C218.3,137.9,218.5,138,218.7,138.1z M204,273.4c0.5,0.2,0.7,0.4,0.9,0.5c0.1,0,0.3-0.1,0.5-0.2
		c-0.1-0.1-0.2-0.3-0.3-0.3C204.8,273.3,204.5,273.3,204,273.4z M448.8,361.2c0.6,0.1,1,0,0.9-0.7C449.3,360.8,449,361,448.8,361.2z
		 M196.2,192.9c-0.5,0-0.9-0.1-1.4-0.1C195.5,194,195.5,194,196.2,192.9z M354.1,379.8c0.1,0.1,0.2,0.2,0.2,0.2
		c0.2,0,0.4-0.1,0.6-0.2C354.6,379.8,354.4,379.8,354.1,379.8z M369.9,256.6c0.1,0.1,0.1,0.2,0.2,0.3c0.3-0.2,0.5-0.3,0.7-0.5
		c0.1-0.1,0-0.3,0-0.4c-0.1,0-0.2,0-0.2,0C370.3,256.2,370.1,256.4,369.9,256.6z M269,389c0.1-0.1,0.2-0.1,0.3-0.1
		c-0.1,0-0.2-0.1-0.2-0.1c-0.1,0-0.2,0.1-0.3,0.1C268.8,388.9,268.9,388.9,269,389z M109.5,252.9c0-0.1,0-0.2-0.1-0.2
		c-0.2,0-0.5-0.1-0.7,0c-0.2,0.2-0.3,0.5-0.5,0.7c0.3,0,0.6,0,0.9-0.1C109.4,253.3,109.5,253,109.5,252.9z M371.2,395.5v0.1
		c0.2,0,0.5,0,0.7,0.1v-0.1C371.7,395.5,371.4,395.5,371.2,395.5z M367.7,292.2c0-0.1,0-0.2,0-0.3c-0.3,0.1-0.5,0.1-0.8,0.2
		c0.1,0.1,0.1,0.2,0.2,0.2C367.2,292.2,367.5,292.2,367.7,292.2z M247.8,186c-0.2,0.1-0.3,0.2-0.4,0.3c0.1,0.1,0.3,0.2,0.4,0.2
		c0.1,0,0.3-0.1,0.4-0.2C248.2,186.3,248,186.1,247.8,186z M422.3,318.7c-0.2-0.4-0.3-0.5-0.4-0.7c-0.1,0.2-0.3,0.3-0.4,0.5
		c0,0.1,0.2,0.4,0.2,0.4C421.9,318.9,422.1,318.8,422.3,318.7z M214.4,180.5c0,0.1,0,0.2,0,0.3c0.3,0,0.6,0,0.9,0.1
		c0-0.1,0-0.2,0-0.3C215,180.5,214.7,180.5,214.4,180.5z M353.7,146.2c0-0.1,0-0.2,0-0.2c-0.1-0.1-0.3-0.1-0.4-0.1
		c0,0.1,0,0.2,0.1,0.2C353.5,146.1,353.6,146.1,353.7,146.2z M221,176.1c-0.1-0.1-0.1-0.3-0.2-0.4c0,0-0.1,0-0.2,0.1
		c0.1,0.1,0.1,0.3,0.2,0.4C220.8,176.2,221,176.1,221,176.1z M130.7,299c0-0.1-0.1-0.1-0.1-0.2c-0.1,0.1-0.3,0.2-0.3,0.3
		c0,0.1,0.1,0.2,0.2,0.3C130.5,299.3,130.6,299.1,130.7,299z M83.5,256.7c0.1,0,0.2,0.1,0.2,0.1c0.1,0,0.1-0.2,0.1-0.2
		c-0.1,0-0.2,0-0.3,0C83.5,256.5,83.5,256.6,83.5,256.7z M200,213.4c-0.2,0.2-0.3,0.3-0.4,0.4c0.1,0.1,0.3,0.3,0.4,0.3
		c0.1,0,0.3-0.2,0.4-0.3C200.3,213.7,200.2,213.6,200,213.4z M275.4,125.5c0.6,0.2,0.8,0.3,1.1,0.3c0.1,0,0.2-0.2,0.2-0.3
		c-0.1-0.1-0.1-0.1-0.2-0.1C276.2,125.3,276,125.4,275.4,125.5z M92.9,259.5c-0.1-0.1-0.2-0.2-0.2-0.3c-0.2,0.2-0.4,0.3-0.6,0.5
		c0.1,0.1,0.3,0.2,0.3,0.2C92.6,259.9,92.8,259.7,92.9,259.5z M229,368c-0.1,0-0.1,0-0.2,0v0.1c0.1,0,0.1,0,0.2,0V368z M195.1,131.9
		c0.2-0.1,0.3-0.1,0.5-0.2c-0.1-0.1-0.1-0.2-0.2-0.2c-0.2,0-0.3,0-0.5,0.1C194.9,131.7,195,131.8,195.1,131.9z M374.5,228.3
		c-0.2,0.2-0.3,0.4-0.5,0.6l0.2,0.2c0.2-0.1,0.4-0.3,0.5-0.4C374.8,228.7,374.6,228.5,374.5,228.3z M266.8,229
		c0-0.1-0.1-0.2-0.1-0.2s-0.1,0-0.2,0.1c0,0.1,0,0.2,0.1,0.2C266.6,229.1,266.7,229,266.8,229z M76.9,288c-0.1,0.2-0.2,0.4-0.1,0.5
		c0,0.1,0.2,0.2,0.4,0.3c0.1-0.2,0.2-0.3,0.2-0.5C77.2,288.2,77,288.1,76.9,288z M184.3,378.8c0.1,0,0.1,0,0.2-0.1
		c-0.1,0-0.1-0.1-0.2-0.1c-0.1,0-0.1,0-0.2,0.1C184.2,378.7,184.3,378.8,184.3,378.8z M192.3,381.1c0.1,0,0.2-0.1,0.3-0.1
		c-0.1,0-0.1-0.1-0.2-0.1c-0.1,0-0.2,0-0.2,0.1C192.1,381,192.2,381,192.3,381.1z M307.2,225.8c-0.2-0.1-0.4-0.3-0.5-0.2
		c-0.2,0.1-0.3,0.3-0.5,0.5c0.1,0.1,0.3,0.3,0.3,0.3C306.8,226.1,307,225.9,307.2,225.8z M203.8,383.7l0.1,0.1c0.1,0,0.2,0,0.2,0
		c0-0.1-0.1-0.2-0.2-0.2C204,383.7,203.9,383.7,203.8,383.7z M268.1,221.3c0-0.1,0-0.2,0-0.3c-0.4,0-0.7,0-1.1,0c0,0.1,0,0.2,0,0.3
		C267.4,221.3,267.8,221.3,268.1,221.3z M261.2,387.1c-0.2,0-0.3,0-0.5,0c0.1,0.1,0.1,0.1,0.2,0.1s0.2,0,0.2,0
		C261.2,387.2,261.2,387.1,261.2,387.1z M393,387.7l0.2,0.1v-0.1H393z M273.7,240.5c-0.2,0.1-0.3,0.2-0.4,0.3
		c0.1,0.1,0.3,0.2,0.4,0.2s0.3-0.1,0.5-0.2C274,240.8,273.8,240.6,273.7,240.5z M386.3,191.5c0.1-0.1,0.3-0.2,0.4-0.3
		c0-0.1-0.1-0.3-0.1-0.5c-0.2,0.1-0.3,0.2-0.5,0.4C386,191.2,386.2,191.4,386.3,191.5z M250.6,220.3c-0.2,0.1-0.3,0.2-0.4,0.3
		c0.2,0.1,0.3,0.2,0.5,0.2s0.3-0.1,0.5-0.2C250.9,220.6,250.7,220.4,250.6,220.3z M250.1,235.3c0-0.1-0.1-0.2-0.1-0.2
		c-0.2,0-0.4,0-0.5,0c0,0.1,0.1,0.3,0.1,0.3C249.7,235.4,249.9,235.3,250.1,235.3z M171.6,220.3c-0.1,0-0.1,0.1-0.2,0.1
		c0.1,0.1,0.1,0.3,0.2,0.3c0.1,0,0.2-0.1,0.4-0.2C171.9,220.5,171.7,220.4,171.6,220.3z M253.6,154.8c-0.1-0.1-0.1-0.4-0.2-0.4
		c-0.3-0.1-0.5-0.1-0.8,0c-0.1,0-0.2,0.4-0.2,0.4c0.2,0.1,0.5,0.3,0.7,0.3S253.4,154.9,253.6,154.8z M412.9,278.6
		c0-0.1-0.1-0.2-0.1-0.2c-0.2,0.1-0.3,0.1-0.5,0.2c0.1,0.1,0.1,0.2,0.2,0.3C412.7,278.8,412.8,278.7,412.9,278.6z M345.5,218.3v0.1
		l0.2-0.1H345.5z M417.8,262.8c-0.1,0-0.1,0-0.2-0.1c0,0.1,0,0.2,0,0.3c0.1,0,0.1,0,0.2,0C417.8,262.9,417.8,262.8,417.8,262.8z
		 M85.8,256c-0.1,0-0.1,0-0.2-0.1c0,0.1,0.1,0.1,0.1,0.2C85.8,256.1,85.8,256.1,85.8,256z M321.1,255c-0.1,0-0.2-0.1-0.3-0.1
		c0,0,0,0.1,0.1,0.1C320.9,255,321,255,321.1,255z M226.7,204.9c0-0.1,0-0.2-0.1-0.2s-0.1,0-0.2,0c0,0.1,0.1,0.2,0.1,0.3
		C226.5,204.9,226.6,204.9,226.7,204.9z M169.8,337c0,0.1,0,0.1,0.1,0.2c0.1,0,0.2,0,0.2,0.1c0-0.1,0-0.2-0.1-0.3
		C169.9,337,169.9,337,169.8,337z M384.1,252.5c0.1,0,0.2,0,0.2-0.1s0-0.1,0-0.2c-0.1,0-0.2,0-0.2,0.1
		C384,252.3,384.1,252.4,384.1,252.5z M432.1,283.5c-0.1-0.2-0.1-0.3-0.2-0.5c-0.1,0.1-0.2,0.1-0.2,0.2c0,0.2,0.1,0.3,0.2,0.5
		C432,283.6,432.1,283.5,432.1,283.5z M459.2,338.9c-0.1-0.1-0.1-0.3-0.2-0.4c-0.1,0-0.2,0.1-0.2,0.1c0,0.1,0,0.3,0,0.4
		C459,339,459.1,339,459.2,338.9z M415.5,258.1c-0.1,0.1-0.1,0.3-0.2,0.4c0,0.1,0.1,0.1,0.2,0.2c0.1-0.1,0.3-0.2,0.3-0.4
		C415.8,258.3,415.6,258.2,415.5,258.1z M407.3,266c0-0.1-0.1-0.1-0.1-0.2c-0.1,0.1-0.2,0.1-0.1,0.2c0,0.1,0.1,0.2,0.2,0.2
		C407.3,266.1,407.3,266,407.3,266z M320.5,239.8c0-0.1-0.1-0.1-0.1-0.2c-0.1,0-0.1,0-0.2,0c0.1,0.1,0.1,0.2,0.2,0.2
		C320.3,239.9,320.4,239.8,320.5,239.8z M167.5,236.5l-0.1,0.2h0.1V236.5z M368.6,192.4v0.2l0.2-0.1L368.6,192.4z M331.6,192.4v0.2
		l0.2-0.1L331.6,192.4z M392.7,354c0-0.1-0.1-0.2-0.1-0.2c-0.1,0-0.3,0.1-0.4,0.2c0,0.1,0.1,0.2,0.1,0.2
		C392.5,354.1,392.6,354,392.7,354z M385.8,269.1v-0.2l-0.2,0.1L385.8,269.1z M399.3,187.7l0.1-0.1h-0.1V187.7z M223.8,186.8
		c-0.1,0-0.1,0-0.2-0.1C223.6,186.8,223.7,186.8,223.8,186.8C223.7,186.9,223.8,186.9,223.8,186.8z M201.9,233.5l0.2,0.1v-0.1H201.9
		z M212.9,184.5c-0.1,0-0.2,0-0.2,0.1s0,0.2,0.1,0.2s0.2,0,0.2-0.1C212.9,184.6,212.9,184.6,212.9,184.5z M80.9,294.4
		c-0.1,0-0.2,0-0.2,0.1s0,0.2,0,0.3c0.1,0,0.2,0,0.3-0.1C81,294.6,80.9,294.5,80.9,294.4z M322.3,181c-0.1,0.1-0.1,0.1-0.2,0.2
		c0.2,0.1,0.3,0.2,0.5,0.2c0,0,0.1-0.1,0.2-0.2C322.7,181.2,322.5,181.1,322.3,181z M128.2,299.3c-0.1,0-0.2,0.1-0.2,0.1
		c0,0.1,0.1,0.3,0.1,0.4c0.1,0,0.2-0.1,0.2-0.1C128.3,299.5,128.2,299.4,128.2,299.3z M157.3,272.2c-0.1,0.1-0.2,0.1-0.2,0.2
		s0.1,0.1,0.1,0.2c0.1-0.1,0.2-0.2,0.3-0.3C157.4,272.3,157.3,272.3,157.3,272.2z M147.9,171.4c0-0.1,0-0.2,0-0.2
		c-0.1,0-0.2,0-0.2,0.1s0,0.2,0,0.2C147.8,171.5,147.9,171.4,147.9,171.4z M394,374.1v0.2l0.2-0.1L394,374.1z M175.4,274.2
		c-0.1-0.1-0.2-0.3-0.3-0.3s-0.3,0.1-0.4,0.2c0.1,0.1,0.2,0.3,0.3,0.3C175.1,274.4,175.2,274.3,175.4,274.2z M153.5,308.5
		c0-0.1,0-0.2,0-0.2c-0.1,0-0.2,0-0.2-0.1C153.3,308.3,153.3,308.4,153.5,308.5C153.3,308.5,153.4,308.5,153.5,308.5z M310,163.8
		c0-0.1-0.1-0.2-0.1-0.2c-0.1,0-0.1,0-0.2,0c0,0.1,0.1,0.2,0.1,0.3C309.8,163.9,309.9,163.9,310,163.8z M356.8,274.7l0.2-0.1
		l-0.2-0.1V274.7z M464.5,314.9l0.1,0.2l0.1-0.2H464.5z M124.7,315.7c0.1,0,0.1,0,0.2-0.1c0-0.1,0-0.2-0.1-0.2c0,0-0.2,0-0.2,0.1
		C124.6,315.5,124.6,315.6,124.7,315.7z M186.3,379.4c0.1,0,0.1,0,0.2-0.1c-0.1,0-0.1-0.1-0.2-0.1c-0.1,0-0.1,0-0.2,0.1
		C186.2,379.3,186.2,379.3,186.3,379.4z M216.4,145.3c-0.1,0-0.2-0.1-0.3-0.1c0,0,0,0.1,0.1,0.1
		C216.2,145.3,216.3,145.3,216.4,145.3z M161.3,142.6l-0.1,0.2h0.2L161.3,142.6z M141.6,321.2c0,0.1-0.1,0.1-0.1,0.2
		c0.1,0,0.2,0,0.3,0.1c0-0.1,0-0.2,0-0.2C141.7,321.2,141.6,321.2,141.6,321.2z M213.8,140.1l0.2,0.1v-0.1H213.8z M198,223.4v0.2
		l0.2-0.1L198,223.4z M164.9,223.8c-0.1-0.1-0.1-0.1-0.2-0.2c-0.1,0.1-0.2,0.3-0.2,0.4c0,0,0.1,0.1,0.2,0.2
		C164.7,224.1,164.8,224,164.9,223.8z M281.2,133.4c-0.1-0.1-0.1-0.2-0.2-0.2s-0.3,0.1-0.4,0.1c0.1,0.1,0.1,0.2,0.2,0.2
		C280.9,133.6,281,133.5,281.2,133.4z M393.8,326.7c0-0.1,0-0.1-0.1-0.2c0,0.1-0.1,0.1-0.1,0.2s0,0.1,0.1,0.2
		C393.7,326.8,393.8,326.8,393.8,326.7z M97.3,328v0.2l0.2-0.1L97.3,328z M156.8,153.6c0.1,0,0.1-0.1,0.2-0.1c0-0.1,0-0.2,0-0.2
		c-0.1,0.1-0.2,0.1-0.3,0.2C156.7,153.4,156.7,153.5,156.8,153.6z M130.9,279.4c0,0.1,0,0.1-0.1,0.2c0.1,0,0.1,0,0.2,0.1
		c0-0.1,0-0.1,0-0.2C131,279.5,130.9,279.4,130.9,279.4z M397.7,221h-0.2l0.1,0.2L397.7,221z M426.4,280.1c0-0.1,0-0.1-0.1-0.2
		c0,0.1-0.1,0.2-0.1,0.3C426.3,280.1,426.4,280.1,426.4,280.1z M401.9,261.6c0.1,0.1,0.2,0.3,0.2,0.4c0.1-0.1,0.2-0.3,0.2-0.4
		s-0.1-0.3-0.2-0.4C402.1,261.3,402,261.4,401.9,261.6z M60.1,263.4c0-0.1,0.1-0.1,0.1-0.2c0,0-0.1-0.1-0.2-0.1
		c0,0.1-0.1,0.1-0.1,0.2C59.9,263.4,60,263.4,60.1,263.4z"/>
	<path class="st0" d="M384.5,304.5c-0.2,1.2-0.4,2-0.6,3.2c0.6-0.5,1-0.7,1.3-1c1-1,1.9-2,2.9-3.1c0.7-0.8,1.5-1.3,2.8-1.6
		c-0.4,0.8-0.7,1.3-1,1.9c0.2,0,0.4,0.1,0.5,0.1c1-0.7,1.9-1.5,2.9-2.2c2-1.4,4-2.8,5.9-4.2c2-1.4,4-2.7,5.6-4.6
		c0.1-0.1,0.3-0.3,0.4-0.3c0.3-0.1,0.6-0.1,0.8,0c0.2,0.1,0.4,0.4,0.4,0.7c0.1,0.4,0.1,0.8-0.1,1.1c-0.4,1-0.8,1.9-1.3,2.8
		c-0.2,0.4-0.5,0.8-0.9,1.1c-2.8,2.7-4.4,6.2-5.6,9.9c-0.5,1.3-1,2.6-1.5,4.1c-1.8,1-3.9,1.6-6.2,2.3c0.8-2.1,2.3-3.4,3.2-4.9
		c-0.4-0.7-0.9-0.4-1.2-0.1c-0.6,0.6-1.2,1.2-1.7,1.9c-0.9,1.1-1.7,2.3-2.5,3.4c-0.8,1-1.7,1.6-3.3,1.7c2-2.2,3.9-4.2,5.7-6.3
		c1.9-2.2,3.7-4.4,5.6-6.6c1.8-2.1,3.8-4.1,5.5-6.3c-0.5-0.5-0.8-0.1-1,0.1c-3.2,1.8-6.1,4-9,6.3c-2.7,2.1-5.3,4.2-8,6.2
		c-1.4,1.1-2.6,2.4-3.3,4.1c-0.6,1.5-1.6,2.8-2.3,4.2c-0.8,1.5-1.9,2.2-3.6,2.3c-0.3-1.1,0.9-1.7,0.8-2.8c-0.1-0.9,0.7-1.9,1.2-2.8
		c0.4-0.7,0.9-1.5,1.5-2c1.7-1.3,2.6-3.2,3.4-5.1c0.3-0.8,0.6-1.6,1-2.3C383,305.1,383.6,305,384.5,304.5z M396.8,307
		c-0.5,0.5-0.8,0.7-0.9,1c-0.1,0.2,0,0.5,0.1,0.7c0.2-0.1,0.5-0.2,0.6-0.4C396.7,308,396.7,307.7,396.8,307z"/>
	<path class="st0" d="M320.7,346.9c0.8,0.3,1.6,0.5,2.7,0.9c-2.9,0.9-5.5,1.7-8.2,2.5c-3.5-1.8-7.3-2.8-11.1-4c-1,0.4-2,0.8-3.1,1.2
		c-1,0.4-2,0.9-3,1.4c0.3,1,1.1,0.8,1.6,1.1c0.6,0.3,1.2,0.5,1.8,0.7c0.6,0.2,1.3,0.4,1.9,0.5c0.6,0.2,1.3,0.3,1.9,0.5
		s1.3,0.1,1.7,0.9c-1.1,0.8-2.3,0.8-3.5,0.4c-2-0.7-4.1-1.4-6.1-2.1c-1.3-0.5-2.7-1-4.2-0.1c-0.3-0.6-0.5-1.3-0.9-1.7
		c-0.4-0.4-1-0.5-1.5-0.7c-1.8-0.8-3.6-1.5-5.4-2.3c-0.4-0.2-0.9-0.3-0.8-1.1c1.2-0.2,2.3,0.6,3.4,0.9c1.2,0.4,2.5,0.9,3.7,1.4
		c1.1,0.4,2.3,0.8,3.4,1.2c2-0.8,4-1.6,6-2.4c-0.1-1.2-1.6-0.6-1.6-1.6c0.1-0.1,0.2-0.4,0.3-0.4c1.9,0.3,3.9,0.5,5.8,1
		c3.2,0.9,6.4,2,9.6,3.1c1.5,0.6,2.7,0.5,3.9-0.4C319.7,347.4,320.2,347.2,320.7,346.9z"/>
	<path class="st0" d="M296,354.2c-2.2,0.8-4.1,0.6-6.1-0.3c-3.8-1.8-7.7-3.4-11.8-5.2c-0.8,0.4-1.8,0.8-2.8,1.3
		c-0.6,0.3-1.2,0.6-1.8,0.8c-0.8,0.3-1.4,0.1-1.8-0.4c-0.4-0.6-0.2-1.3,0.7-1.9c0.7-0.5,1.3-0.9,2.2-1.5c-0.9-0.5-1.5-0.8-2.1-1.2
		c-0.6-0.3-1.2-0.5-1.7-0.9c-0.2-0.2-0.2-0.6-0.4-0.9c0.3-0.1,0.7-0.3,1-0.2c0.8,0.2,1.6,0.6,2.4,0.9c0.9,0.4,1.9,0.8,2.7,1.1
		c3.7-1.7,3.7-1.7,7.1-1c-0.6,0.5-1.1,0.9-1.6,1.3c-0.4,0.3-0.9,0.7-1.5,1.1c0.5,0.4,0.8,0.7,1.1,0.9c4,1.7,7.9,3.3,11.9,4.9
		C294.3,353.4,295.1,353.8,296,354.2z"/>
	<path class="st0" d="M197.4,331.2c-1.2,0.1-1.8,1.8-3,0.6c-0.2-1,1.2-1.2,1-2.3c-1.2-1.1-2.5-2.4-3.9-3.7c-1.3-1.2-2.7-2.2-3.9-3.6
		c0.5-0.2,0.7-0.3,0.8-0.3c0.8,0.6,1.7,1.2,2.5,1.8c1.9,1.5,3.8,3.1,5.6,4.6c0.8,0.4,1.7-0.8,2.3,0.4c-0.1,0.4-0.2,0.8-0.4,1.4
		c2.7,1.9,5.5,3.8,8.7,6C203,335.3,200,333.6,197.4,331.2z"/>
	<path class="st0" d="M212.5,337.8c-0.2-0.6-0.4-1.2-1.1-1.6c-1.9-1.1-3.6-2.3-5.4-4.2c0.8,0.2,1.2,0.2,1.6,0.4
		c1.5,0.7,3,1.4,4.6,2.1c0.7,0.3,1.4,0.8,2.1,0.8c0.7,0,0.9,0.3,1.3,0.8c0.3,0.4,0.9,0.7,1.4,0.9c2.2,1.1,4.4,2.1,6.6,3.1
		c0.7-0.3,1.3-0.7,1.9-1c0.8,0.9-0.1,1.4-0.3,2.1c-0.2,0-0.4,0.2-0.5,0.1c-3.3-0.7-6.6-1.4-9.6-3C214.2,338,213.3,338,212.5,337.8z"
		/>
	<path class="st0" d="M231.1,346.6c0.6,0,1.3-0.3,1.9-0.1c6.2,1.9,12.6,3.5,18.5,6.4c0.1,0.5-0.2,0.6-0.6,0.6c-3.8-0.4-7.5-1.3-11-3
		C237,349.2,234.1,347.9,231.1,346.6L231.1,346.6z"/>
	<path class="st0" d="M285.9,341c2.4-2.7,4.5-3.5,8.8-3.5c0.1,0.6-0.4,0.7-0.8,0.9c-1,0.6-2.1,1.2-3.1,1.8
		C288.7,341.5,288.7,341.5,285.9,341z"/>
	<path class="st0" d="M337.2,338.5c1.9-1.6,3.5-1.9,5.4-1.5c1.3,0.3,2.7,0.4,4.2,0.6c-1,1.2-2,1.9-3,1.8
		C341.7,339.2,339.7,338.9,337.2,338.5z"/>
	<path class="st0" d="M391.2,295c-3.1,3-6.5,5.7-11.4,6.9C383.3,298.5,387.1,296.6,391.2,295z"/>
	<path class="st0" d="M225.9,347.3c-1.5-0.5-2.9-1.1-4.4-1.5c-2.4-0.7-4.3-2.4-6.4-3.6c4.1,0.4,7.7,1.9,11,4.3
		C226,346.8,226,347.1,225.9,347.3L225.9,347.3z"/>
	<path class="st0" d="M199.7,326.5c0-0.1,0-0.2,0-0.3c2.4-2.7,4.7-5.5,7.1-8.2c0.2-0.2,0.5-0.3,0.7-0.3c0.1,0,0.4,0.1,0.5,0.2
		s0.2,0.3,0.1,0.5c0,0.2-0.1,0.4-0.2,0.5c-2.5,2.2-4.6,4.9-6.8,7.4C200.7,326.9,200.2,326.8,199.7,326.5z"/>
	<path class="st0" d="M401.1,313.9c-0.1,0-0.2,0-0.3,0.1c-2,2.6-4.8,3.7-7.8,4.6c-0.5-0.5-0.2-0.8,0.3-1c2-0.8,3.5-2,4.9-3.6
		c0.6-0.7,1.4-1.2,2.5-1.3C400.9,313.2,401,313.6,401.1,313.9L401.1,313.9z"/>
	<path class="st0" d="M394.6,296.5c2.1-2.6,4.4-4.9,6.8-7.1c0.6,0.4,0.4,0.7,0.2,1c-1.6,1.8-3.3,3.6-5,5.4
		C396.2,296.3,395.6,296.9,394.6,296.5z"/>
	<path class="st0" d="M326.7,344.5c2.5-1.3,4.1-2.6,6.2-3.2c0.1,0,0.3,0.1,0.5,0.2C332,343.6,330.1,344.5,326.7,344.5z"/>
	<path class="st0" d="M401.1,314c0.6-0.2,0.7-0.8,0.9-1.3c0.1-0.3,0.3-0.7,0.6-0.9c0.4-0.3,0.8-0.4,1.3-0.6c0.4,1,0.1,1.8-0.5,2.3
		c-0.5,0.5-1.3,0.9-2,1.3C401.4,314.6,401.3,314.2,401.1,314C401.1,313.9,401.1,314,401.1,314z"/>
	<path class="st0" d="M303.7,330.5c1.3-1.2,2.6-1.9,3.9-2.4c0.2-0.1,0.6,0.1,0.7,0.3c0.1,0.2,0.1,0.6-0.1,0.7
		c-0.2,0.3-0.5,0.6-0.8,0.7C306.3,330.1,305.2,330.6,303.7,330.5z"/>
	<path class="st0" d="M248,346.6c-2.2,0-4.4,0-6.7-1.8c1.1,0.2,1.7,0.3,2.3,0.4c0.8,0.2,1.6,0.4,2.4,0.6
		C246.7,346.1,247.4,346.4,248,346.6z"/>
	<path class="st0" d="M385.5,321.6c1.4-1.4,3.4-2.3,5.9-2.7c-0.2,0.3-0.3,0.6-0.5,0.7C389.3,320.3,387.6,321.1,385.5,321.6z"/>
	<path class="st0" d="M371.6,320.5c-1.2,2.3-3.1,2-4.9,3C368,321.9,368.2,321.8,371.6,320.5z"/>
	<path class="st0" d="M198.5,338.2c1.5-1.4,1.5-1.4,2.8-0.6C200.1,339.2,200.1,339.2,198.5,338.2z"/>
	<path class="st0" d="M193.5,316.1c0.4,1.2,0.4,1.2-1.6,3.2c-0.1-0.3-0.2-0.6-0.1-0.7C192.2,317.7,192.6,316.8,193.5,316.1z"/>
	<path class="st0" d="M231.2,333c0.2-0.3,0.4-0.6,0.7-0.8c1.1-1.1,1.9-1.4,1.9-1c0.2,1-0.7,1.3-1.3,1.9c-0.2,0.3-0.8,0.3-1.1,0.4
		C231.3,333.3,231.3,333.1,231.2,333z"/>
	<path class="st0" d="M208.2,341.6c0.2-0.3,0.4-0.5,0.6-0.7c0.6-0.6,1.2-0.7,1.4-0.3c0.3,0.7-0.2,1-0.6,1.4
		C209.1,342.3,208.7,342.2,208.2,341.6z"/>
	<path class="st0" d="M203.6,343.7c-1.2-0.2-2.3-0.5-3.1-1.4C201.9,342.2,202.6,342.5,203.6,343.7L203.6,343.7z"/>
	<path class="st0" d="M227.5,336.7c0.6-0.8,1-1.6,2.1-1.1C228.9,337,228.9,337,227.5,336.7z"/>
	<path class="st0" d="M373.2,325.8c-1,0.4-1.6,0.6-2.2,0.8C371.4,325.8,372,325.4,373.2,325.8z"/>
	<path class="st0" d="M216.9,333c-0.2-0.3-0.3-0.6-0.3-0.6c0.3-0.3,0.6-0.6,0.9-0.9c0.1,0.2,0.3,0.5,0.3,0.6
		C217.5,332.4,217.2,332.7,216.9,333z"/>
	<path class="st0" d="M372.9,318.4c-0.2,0.2-0.4,0.4-0.5,0.6c-0.1-0.1-0.3-0.2-0.3-0.3c0-0.1,0.1-0.3,0.3-0.4
		C372.5,318.2,372.7,318.3,372.9,318.4z"/>
	<path class="st0" d="M213,324.4c0.2,0.1,0.3,0.1,0.5,0.2c-0.1,0.2-0.1,0.4-0.3,0.5c-0.1,0-0.4-0.1-0.4-0.2S212.9,324.6,213,324.4z"
		/>
	<polygon class="st0" points="346.1,334.2 346.3,334.3 346.1,334.3 	"/>
	<path class="st0" d="M195.3,336.8c0.1,0,0.2-0.1,0.3-0.1c0.2,0.1,0.3,0.2,0.4,0.3c-0.1,0.1-0.1,0.2-0.2,0.2
		C195.5,337.2,195.2,337.2,195.3,336.8C195.4,336.8,195.3,336.8,195.3,336.8z"/>
	<path class="st0" d="M203.5,343.7c0.2,0,0.4,0,0.6,0l-0.1,0.1C203.9,343.8,203.8,343.7,203.5,343.7
		C203.6,343.7,203.5,343.7,203.5,343.7z"/>
	<path class="st0" d="M231.2,346.6c0-0.2-0.1-0.4-0.1-0.6c0.1,0,0.2,0.1,0.2,0.1C231.2,346.3,231.2,346.5,231.2,346.6
		C231.1,346.6,231.2,346.6,231.2,346.6z"/>
	<path class="st0" d="M225.9,347.3c0.1-0.1,0.3-0.2,0.4-0.2c0.1,0,0.2,0,0.2,0c-0.1,0.1-0.1,0.1-0.2,0.2
		C226.2,347.3,226.1,347.3,225.9,347.3L225.9,347.3z"/>
	<path class="st0" d="M380.4,289.6c0-0.2,0-0.4,0-0.6c0.4,0,0.8,0,1.2,0C381.5,289.6,380.9,289.4,380.4,289.6z"/>
	<path class="st0" d="M325.9,333.5c0.1-0.2,0.2-0.4,0.4-0.6c0.1-0.1,0.3,0.1,0.4,0.1c-0.1,0.2-0.2,0.4-0.4,0.4
		C326.2,333.5,326,333.4,325.9,333.5L325.9,333.5z"/>
	<path class="st0" d="M325.9,333.4c-0.1,0.1-0.1,0.3-0.2,0.4c-0.1-0.1-0.1-0.2-0.2-0.3C325.6,333.5,325.8,333.5,325.9,333.4
		L325.9,333.4z"/>
	<path class="st0" d="M159.9,287.8c0,0.2,0,0.4,0,0.6c-2.2-0.2-4.5-0.4-6.7-0.6c-1-0.1-1.6-0.8-2.3-1.5c0.6-0.5,1.1-0.1,1.6,0.1
		c1,0.5,2,1,3.1,0.2c0.2-0.1,0.5,0,0.8,0c0.6,0.2,1.1,0.4,1.7,0.6C158.8,287.4,159.4,287.6,159.9,287.8z"/>
	<path class="st0" d="M161.6,288.4c0,0.2,0,0.4,0,0.6c-0.7,0-1.4,0.2-1.8-0.6C160.4,288.4,161,288.4,161.6,288.4z"/>
	<path class="st0" d="M161.5,288.9c0.6,0,1.2,0,1.8,0c0,0.2,0,0.4,0,0.6C162.7,289.4,161.9,289.8,161.5,288.9z"/>
	<path class="st0" d="M164.4,290.1c0.6,0.2,1.2,0.4,1.8,0.6C165.6,290.5,165,290.3,164.4,290.1z"/>
	<path class="st0" d="M163.2,289.5c0.4,0.2,0.8,0.4,1.2,0.6C164,290,163.4,290.1,163.2,289.5z"/>
	<path class="st0" d="M166,290.6c0.5,0.1,1,0,1.2,0.6C166.8,291.2,166.2,291.3,166,290.6z"/>
</g>
</svg>
